<?xml version="1.0" encoding="utf-8"?>
<!-- Generator: Adobe Illustrator 26.0.0, SVG Export Plug-In . SVG Version: 6.00 Build 0)  -->
<svg version="1.1" id="Capa_1" xmlns="http://www.w3.org/2000/svg" xmlns:xlink="http://www.w3.org/1999/xlink" x="0px" y="0px"
	 viewBox="0 0 500 500" style="enable-background:new 0 0 500 500;" xml:space="preserve">
<style type="text/css">
	.st0{fill-rule:evenodd;clip-rule:evenodd;fill:#FFCD00;}
	.st1{fill-rule:evenodd;clip-rule:evenodd;fill:#08090B;}
	.st2{fill-rule:evenodd;clip-rule:evenodd;fill:#D9D8D6;}
	.st3{fill-rule:evenodd;clip-rule:evenodd;fill:#E1251B;}
	.st4{fill-rule:evenodd;clip-rule:evenodd;fill:#FFFFFF;}
	.st5{fill-rule:evenodd;clip-rule:evenodd;fill:#0075C9;}
</style>
<g>
	<g>
		<g>
			<path class="st0" d="M389.33,65.97c-6.15-2.13-17.62,2.2-21.49,7.25c0,0-7.66-7.25-14.57-2.16c-6.91,5.06,2.28,12.27,9.94,18.83
				c0,0-34.55,18.66-36.05-15.94l0.08-0.29l0.09-0.32l2.27,0.28c5.3,1.03,13.68-0.6,14.72-5.55c1.05-4.98-5.47-11.39-10.61-12.49
				c0.59-0.85,1.03-1.88,1.23-2.93c1.07-5.07-2.36-9.9-7.68-10.87c-5.33-1.03-10.51,2.2-11.55,7.22c-0.24,1.11-0.24,2.17-0.28,3.15
				c-5.35-0.97-14.68,1.36-15.74,6.38c-1.03,4.93,6.56,10.75,11.87,11.72l2.01,0.4l-0.35,1.51l0.1,0.32c0,0-3.08,21.71-25.35,20.26
				c-22.26-1.45-26.89-23.84-29.96-31.81c0,0,27.37,11.99,29.19-8.59c1.54-17.41-19.96-15.88-19.96-15.88s15.95-29.34-12.75-29.6
				h-0.16h-0.19c-28.65,0.26-12.68,29.6-12.68,29.6s-21.5-1.53-19.96,15.88c1.81,20.58,29.19,8.59,29.19,8.59
				c-3.11,7.97-7.71,30.36-29.99,31.81c-22.25,1.45-25.33-20.26-25.33-20.26l0.08-0.32l-0.31-1.51l1.97-0.4
				c5.32-0.97,12.95-6.78,11.9-11.72c-1.11-5.03-10.42-7.36-15.71-6.38c-0.04-0.97-0.07-2.03-0.32-3.15
				c-1.02-5.01-6.23-8.25-11.52-7.22c-5.33,0.97-8.76,5.8-7.71,10.87c0.25,1.05,0.64,2.08,1.23,2.93
				c-5.12,1.09-11.64,7.51-10.6,12.49c1.04,4.95,9.42,6.58,14.75,5.55l2.24-0.28l0.12,0.32l0.07,0.29
				c-1.55,34.6-36.1,15.94-36.1,15.94c7.71-6.55,16.89-13.77,9.99-18.83c-6.91-5.09-14.63,2.16-14.63,2.16
				c-3.77-5.04-15.3-9.37-21.45-7.25c-6.13,2.2-9.18,10.81-2.33,13.01c6.93,2.19,10.01,9.4,10.01,9.4
				c-0.78,7.94,6.91,8.63,6.91,8.63l21.5,38.25c-3.56,2.3-9.61,8.65-5.86,16.6c5.38,11.39,21.18,4.33,21.18,4.33
				c43.94-13.74,80.07-13.09,83.37-13h0.19h0.16c3.34-0.09,39.5-0.74,83.37,13c0,0,15.86,7.06,21.25-4.33
				c3.73-7.95-2.33-14.31-5.86-16.6l21.51-38.25c0,0,7.63-0.69,6.89-8.63c0,0,3.04-7.22,9.99-9.4
				C398.54,76.77,395.53,68.17,389.33,65.97"/>
		</g>
		<g>
			<g>
				<path class="st1" d="M389.86,64.75L389.86,64.75h-0.02H389.86z M242.7,35.82L242.7,35.82l1.13,2.1l-2.47-0.14
					c-0.07-0.05-9.97-0.62-15.26,4.39c-2.48,2.37-3.58,5.75-3.18,9.99c0.42,4.55,2.17,7.68,5.19,9.44
					c7.85,4.24,21.82-1.79,21.99-1.85l2.94-1.25l-2.19,6.24c-3.33,9.79-9.47,27.97-30,29.29c-23.34,1.54-26.81-21.14-26.73-21.65
					l-0.59-2.82l3.36-0.6c4.67-0.92,11.56-6.18,10.72-10.3c-0.84-4.01-9.33-6.14-14.02-5.27l-1.6-0.2l-0.36-3.96
					c-0.44-2.11-1.67-3.82-3.55-5.01c-1.87-1.16-4.11-1.63-6.31-1.16c-4.56,0.85-7.54,4.98-6.64,9.25l1.04,2.57l0.68,1.65
					l-1.53,0.31c-4.59,0.99-10.41,6.92-9.54,10.9c0.26,1.13,1,2.1,2.27,2.88c2.94,1.9,7.7,2.27,10.9,1.65l3.54-0.46l0.51,1.96v0.19
					c-0.46,10.24-3.76,17.05-9.96,20.24c-11.24,5.78-27.56-2.88-28.23-3.27l-1.7-0.91l2.52-2.13c5.18-4.36,10.97-9.21,10.86-12.84
					c-0.05-1.09-0.65-2.07-1.87-2.98c-5.84-4.24-12.46,1.79-12.76,2.07l-1.18,1.08l-0.95-1.26c-3.41-4.44-14.24-8.7-19.87-6.74
					c-3.01,1.08-5.38,4.18-5.31,6.92c0.03,1.23,0.55,2.79,3,3.61c7.44,2.33,10.68,9.84,10.81,10.15l0.14,0.28l-0.02,0.26
					c-0.64,6.43,5,7.22,5.66,7.26l0.74,0.11l22.43,39.92l-1.07,0.6c-3.28,2.14-8.64,7.96-5.33,15.02c1.18,2.48,3,4.22,5.45,5.01
					c5.98,2.1,13.85-1.31,14.03-1.4c43.85-13.75,79.91-13.2,84.12-13.04c3.96-0.15,39.95-0.71,84.01,13.09
					c0.06,0.05,7.89,3.45,13.89,1.36c2.4-0.79,4.24-2.53,5.41-5.01c3.31-7.06-2.02-12.87-5.37-14.96l-1.03-0.66l22.48-39.92
					l0.7-0.11c0.66-0.05,6.3-0.83,5.64-7.26l-0.02-0.26l0.14-0.28c0.17-0.31,3.41-7.82,10.84-10.15c2.47-0.82,2.98-2.37,3.01-3.61
					c0.05-2.74-2.36-5.84-5.35-6.92c-5.6-1.96-16.47,2.3-19.87,6.74l-0.94,1.26l-1.19-1.08c-0.26-0.28-6.85-6.3-12.72-2.07
					c-1.22,0.91-1.88,1.88-1.89,2.98c-0.14,3.64,5.72,8.48,10.84,12.84l2.53,2.13l-1.68,0.91c-0.68,0.39-16.97,9.05-28.24,3.27
					c-6.14-3.19-9.47-10.01-9.87-20.71l0.53-1.63l3.53,0.42c3.16,0.62,7.83,0.25,10.79-1.65c1.31-0.79,2.05-1.76,2.3-2.88
					c0.86-3.98-4.95-9.91-9.54-10.9l-1.49-0.55l1.68-3.98c0.86-4.27-2.07-8.4-6.65-9.25c-4.52-0.89-8.93,1.93-9.86,6.17l-0.26,2.47
					l-0.08,2.02l-1.6-0.32c-4.7-0.86-13.17,1.26-14.08,5.27c-0.85,4.12,6.13,9.37,10.78,10.3l3.35,0.6l-0.28,1.31
					c0,0-0.31,1.53-0.22,1.82c-0.04,0.2-3.48,22.88-26.81,21.34c-20.58-1.33-26.69-19.5-30.04-29.29l-2.18-6.24l2.98,1.25
					c0.12,0.06,14.11,6.09,21.96,1.85c3.07-1.76,4.82-4.89,5.25-9.44c0.36-4.24-0.74-7.62-3.26-9.99
					c-5.26-5.01-15.12-4.44-15.28-4.39l-2.45,0.14l1.14-2.1c0.05-0.15,7.59-14.25,2.48-22.17c-2.33-3.61-7.02-5.43-14.27-5.47
					c-6.99,0.05-11.7,1.87-13.99,5.47C235.11,21.58,242.67,35.67,242.7,35.82 M237.82,12.3c-1.59,2.48-2.18,5.32-2.18,8.3
					c0,5.8,2.31,11.62,3.64,14.51c-3.53,0.11-10.56,0.8-15.14,5.21c-2.75,2.6-4.12,6.03-4.12,10.27c0,0.57,0.03,1.17,0.13,1.85
					c0.46,5.41,2.65,9.24,6.58,11.41c6.91,3.76,16.89,1.06,21.68-0.68c-0.09,0.28-0.27,0.82-0.27,0.82
					c-3.3,9.81-8.85,26.16-27.49,27.38c-20.69,1.36-23.72-18.18-23.85-19.03V72.2c0-0.16-0.02-0.37-0.04-0.52
					c0.31-0.09,0.67-0.2,0.67-0.2c5.58-1.02,13.05-6.61,13.05-12.07c0-0.4-0.02-0.82-0.13-1.19c-1.12-5.36-9.75-8-15.79-7.52
					c-0.05-0.83-0.18-1.96-0.18-1.96c-0.59-2.76-2.24-5.09-4.73-6.69c-2.52-1.53-5.53-2.1-8.49-1.59
					c-5.32,0.99-8.99,5.43-8.99,10.38c0,0.66,0.09,1.34,0.21,2.02c0,0,0.46,1.12,0.8,2.05c-5.09,1.82-10.31,7.19-10.31,12.04
					c0,0.45,0.03,0.91,0.14,1.33c0.36,1.8,1.59,3.41,3.48,4.59c3.73,2.37,9.31,2.68,12.9,2.05c0,0,0.41-0.09,0.77-0.09
					c-0.57,8.56-3.36,14.45-8.45,17.07c-7.93,4.15-19.47-0.37-23.8-2.37c5.71-4.73,11.38-9.65,11.38-14.32v-0.23
					c-0.05-1.88-1.05-3.55-2.98-4.95c-5.67-4.16-11.95-1.17-15.3,1.46c-4.71-4.9-15.64-8.97-22.14-6.72
					c-4.12,1.46-7.19,5.43-7.19,9.31v0.14c0.1,2.9,1.91,5.1,4.98,6.03c5.85,1.82,8.66,7.79,9,8.42c-0.02,0.29-0.02,0.51-0.02,0.77
					c0,5.92,4.37,8.19,7.38,8.74c0.53,0.91,19.68,35.05,20.69,36.82c-3.01,2.19-6.69,6.41-6.69,11.84c0,1.76,0.41,3.65,1.34,5.56
					c1.48,3.24,3.87,5.32,7,6.45c7.13,2.53,15.73-1.3,16.09-1.43c43.21-13.52,78.83-13.01,82.72-12.87
					c4.32-0.14,39.88-0.65,83.29,12.92c0.21,0.09,8.8,3.92,15.9,1.39c3.19-1.13,5.55-3.21,7.05-6.45c0.92-1.91,1.29-3.81,1.29-5.56
					c0-5.43-3.7-9.65-6.67-11.84c1-1.77,20.15-35.91,20.71-36.82c3-0.55,7.41-2.82,7.41-8.74c0-0.2,0-0.48-0.04-0.77
					c0.31-0.63,3.13-6.6,9.03-8.42c3.04-0.93,4.84-3.16,4.86-6.03v-0.14c0-3.89-3.04-7.85-7.12-9.31
					c-6.51-2.25-17.47,1.86-22.16,6.72c-3.35-2.64-9.62-5.63-15.29-1.46c-1.93,1.4-2.91,3.07-3.02,4.95v0.23
					c0,4.67,5.75,9.59,11.39,14.32c-4.32,2-15.77,6.52-23.77,2.37c-4.98-2.57-7.77-8.37-8.33-17.07c0.32,0,0.72,0.09,0.72,0.09
					c3.49,0.63,9.04,0.32,12.83-2.05c1.91-1.19,3.08-2.79,3.47-4.59c0.11-0.42,0.17-0.83,0.17-1.28c0-4.9-5.26-10.27-10.32-12.09
					c0.37-0.97,0.79-2.05,0.79-2.05c0.12-0.68,0.21-1.36,0.21-2.02c0-4.95-3.72-9.34-9.04-10.38c-6.07-1.13-11.98,2.62-13.19,8.28
					c0,0-0.1,1.13-0.21,1.96c-6-0.48-14.63,2.16-15.76,7.52c-0.09,0.37-0.13,0.79-0.13,1.19c0,5.46,7.51,11.05,13.07,12.07
					c0,0,0.36,0.11,0.6,0.15c-0.02,0.05-0.05,0.25-0.05,0.25c0,1.31-3.1,20.84-23.8,19.49c-18.65-1.22-24.17-17.58-27.48-27.38
					c0,0-0.17-0.54-0.26-0.82c4.76,1.74,14.77,4.44,21.69,0.68c3.88-2.17,6.11-6,6.61-11.41c0.04-0.68,0.04-1.28,0.04-1.85
					c0-4.24-1.35-7.66-4.05-10.27c-4.66-4.41-11.68-5.1-15.21-5.21c1.35-2.88,3.66-8.71,3.66-14.51c0-2.98-0.57-5.81-2.16-8.3
					c-2.84-4.44-8.39-6.69-16.38-6.77C246.17,5.6,240.68,7.85,237.82,12.3"/>
			</g>
		</g>
		<g>
			<path class="st2" d="M353.27,135.27c0,0-93.73-34.74-197.79,0l-13.87-24.7c0,0,102.05-35.77,225.53,0L353.27,135.27z"/>
		</g>
		<g>
			<g>
				<path class="st1" d="M365.08,111.48c-1.4,2.47-11.49,20.43-12.49,22.14c-8.97-3.05-98.29-32.19-196.42,0.05
					c-0.98-1.64-11.27-19.95-12.58-22.29C156.17,107.3,251.91,79.21,365.08,111.48 M141.08,109.37c-0.37,0.15-0.64,0.43-0.82,0.74
					c-0.14,0.39-0.11,0.76,0.05,1.13l13.91,24.68c0.33,0.57,1.07,0.8,1.7,0.57c102.37-34.18,195.87-0.34,196.86,0
					c0.62,0.28,1.37,0,1.73-0.57l13.86-24.68c0.21-0.37,0.21-0.79,0.05-1.16c-0.14-0.34-0.45-0.62-0.88-0.71
					C244.99,73.83,142.11,108.98,141.08,109.37"/>
			</g>
		</g>
		<g>
			<polygon class="st3" points="253.07,454.49 154,424.19 140.92,317.13 244.6,200.26 263.81,199.52 352.1,309.19 351.34,419.6 			
				"/>
		</g>
		<g>
			<path class="st0" d="M387.17,160.52l-0.23,228.56c0,0,5.71,60.76-61.18,66.62c-50.91,4.44-71.94,28.12-73.07,32.72
				c-1.3-4.59-22.26-28.28-73.14-32.86c-66.89-5.89-61.11-66.74-61.11-66.74l0.2-228.5l39.6,0.05L158,394.59
				c0,22.08,14.89,22.65,14.89,22.65c55.55,7.54,79.14,24.39,79.86,25.32c0.76-0.92,23.81-17.73,79.73-25.21
				c0,0,14.86-0.52,14.86-22.6l0.23-234.22H387.17z"/>
		</g>
		<g>
			<g>
				<path class="st1" d="M179.65,454.22c-55.5-4.84-59.91-47.72-59.91-61.24c0-2.24,0.12-3.64,0.12-4.01
					c0-0.15,0.18-209.61,0.18-227.29h36.8c0,2.62-0.16,232.92-0.16,232.92c0,23.07,16.03,23.93,16.17,23.98
					c56.34,7.65,78.7,24.67,78.85,24.87l1.02,0.99l1.13-0.99c0.16-0.2,22.21-17.22,78.78-24.81c0,0,16.11-0.82,16.14-23.9
					c0,0,0.17-230.29,0.17-232.91c2.5,0,34.23,0.05,36.79,0.05c0,2.62-0.19,227.2-0.19,227.2c0.03,0.31,0.15,1.71,0.15,3.9
					c0,13.52-4.39,56.49-60.1,61.39c-44.96,3.9-67.49,22.86-72.97,31.16C247.1,477.24,224.46,458.28,179.65,454.22 M117.25,160.32
					l-0.2,228.5c-0.02,0.57-5.11,62.06,62.34,68.03c51.34,4.59,71.11,28.85,71.89,31.92h2.75c0.78-3.07,20.34-27.28,71.88-31.81
					c58.49-5.1,62.55-52.04,62.55-64.86c0-1.88-0.11-3.07-0.11-3.16l0.2-229.71h-42.37l-0.2,235.53c0,20.41-13.06,21.26-13.6,21.31
					c-49.84,6.63-74.54,20.91-79.62,24.79c-5.05-3.85-29.96-18.16-79.62-24.95c-0.69-0.05-13.71-0.88-13.71-21.2l0.24-235.62h-42.42
					V160.32z"/>
			</g>
		</g>
		<g>
			<polygon class="st4" points="364.85,347.73 369.66,347.73 369.6,387.8 364.85,387.8 			"/>
		</g>
		<g>
			<g>
				<path class="st1" d="M368.95,348.38c0,1.28-0.03,37.5-0.03,38.78h-3.4c0.04-1.28,0.08-37.5,0.08-38.78H368.95z M369.66,347.08
					h-5.51v41.37h6.17l0.03-41.37H369.66z"/>
			</g>
		</g>
		<g>
			<path class="st4" d="M382.38,347.73c-8.56,9.78-7.65,18.61-7.59,19.46c-0.06,0.94-1,9.78,7.59,19.55c0,0-12.72-6.69-12.72-19.47
				C369.67,354.36,382.38,347.73,382.38,347.73"/>
		</g>
		<g>
			<g>
				<path class="st1" d="M370.32,367.22c0.03-8.31,5.64-13.94,9.28-16.77c-4.66,6.75-5.55,12.69-5.55,15.34
					c0,0.86,0.06,1.42,0.09,1.48c-0.06,0.2-0.09,0.77-0.09,1.6c0,2.67,0.89,8.56,5.49,15.14
					C375.89,381.16,370.35,375.56,370.32,367.22 M368.95,367.22c0,13.07,12.94,20.01,13.01,20.07l0.92-1
					c-8.53-9.7-7.42-18.65-7.37-19.02c-0.05-0.56-1.16-9.3,7.39-19.12l-0.89-0.99C381.9,347.24,368.98,354.16,368.95,367.22"/>
			</g>
		</g>
		<g>
			<path class="st4" d="M352.14,347.73c8.51,9.78,7.62,18.61,7.52,19.46c0.09,0.9,0.99,9.73-7.56,19.55c0,0,12.67-6.69,12.74-19.47
				C364.79,354.36,352.14,347.73,352.14,347.73"/>
		</g>
		<g>
			<g>
				<path class="st1" d="M360.44,368.61c0-0.77-0.04-1.34-0.08-1.46c0-0.09,0.08-0.55,0.08-1.46c0-2.59-0.88-8.59-5.52-15.23
					c3.64,2.84,9.24,8.46,9.24,16.82c-0.03,8.3-5.64,13.97-9.25,16.74C359.56,377.33,360.44,371.38,360.44,368.61 M351.62,348.15
					c8.51,9.82,7.4,18.56,7.35,18.92c0.09,1.14,0.9,9.73-7.38,19.24l0.86,1c0.15-0.08,13.04-7.01,13.1-20.04
					c-0.04-13.12-12.95-20.04-13.1-20.14L351.62,348.15z"/>
			</g>
		</g>
		<g>
			<path class="st4" d="M361.43,366.34h11.61c1.71,0,3.04,0.66,3.04,1.45c0,0.76-1.34,1.39-3.04,1.39l-11.61-0.03
				c-1.67,0-3.05-0.6-3.05-1.39C358.37,367,359.76,366.34,361.43,366.34"/>
		</g>
		<g>
			<g>
				<path class="st1" d="M361.43,368.55c-1.51,0-2.35-0.56-2.35-0.79c0-0.25,0.83-0.75,2.35-0.75h11.61c1.13,0,1.91,0.31,2.22,0.62
					l0.12,0.14c0,0.23-0.8,0.79-2.35,0.79H361.43z M361.43,365.68c-2.1,0-3.73,0.89-3.73,2.08c0,1.2,1.63,2.08,3.73,2.08h11.61
					c2.13,0,3.73-0.88,3.73-2.05l-0.46-1.14c-0.67-0.59-1.9-0.97-3.27-0.97H361.43z"/>
			</g>
		</g>
		<g>
			<polygon class="st4" points="364.97,225.37 369.75,225.37 369.75,265.4 364.94,265.4 			"/>
		</g>
		<g>
			<g>
				<path class="st1" d="M369.06,226.01c0,1.23-0.02,37.48-0.02,38.73h-3.42c0-1.25,0.05-37.5,0.05-38.73H369.06z M369.75,224.66
					h-5.51l-0.01,41.4h6.18l0.05-41.4H369.75z"/>
			</g>
		</g>
		<g>
			<path class="st4" d="M382.44,225.37c-8.48,9.73-7.63,18.56-7.49,19.38c-0.14,0.93-0.99,9.78,7.46,19.57
				c0,0-12.66-6.64-12.67-19.46C369.75,232.02,382.44,225.37,382.44,225.37"/>
		</g>
		<g>
			<g>
				<path class="st1" d="M370.41,244.86c0.05-8.36,5.63-14.01,9.3-16.82c-4.7,6.72-5.55,12.7-5.55,15.39c0,0.83,0.08,1.33,0.08,1.43
					c0,0.2-0.09,0.77-0.09,1.56c0,2.65,0.94,8.56,5.49,15.25C375.98,258.8,370.43,253.19,370.41,244.86 M369.04,244.86
					c0.05,13.05,12.9,19.97,13.06,20.07l0.88-1.03c-8.33-9.54-7.46-18.1-7.34-19.04c-0.11-0.51-1.17-9.28,7.34-19.12l-0.88-0.99
					C381.96,224.86,369.09,231.77,369.04,244.86"/>
			</g>
		</g>
		<g>
			<path class="st4" d="M352.27,225.37c8.5,9.73,7.65,18.56,7.49,19.38c0.15,0.93,1,9.74-7.55,19.57c0,0,12.7-6.64,12.74-19.46
				C364.94,232.02,352.27,225.37,352.27,225.37"/>
		</g>
		<g>
			<g>
				<path class="st1" d="M360.56,246.31c0-0.83-0.09-1.4-0.09-1.62c0,0,0.09-0.57,0.09-1.51c0-2.65-0.9-8.51-5.54-15.14
					c3.68,2.85,9.2,8.47,9.2,16.82c-0.03,8.26-5.57,13.89-9.22,16.68C359.6,254.98,360.56,249.13,360.56,246.31 M351.73,225.74
					c8.62,9.93,7.34,18.83,7.31,18.95c0.09,0.54,1.16,9.42-7.34,19.21l0.88,0.97c0.11-0.05,13.01-6.97,13.04-20.01
					c0-13.09-12.89-20.06-13.01-20.1L351.73,225.74z"/>
			</g>
		</g>
		<g>
			<path class="st4" d="M361.52,243.94l11.67,0.05c1.6,0,2.98,0.6,2.98,1.4c0,0.79-1.37,1.39-2.98,1.39l-11.67-0.05
				c-1.67,0-3.01-0.62-3.01-1.34C358.51,244.58,359.85,243.94,361.52,243.94"/>
		</g>
		<g>
			<g>
				<path class="st1" d="M361.52,246.11c-1.51,0-2.33-0.56-2.33-0.72c0-0.2,0.85-0.8,2.33-0.8h11.67c1.47,0,2.28,0.6,2.28,0.8
					c0,0.17-0.82,0.72-2.28,0.72H361.52z M361.52,243.27c-2.11,0-3.73,0.88-3.73,2.11c0,1.16,1.62,2.05,3.73,2.05l11.67,0.06
					c2.11,0,3.69-0.96,3.69-2.11c0-1.23-1.58-2.07-3.69-2.07L361.52,243.27z"/>
			</g>
		</g>
		<g>
			<polygon class="st4" points="135.87,347.59 140.64,347.59 140.61,387.66 135.78,387.6 			"/>
		</g>
		<g>
			<g>
				<path class="st1" d="M139.95,348.26c0,1.22-0.05,37.51-0.05,38.76h-3.4c0-1.25,0.06-37.54,0.06-38.76H139.95z M140.63,346.94
					h-5.44l-0.11,41.37h6.25l0.02-41.37H140.63z"/>
			</g>
		</g>
		<g>
			<path class="st4" d="M153.36,347.59c-8.54,9.76-7.7,18.63-7.56,19.46c-0.14,0.92-0.98,9.74,7.5,19.55c0,0-12.64-6.71-12.69-19.53
				C140.66,354.22,153.36,347.59,153.36,347.59"/>
		</g>
		<g>
			<g>
				<path class="st1" d="M141.34,367.07c0.02-8.28,5.6-13.94,9.25-16.76c-4.68,6.58-5.59,12.47-5.59,15.19
					c0,0.99,0.09,1.56,0.12,1.65c0,0-0.12,0.62-0.12,1.53c0,2.67,0.91,8.56,5.54,15.16C146.88,381.02,141.36,375.36,141.34,367.07
					 M139.93,367.07c0.07,13.07,12.94,20,13.06,20.09l0.85-0.97c-8.6-9.94-7.37-18.67-7.32-19.04c0-0.29-1.28-9.27,7.38-19.13
					l-0.88-0.97C152.88,347.08,140,353.96,139.93,367.07"/>
			</g>
		</g>
		<g>
			<path class="st4" d="M123.14,347.59c8.48,9.76,7.63,18.63,7.46,19.41c0.15,0.92,1.03,9.79-7.5,19.6c0,0,12.67-6.71,12.75-19.53
				C135.78,354.22,123.14,347.59,123.14,347.59"/>
		</g>
		<g>
			<g>
				<path class="st1" d="M131.43,368.41c0-0.65-0.03-1.19-0.05-1.45c0.02-0.15,0.05-0.66,0.05-1.4c0-2.68-0.87-8.57-5.52-15.31
					c3.65,2.88,9.2,8.54,9.27,16.82c-0.09,8.34-5.67,13.95-9.33,16.8C130.54,377.21,131.43,371.2,131.43,368.41 M122.62,347.96
					c8.22,9.54,7.44,18.06,7.35,18.99c0.12,1.71,0.57,10.05-7.41,19.23l0.85,0.97c0.16-0.09,13.06-7.02,13.12-20.09
					c-0.04-13.12-12.89-19.98-13.06-20.03L122.62,347.96z"/>
			</g>
		</g>
		<g>
			<path class="st4" d="M132.45,366.22h11.6c1.68,0,3.02,0.63,2.99,1.39c0,0.8-1.31,1.42-2.99,1.42h-11.62
				c-1.68,0-2.98-0.62-2.98-1.47C129.44,366.8,130.75,366.22,132.45,366.22"/>
		</g>
		<g>
			<g>
				<path class="st1" d="M130.21,367.79l-0.12-0.17c0-0.26,0.83-0.77,2.36-0.77h11.6c1.11,0,1.91,0.35,2.22,0.57l0.1,0.14
					c0,0.28-0.85,0.79-2.32,0.79h-11.62C131.36,368.35,130.53,368.08,130.21,367.79l17.56-0.17L130.21,367.79z M132.45,365.55
					c-2.2,0-3.73,0.83-3.73,2l0.49,1.11c0.65,0.66,1.85,0.97,3.21,0.97h11.62c2.15,0,3.72-0.82,3.72-2.02l-0.52-1.08
					c-0.63-0.63-1.85-0.99-3.2-0.99H132.45z"/>
			</g>
		</g>
		<g>
			<polygon class="st0" points="158.21,197.77 158.24,160.39 347.56,160.52 347.52,197.88 			"/>
		</g>
		<g>
			<g>
				<path class="st1" d="M159.65,161.73c2.74,0,183.74,0.11,186.54,0.11c0,2.36-0.03,32.33-0.03,34.75
					c-2.77,0-183.83-0.15-186.56-0.15C159.6,194.04,159.62,164.07,159.65,161.73 M156.84,160.39l-0.05,38.65l192.16,0.14v-39.96
					l-192.11-0.14V160.39z"/>
			</g>
		</g>
		<g>
			<rect x="135.93" y="225.17" class="st4" width="4.81" height="40.07"/>
		</g>
		<g>
			<g>
				<path class="st1" d="M140.05,225.84c0,1.28-0.02,37.5-0.02,38.78h-3.42c0-1.28,0.02-37.5,0.02-38.78H140.05z M140.75,224.54
					h-5.52l-0.02,41.37l6.22,0.06l0.04-41.43H140.75z"/>
			</g>
		</g>
		<g>
			<path class="st4" d="M153.45,225.17c-8.52,9.78-7.66,18.61-7.54,19.47c-0.12,0.89-0.98,9.71,7.5,19.52
				c0,0-12.64-6.68-12.69-19.47C140.78,231.86,153.45,225.17,153.45,225.17"/>
		</g>
		<g>
			<g>
				<path class="st1" d="M141.43,244.69c0.04-8.34,5.58-13.95,9.24-16.79c-4.67,6.66-5.55,12.52-5.55,15.25
					c0,0.93,0.09,1.5,0.09,1.62c0,0-0.09,0.57-0.09,1.43c0,2.62,0.89,8.57,5.55,15.28C147.01,258.65,141.47,253,141.43,244.69
					 M140.03,244.69c0.05,13.08,12.92,20,13.06,20.04l0.89-0.99c-8.58-9.85-7.39-18.64-7.37-19.06c0-0.2-1.21-9.22,7.39-19.1
					l-0.88-0.97C153,224.66,140.08,231.6,140.03,244.69"/>
			</g>
		</g>
		<g>
			<path class="st4" d="M123.24,225.14c8.51,9.82,7.6,18.66,7.51,19.43c0.1,0.96,1,9.79-7.51,19.55c0,0,12.64-6.63,12.68-19.43
				C135.88,231.86,123.24,225.14,123.24,225.14"/>
		</g>
		<g>
			<g>
				<path class="st1" d="M131.54,246.11c0-0.83-0.08-1.34-0.11-1.53c0.03-0.19,0.11-0.74,0.11-1.53c0-2.68-0.94-8.53-5.52-15.16
					c3.64,2.79,9.2,8.45,9.2,16.79c0,8.31-5.58,13.91-9.22,16.78C130.6,254.78,131.54,248.84,131.54,246.11 M122.71,225.56
					c8.31,9.57,7.47,18.04,7.32,19.03c0.14,1.09,0.97,9.57-7.35,19.16l0.88,0.99c0.1-0.11,13.03-6.97,13.05-20.04
					c0-13.09-12.91-20.03-13.04-20.1L122.71,225.56z"/>
			</g>
		</g>
		<g>
			<path class="st4" d="M132.52,243.8l11.65,0.05c1.63,0,3.01,0.6,3.01,1.39c0,0.76-1.37,1.42-3.01,1.42l-11.65-0.05
				c-1.68,0-3.01-0.62-3.01-1.37C129.51,244.4,130.84,243.8,132.52,243.8"/>
		</g>
		<g>
			<g>
				<path class="st1" d="M132.52,246c-1.48,0-2.3-0.57-2.3-0.77c0-0.22,0.82-0.79,2.3-0.79l11.65,0.05c1.49,0,2.3,0.52,2.3,0.74
					c0,0.2-0.81,0.77-2.3,0.77H132.52z M132.52,243.15c-2.09,0-3.69,0.88-3.69,2.08c0,1.19,1.57,2.07,3.69,2.07h11.65
					c2.13,0,3.69-0.88,3.69-2.07c0-1.2-1.56-2.08-3.69-2.08H132.52z"/>
			</g>
		</g>
		<g>
			<polygon class="st2" points="158.33,373.16 251.23,197.93 347.35,373.6 347.35,198.05 157.79,198.05 			"/>
		</g>
		<g>
			<g>
				<path class="st1" d="M346.52,198.92v171.25c-3.18-5.74-92.35-168.63-93.79-171.25H346.52z M249.69,198.92
					c-1.37,2.62-87.36,164.8-90.5,170.74c-0.03-6.63-0.53-169.15-0.53-170.74H249.69z M251.19,197.05c-0.11,0-0.17,0.11-0.27,0.21
					h-93.12c-0.17,0-0.41,0.09-0.59,0.2c-0.16,0.17-0.28,0.42-0.28,0.59l0.51,175.1c0,0.34,0.31,0.68,0.66,0.77
					c0.42,0.09,0.85-0.09,1.03-0.43c0,0,90.57-170.96,92.1-173.79c1.53,2.84,95.34,174.27,95.34,174.27c0.2,0.32,0.65,0.46,1,0.42
					c0.4-0.09,0.68-0.42,0.68-0.78V198.05c0-0.42-0.39-0.79-0.9-0.79h-95.84C251.4,197.16,251.34,197.05,251.19,197.05"/>
			</g>
		</g>
		<g>
			<rect x="347.41" y="160.28" class="st2" width="39.6" height="18.78"/>
		</g>
		<g>
			<g>
				<path class="st1" d="M348.69,161.51h37.07v16.4c-2.34,0-34.72-0.06-37.07-0.06V161.51z M346.55,159.45
					c-0.23,0.25-0.37,0.51-0.37,0.83v18.78c0,0.68,0.55,1.19,1.23,1.19l39.6,0.05c0.34,0,0.65-0.15,0.91-0.31
					c0.2-0.25,0.38-0.57,0.38-0.92v-18.78c0-0.59-0.57-1.16-1.29-1.16h-39.6C347.06,159.12,346.78,159.21,346.55,159.45"/>
			</g>
		</g>
		<g>
			<polygon class="st5" points="347.41,179.41 387,179.46 387,198.21 347.41,198.21 			"/>
		</g>
		<g>
			<g>
				<path class="st1" d="M348.69,180.61h37.08v16.44c-2.36,0-34.74-0.05-37.08-0.05V180.61z M346.18,179.41v19.95h42.11v-21.14
					h-42.11V179.41z"/>
			</g>
		</g>
		<g>
			<polygon class="st3" points="347.41,179.41 359.34,179.46 359.34,198.21 347.41,198.21 			"/>
		</g>
		<g>
			<g>
				<path class="st1" d="M348.69,180.61h9.39v16.44c-1.8,0-7.6-0.05-9.39-0.05V180.61z M346.18,179.41v19.95h14.43v-21.14
					l-14.43-0.05V179.41z"/>
			</g>
		</g>
		<g>
			<rect x="347.41" y="287" class="st2" width="39.6" height="18.79"/>
		</g>
		<g>
			<g>
				<path class="st1" d="M348.69,288.16h37.07v16.48c-2.34,0-34.72-0.08-37.07-0.08V288.16z M346.55,286.12
					c-0.23,0.21-0.37,0.57-0.37,0.88v18.79c0,0.66,0.55,1.17,1.23,1.17l39.6,0.05c0.34,0,0.65-0.14,0.91-0.37
					c0.2-0.18,0.38-0.54,0.38-0.85V287c0-0.66-0.57-1.19-1.29-1.19l-39.6-0.05C347.06,285.77,346.78,285.92,346.55,286.12"/>
			</g>
		</g>
		<g>
			<rect x="347.41" y="306.1" class="st5" width="39.6" height="18.81"/>
		</g>
		<g>
			<g>
				<path class="st1" d="M348.69,307.34h37.08v16.4h-37.08V307.34z M346.18,306.1v20h42.11v-21.15h-42.11V306.1z"/>
			</g>
		</g>
		<g>
			<rect x="347.41" y="306.1" class="st3" width="11.93" height="18.81"/>
		</g>
		<g>
			<g>
				<path class="st1" d="M348.69,307.34h9.39v16.4h-9.39V307.34z M346.18,306.1v20h14.43v-21.15h-14.43V306.1z"/>
			</g>
		</g>
		<g>
			<rect x="118.45" y="160.28" class="st2" width="39.55" height="18.78"/>
		</g>
		<g>
			<g>
				<path class="st1" d="M156.79,161.51v16.34c-2.3,0-34.76,0.06-37.05,0.06v-16.4H156.79z M158,159.12h-39.56
					c-0.67,0-1.26,0.57-1.26,1.16v18.79c0,0.34,0.18,0.66,0.38,0.91c0.27,0.17,0.53,0.32,0.88,0.32l39.56-0.06
					c0.74,0,1.31-0.51,1.31-1.17v-18.79c0-0.31-0.15-0.59-0.34-0.83C158.7,159.21,158.41,159.12,158,159.12"/>
			</g>
		</g>
		<g>
			<polygon class="st5" points="158,179.41 118.44,179.46 118.44,198.21 158,198.21 			"/>
		</g>
		<g>
			<g>
				<path class="st1" d="M156.79,180.61v16.37c-2.3,0-34.76,0.06-37.05,0.06v-16.44H156.79z M158,178.22h-40.82v21.15h42.13v-21.15
					H158z"/>
			</g>
		</g>
		<g>
			<rect x="118.45" y="287" class="st2" width="39.55" height="18.79"/>
		</g>
		<g>
			<g>
				<path class="st1" d="M156.79,288.16v16.4c-2.3,0-34.76,0.08-37.05,0.08v-16.48H156.79z M158,285.77l-39.56,0.05
					c-0.67,0-1.26,0.52-1.26,1.19v18.79c0,0.31,0.18,0.66,0.38,0.85c0.27,0.23,0.53,0.37,0.88,0.37l39.56-0.05
					c0.74,0,1.31-0.51,1.31-1.17V287c0-0.31-0.15-0.66-0.34-0.88C158.7,285.92,158.41,285.77,158,285.77"/>
			</g>
		</g>
		<g>
			<rect x="118.45" y="306.1" class="st5" width="39.55" height="18.81"/>
		</g>
		<g>
			<g>
				<path class="st1" d="M156.79,323.74h-37.05v-16.4h37.05V323.74z M158,304.95h-40.82v21.15h42.13v-21.15H158z"/>
			</g>
		</g>
		<g>
			<rect x="146.14" y="306.1" class="st3" width="11.86" height="18.81"/>
		</g>
		<g>
			<g>
				<path class="st1" d="M156.79,323.74h-9.42v-16.4h9.42V323.74z M158,304.95h-13.18v21.15h14.48v-21.15H158z"/>
			</g>
		</g>
		<g>
			<polygon class="st4" points="248.8,165.8 253.49,165.8 253.45,193.15 248.78,193.15 			"/>
		</g>
		<g>
			<g>
				<path class="st1" d="M252.76,166.46c0,1.2-0.03,24.82-0.03,26.04h-3.25c0-1.22,0.03-24.84,0.03-26.04H252.76z M253.48,165.09
					h-5.38l-0.02,28.72h6.08v-28.72H253.48z"/>
			</g>
		</g>
		<g>
			<path class="st4" d="M265.89,165.8c-8.31,6.68-7.47,12.67-7.39,13.26c-0.08,0.62-0.96,6.66,7.39,13.4c0,0-12.41-4.58-12.41-13.4
				C253.49,170.35,265.89,165.8,265.89,165.8"/>
		</g>
		<g>
			<g>
				<path class="st1" d="M254.16,179.06c0-5.17,4.83-8.88,8.33-10.89c-3.99,4.3-4.74,8.11-4.74,9.9c0,0.57,0.05,0.99,0.09,1.14
					c-0.03,0.09-0.09,0.42-0.09,1c0,1.71,0.75,5.5,4.74,9.84C258.99,188.02,254.16,184.38,254.16,179.06 M252.76,179.06
					c0.01,9.13,12.32,13.81,12.83,14.01l0.73-1.13c-7.99-6.46-7.19-12.12-7.11-12.74c-0.05-0.52-1.02-6.4,7.12-12.89l-0.69-1.16
					C265.11,165.34,252.77,169.98,252.76,179.06"/>
			</g>
		</g>
		<g>
			<path class="st4" d="M236.38,165.75c8.33,6.69,7.46,12.74,7.35,13.32c0.11,0.62,0.98,6.65-7.38,13.38c0,0,12.39-4.58,12.43-13.38
				C248.76,170.33,236.38,165.75,236.38,165.75"/>
		</g>
		<g>
			<g>
				<path class="st1" d="M244.51,180.03c0-0.49-0.06-0.86-0.08-1.03c0.02-0.2,0.08-0.52,0.08-0.99c0-1.77-0.79-5.54-4.7-9.82
					c3.48,2.01,8.28,5.7,8.28,10.87c-0.01,5.3-4.8,8.96-8.33,10.96C243.72,185.72,244.51,181.94,244.51,180.03 M235.94,166.26
					c7.66,6.18,7.28,11.7,7.12,12.74c0.16,1.22,0.55,6.77-7.12,12.89l0.7,1.19c0.51-0.2,12.81-4.89,12.85-14.01
					c-0.02-9.08-12.31-13.72-12.83-13.89L235.94,166.26z"/>
			</g>
		</g>
		<g>
			<path class="st4" d="M244.99,177.92h11.73c1.6,0,2.97,0.51,2.97,1.13v0.45c0,0.62-1.37,1.12-2.97,1.12h-11.73
				c-1.57,0-2.91-0.51-2.91-1.12V179C242.07,178.38,243.41,177.92,244.99,177.92"/>
		</g>
		<g>
			<g>
				<path class="st1" d="M244.99,179.98c-1.28,0-2.09-0.45-2.22-0.57V179c0.13-0.09,0.94-0.45,2.22-0.45h11.73
					c1.37,0,2.15,0.4,2.28,0.51l-0.04,0.43c-0.09,0.12-0.87,0.49-2.24,0.49H244.99z M244.99,177.25c-1.7,0-3.61,0.57-3.61,1.74
					c0,1.71,1.92,2.24,3.61,2.24l11.73,0.05c1.74,0,3.61-0.57,3.61-1.79c0-1.67-1.87-2.24-3.61-2.24H244.99z"/>
			</g>
		</g>
		<g>
			<path class="st0" d="M183.18,215.21c3.2,0.09,5.8,2.58,5.8,5.63c0,3.13-2.69,5.66-6,5.66c-1.27,0-2.39-0.37-3.4-0.99v8.05h2.94
				v4.19h-2.94v2.16h2.94l-0.05,4.16h-2.89v2.45h-5.39v-20.52c-0.91,0.62-1.22,0.49-2.43,0.49c-3.34,0-6.04-2.53-6.04-5.66
				c0-3.1,2.7-5.63,6.04-5.63c-0.15-0.59-0.27-1.25-0.27-1.96c0-3.08,2.67-5.61,6.03-5.61c3.31,0,6,2.53,6,5.66
				C183.53,213.96,183.37,214.63,183.18,215.21"/>
		</g>
		<g>
			<g>
				<path class="st1" d="M171.76,225.65c-2.86,0-5.13-2.19-5.13-4.81c0-2.64,2.3-4.7,5.13-4.7h1.01l-0.34-2.88
					c0-2.62,2.27-4.76,5.1-4.76c1.35,0,2.64,0.49,3.62,1.4c0.93,0.94,1.43,2.11,1.43,3.41l-0.45,2.64l0.98,0.2
					c2.74,0.03,4.93,2.16,4.93,4.7c0,1.29-0.49,2.51-1.48,3.39c-0.96,0.91-2.22,1.42-3.59,1.42c-1.02,0-2-0.28-2.83-0.85l-1.45-0.88
					v10.52h2.87v2.48h-2.87v3.82h2.87v2.48h-2.87v2.47h-3.58v-20.74l-1.41,0.42l-1.37,0.28H171.76z M170.61,213.26
					c0,0,0.03,0.71,0.16,1.28c-3.35,0.51-5.97,3.07-5.97,6.31c0,3.61,3.12,6.49,6.96,6.49l0.54,0.05c0,0,0.55-0.15,1-0.26
					c0,1.96-0.01,20.34-0.01,20.34h7.22v-2.5h2.85l0.05-5.94h-2.9v-0.42h2.88v-5.95h-2.88c0-1.09,0-4.56,0.02-5.95
					c0.78,0.26,1.55,0.63,2.44,0.63c1.82,0.05,3.59-0.63,4.88-1.86c1.31-1.23,2.01-2.85,2.01-4.63c0-3.13-2.49-5.72-5.7-6.26
					c0.13-0.62,0.26-1.28,0.26-1.33c0-1.71-0.68-3.36-2.01-4.53c-1.29-1.25-3.05-1.91-4.88-1.91
					C173.72,206.81,170.61,209.72,170.61,213.26"/>
			</g>
		</g>
		<g>
			<path class="st4" d="M175.54,213.35c0-0.97,0.85-1.7,1.82-1.7c1.05,0,1.87,0.72,1.87,1.7c0,0.99-0.82,1.73-1.87,1.73
				C176.36,215.07,175.54,214.33,175.54,213.35"/>
		</g>
		<g>
			<g>
				<path class="st1" d="M176.44,213.35c0-0.46,0.39-0.83,0.93-0.83c0.51,0,0.9,0.37,0.9,0.83c0,0.46-0.36,0.89-0.9,0.89
					C176.84,214.24,176.44,213.81,176.44,213.35 M174.6,213.35c0,1.45,1.23,2.64,2.76,2.64c1.55,0,2.79-1.19,2.79-2.64
					c0-1.39-1.24-2.58-2.79-2.58C175.83,210.77,174.6,211.96,174.6,213.35"/>
			</g>
		</g>
		<g>
			<path class="st0" d="M213.46,215.26c3.24,0.05,5.84,2.53,5.84,5.58c0,3.18-2.71,5.66-6,5.66c-1.27,0-2.43-0.34-3.34-0.94v8h2.87
				v4.24h-2.87v2.11h2.87v4.21h-2.89v2.4h-5.38v-20.52c-0.91,0.69-1.25,0.49-2.53,0.49c-3.28,0-5.98-2.48-5.98-5.66
				c0-3.1,2.7-5.63,5.98-5.63c-0.05-0.59-0.2-1.25-0.2-1.91c0-3.13,2.73-5.66,6.06-5.66c3.28,0,5.96,2.53,5.96,5.66
				C213.84,213.96,213.75,214.63,213.46,215.26"/>
		</g>
		<g>
			<g>
				<path class="st1" d="M202.02,225.64c-2.79,0-5.07-2.13-5.07-4.79c0-2.64,2.29-4.72,5.07-4.72h1.05l-0.19-1.42l-0.17-1.4
					c0.05-2.59,2.32-4.76,5.16-4.76c1.36,0,2.61,0.45,3.56,1.36c0.96,0.94,1.49,2.17,1.49,3.41l-0.51,2.68l1.05,0.14
					c2.75,0.08,4.93,2.13,4.93,4.72c0,1.29-0.54,2.51-1.5,3.41c-0.93,0.89-2.25,1.39-3.55,1.39c-1.06,0-2.07-0.26-2.92-0.79
					l-1.4-0.88l-0.02,10.48h2.87v2.51h-2.87v3.78h2.87v2.53h-2.91v2.42h-3.53c0-1.54,0.02-20.74,0.02-20.74l-1.44,0.42l-1.33,0.26
					H202.02z M200.9,213.3c0,0,0.12,0.79,0.14,1.28c-3.29,0.46-5.91,3.02-5.91,6.26c0,3.59,3.12,6.54,6.89,6.54h0.64
					c0,0,0.48-0.14,0.99-0.26c0,1.96-0.01,20.32-0.01,20.32h7.2v-2.47h2.9v-5.94h-2.9v-0.39h2.9v-5.95h-2.9v-6
					c0.82,0.26,1.55,0.68,2.46,0.68c1.85,0,3.56-0.68,4.85-1.91c1.35-1.22,2.04-2.84,2.04-4.63c0-3.19-2.46-5.72-5.69-6.21
					c0.11-0.66,0.26-1.33,0.26-1.33v-0.05c0-1.7-0.72-3.31-2-4.53c-1.34-1.25-3.06-1.91-4.9-1.91
					C204.04,206.81,200.94,209.72,200.9,213.3"/>
			</g>
		</g>
		<g>
			<path class="st4" d="M205.84,213.39c0-0.97,0.85-1.76,1.88-1.76c1.01,0,1.85,0.79,1.85,1.76c0,0.94-0.84,1.73-1.85,1.73
				C206.68,215.12,205.84,214.33,205.84,213.39"/>
		</g>
		<g>
			<g>
				<path class="st1" d="M206.77,213.39c0-0.51,0.39-0.88,0.95-0.88c0.5,0,0.95,0.37,0.95,0.88c0,0.48-0.48,0.85-0.95,0.85
					C207.16,214.24,206.77,213.87,206.77,213.39 M204.95,213.39c0,1.4,1.22,2.59,2.77,2.59c1.52,0,2.74-1.19,2.74-2.59
					c0-1.43-1.22-2.62-2.74-2.62C206.17,210.77,204.95,211.96,204.95,213.39"/>
			</g>
		</g>
		<g>
			<path class="st0" d="M197.79,251.99c3.25,0.15,5.85,2.62,5.85,5.63c0,3.15-2.72,5.67-6.02,5.67c-1.27,0-2.42-0.43-3.4-0.97v7.99
				h2.89v4.27h-2.89v2.03l2.89,0.05v4.16h-2.89v2.53h-5.39l0.07-20.57c-0.96,0.65-1.31,0.51-2.54,0.51c-3.29,0-5.95-2.53-5.95-5.69
				c0-3.1,2.68-5.61,5.97-5.61c-0.1-0.62-0.21-1.28-0.21-1.94c0-3.02,2.66-5.64,5.97-5.64c3.31,0,6,2.62,6,5.72
				C198.14,250.75,198.02,251.37,197.79,251.99"/>
		</g>
		<g>
			<g>
				<path class="st1" d="M187.25,251.58l-0.17-1.54c0-2.59,2.27-4.76,5.06-4.76c2.82,0,5.08,2.18,5.08,4.84l-0.46,2.6l0.99,0.14
					c2.69,0.05,4.93,2.22,4.93,4.76c0,2.67-2.28,4.76-5.08,4.76c-1.05,0-2.02-0.28-2.87-0.85l-1.39-0.85l-0.05,10.48h2.92v2.53h-2.9
					v3.75c0,0,2.02,0.05,2.9,0.05v2.53h-2.9v2.44h-3.55c0-1.54,0.02-20.77,0.02-20.77l-1.4,0.39l-1.41,0.31h-0.62
					c-2.78-0.03-5.06-2.14-5.06-4.79c0-1.28,0.5-2.45,1.48-3.39c0.96-0.88,2.23-1.34,3.59-1.34h0.99L187.25,251.58z M192.18,243.57
					c-3.85,0-6.92,2.9-6.92,6.47c0,0,0.1,1.07,0.17,1.48c-1.46,0.2-2.87,0.51-3.92,1.53c-1.33,1.16-2.06,2.85-2.06,4.55
					c0,3.58,3.11,6.52,6.92,6.52h0.62c0,0,0.48-0.12,0.95-0.22v20.34h7.21v-2.5h2.92v-5.97h-2.92v-0.37h2.92v-5.94h-2.92v-6.04
					c0.79,0.28,1.6,0.69,2.47,0.69c3.81,0,6.92-2.88,6.92-6.49c0-3.13-2.52-5.7-5.7-6.26c0.06-0.66,0.21-1.25,0.21-1.25
					C199.06,246.47,195.94,243.6,192.18,243.57"/>
			</g>
		</g>
		<g>
			<path class="st4" d="M190.16,250.12c0-0.94,0.86-1.74,1.82-1.74c1.02,0,1.86,0.8,1.86,1.74c0,0.99-0.84,1.71-1.86,1.71
				C191.02,251.83,190.16,251.11,190.16,250.12"/>
		</g>
		<g>
			<g>
				<path class="st1" d="M191.08,250.12c0-0.49,0.45-0.91,0.91-0.91c0.55,0,0.97,0.42,0.97,0.91c0,0.49-0.39,0.88-0.97,0.88
					C191.5,251,191.08,250.61,191.08,250.12 M189.26,250.12c0,1.45,1.24,2.59,2.73,2.59c1.57,0,2.75-1.14,2.75-2.59
					c0-1.42-1.18-2.58-2.75-2.58C190.5,247.54,189.26,248.7,189.26,250.12"/>
			</g>
		</g>
		<g>
			<polygon class="st0" points="214.17,415.9 233.61,415.9 233.61,423.76 214.17,423.71 			"/>
		</g>
		<g>
			<g>
				<path class="st1" d="M214.9,416.56h17.99v6.55H214.9V416.56z M213.5,415.9v8.51h20.81l0.02-9.14H213.5V415.9z"/>
			</g>
		</g>
		<g>
			<rect x="233.61" y="415.9" class="st0" width="19.38" height="7.86"/>
		</g>
		<g>
			<g>
				<path class="st1" d="M234.32,416.56h17.98v6.55h-17.98V416.56z M232.9,415.9v8.51l20.79,0.04v-9.19H232.9V415.9z"/>
			</g>
		</g>
		<g>
			<polygon class="st0" points="252.99,415.9 272.39,415.94 272.36,423.76 252.99,423.76 			"/>
		</g>
		<g>
			<g>
				<path class="st1" d="M253.68,416.56c1.26,0,16.71,0.06,17.98,0.06v6.52c-1.26,0-16.72-0.03-17.98-0.03V416.56z M252.29,415.9
					v8.56h20.78v-9.16l-20.78-0.03V415.9z"/>
			</g>
		</g>
		<g>
			<polygon class="st0" points="272.39,415.94 291.77,415.94 291.77,423.76 272.36,423.76 			"/>
		</g>
		<g>
			<g>
				<path class="st1" d="M273.07,416.6h18.02v6.52h-18.02V416.6z M271.66,415.94v8.51h20.8v-9.16h-20.8V415.94z"/>
			</g>
		</g>
		<g>
			<rect x="224.05" y="408.05" class="st0" width="19.4" height="7.85"/>
		</g>
		<g>
			<g>
				<path class="st1" d="M224.77,408.69c1.26,0,16.74,0.05,17.98,0.05v6.52h-17.98V408.69z M223.34,408.05v8.51h20.79v-9.17h-20.79
					V408.05z"/>
			</g>
		</g>
		<g>
			<rect x="243.45" y="408.05" class="st0" width="19.38" height="7.85"/>
		</g>
		<g>
			<g>
				<path class="st1" d="M244.12,408.74h17.99v6.52h-17.99V408.74z M242.74,408.05v8.51h20.79v-9.11l-20.79-0.06V408.05z"/>
			</g>
		</g>
		<g>
			<polygon class="st0" points="262.83,408.05 282.24,408.11 282.24,415.94 262.83,415.9 			"/>
		</g>
		<g>
			<g>
				<path class="st1" d="M263.53,408.74h17.98v6.55c-1.24,0-16.72-0.03-17.98-0.03V408.74z M262.1,408.05v8.51l20.84,0.06v-9.17
					H262.1V408.05z"/>
			</g>
		</g>
		<g>
			<rect x="282.24" y="408.09" class="st0" width="9.54" height="7.85"/>
		</g>
		<g>
			<g>
				<path class="st1" d="M282.93,408.74h8.14v6.55h-8.14V408.74z M281.5,408.11v8.51h10.96v-9.17H281.5V408.11z"/>
			</g>
		</g>
		<g>
			<polygon class="st0" points="214.2,408.05 224.05,408.05 224.05,415.9 214.17,415.9 			"/>
		</g>
		<g>
			<g>
				<path class="st1" d="M223.34,415.26h-8.42v-6.58h8.42V415.26z M224.05,407.38h-10.52l-0.02,9.17h11.27v-9.17H224.05z"/>
			</g>
		</g>
		<g>
			<rect x="214.2" y="400.22" class="st0" width="19.41" height="7.85"/>
		</g>
		<g>
			<g>
				<path class="st1" d="M214.92,400.85h17.98v6.54h-17.98V400.85z M213.52,400.22v8.48l20.79,0.05l0.02-9.14l-20.81-0.05V400.22z"
					/>
			</g>
		</g>
		<g>
			<polygon class="st0" points="233.61,400.22 253.04,400.25 252.99,408.06 233.61,408.06 			"/>
		</g>
		<g>
			<g>
				<path class="st1" d="M234.33,400.85c1.22,0,16.71,0.05,17.95,0.05v6.55c-1.24,0-16.73-0.06-17.95-0.06V400.85z M232.9,400.22
					v8.53h20.79l0.05-9.14H232.9V400.22z"/>
			</g>
		</g>
		<g>
			<polygon class="st0" points="253.04,400.25 272.39,400.25 272.39,408.11 252.99,408.06 			"/>
		</g>
		<g>
			<g>
				<path class="st1" d="M253.75,400.89h17.91v6.55h-17.98C253.68,406.41,253.75,401.91,253.75,400.89 M252.29,400.25v8.5h20.78
					v-9.14h-20.78V400.25z"/>
			</g>
		</g>
		<g>
			<polygon class="st0" points="272.39,400.25 291.8,400.25 291.77,408.11 272.39,408.11 			"/>
		</g>
		<g>
			<g>
				<path class="st1" d="M291.1,400.89c0,1.02-0.03,5.52-0.03,6.55h-18.01v-6.55H291.1z M291.8,399.6h-20.14v9.14h20.8l0.02-9.14
					H291.8z"/>
			</g>
		</g>
		<g>
			<polygon class="st0" points="224.05,392.38 243.45,392.38 243.45,400.25 224.05,400.22 			"/>
		</g>
		<g>
			<g>
				<path class="st1" d="M224.77,393c1.26,0,16.74,0.05,17.98,0.05v6.55h-17.98V393z M223.34,392.38v8.47l20.79,0.05l0.02-9.17
					h-20.8V392.38z"/>
			</g>
		</g>
		<g>
			<rect x="243.45" y="392.38" class="st0" width="19.41" height="7.86"/>
		</g>
		<g>
			<g>
				<path class="st1" d="M244.12,393.05h18.03v6.55h-18.03V393.05z M242.74,392.38v8.51h20.79v-9.17h-20.79V392.38z"/>
			</g>
		</g>
		<g>
			<rect x="262.86" y="392.38" class="st0" width="19.38" height="7.86"/>
		</g>
		<g>
			<g>
				<path class="st1" d="M263.53,393.05c1.26,0,16.76,0.04,18,0.04v6.51h-18V393.05z M262.15,392.38v8.51h20.81v-9.1l-20.81-0.08
					V392.38z"/>
			</g>
		</g>
		<g>
			<rect x="282.24" y="392.38" class="st0" width="9.56" height="7.86"/>
		</g>
		<g>
			<g>
				<path class="st1" d="M282.96,393.09h8.13v6.51h-8.13V393.09z M281.53,392.38v8.51h10.94v-9.1h-10.94V392.38z"/>
			</g>
		</g>
		<g>
			<polygon class="st0" points="214.23,392.34 224.05,392.38 224.05,400.22 214.2,400.22 			"/>
		</g>
		<g>
			<g>
				<path class="st1" d="M214.93,393h8.41v6.6c-1.12,0-7.31-0.05-8.41-0.05V393z M213.55,392.34l-0.03,8.51h11.25v-9.13l-11.22-0.05
					V392.34z"/>
			</g>
		</g>
		<g>
			<polygon class="st0" points="214.23,384.49 233.64,384.54 233.61,392.38 214.23,392.34 			"/>
		</g>
		<g>
			<g>
				<path class="st1" d="M214.93,385.2h18c0,0.99-0.04,5.47-0.04,6.52c-1.23-0.05-16.71-0.05-17.97-0.05V385.2z M213.55,384.49V393
					h20.78v-9.17h-20.78V384.49z"/>
			</g>
		</g>
		<g>
			<polygon class="st0" points="233.64,384.54 253.03,384.54 253.03,392.38 233.61,392.38 			"/>
		</g>
		<g>
			<g>
				<path class="st1" d="M234.33,385.2h17.95v6.52h-17.95V385.2z M232.93,384.54l-0.04,8.46l20.84,0.05v-9.17l-20.8-0.05V384.54z"/>
			</g>
		</g>
		<g>
			<rect x="253.04" y="384.54" class="st0" width="19.36" height="7.86"/>
		</g>
		<g>
			<g>
				<path class="st1" d="M253.75,385.2h17.91v6.52h-17.91V385.2z M252.29,384.54v8.51l20.78,0.04v-9.22h-20.78V384.54z"/>
			</g>
		</g>
		<g>
			<polygon class="st0" points="272.39,384.54 291.8,384.58 291.8,392.38 272.39,392.38 			"/>
		</g>
		<g>
			<g>
				<path class="st1" d="M273.07,385.2h18.03v6.6c-1.26,0-16.74-0.08-18.03-0.08V385.2z M271.66,384.54v8.56h20.81v-9.22h-20.81
					V384.54z"/>
			</g>
		</g>
		<g>
			<polygon class="st0" points="224.09,376.64 243.52,376.67 243.45,384.54 224.05,384.49 			"/>
		</g>
		<g>
			<g>
				<path class="st1" d="M224.8,377.27c1.24,0,16.72,0.06,17.97,0.06c0,1.03-0.02,5.51-0.02,6.49h-17.98
					C224.77,382.84,224.8,378.34,224.8,377.27 M223.34,376.64v8.56h20.8v-9.17l-20.8-0.05V376.64z"/>
			</g>
		</g>
		<g>
			<polygon class="st0" points="243.52,376.66 262.86,376.66 262.86,384.54 243.45,384.54 			"/>
		</g>
		<g>
			<g>
				<path class="st1" d="M244.15,377.32h18.01v6.55c-1.24,0-16.72,0-18.01-0.05V377.32z M242.77,376.66l-0.03,8.54h20.79v-9.17
					h-20.76V376.66z"/>
			</g>
		</g>
		<g>
			<polygon class="st0" points="262.86,376.66 282.24,376.66 282.24,384.58 262.86,384.54 			"/>
		</g>
		<g>
			<g>
				<path class="st1" d="M263.53,377.32h18.02v6.55h-18.02V377.32z M262.15,376.66v8.54h20.81v-9.17h-20.81V376.66z"/>
			</g>
		</g>
		<g>
			<rect x="282.24" y="376.66" class="st0" width="9.56" height="7.93"/>
		</g>
		<g>
			<g>
				<path class="st1" d="M291.1,383.87h-8.13v-6.54h8.13V383.87z M291.8,376.02h-10.24v9.17h10.92v-9.17H291.8z"/>
			</g>
		</g>
		<g>
			<polygon class="st0" points="214.23,376.64 224.09,376.64 224.05,384.49 214.23,384.49 			"/>
		</g>
		<g>
			<g>
				<path class="st1" d="M223.34,383.83h-8.42v-6.55h8.42V383.83z M224.09,375.98h-10.54l-0.03,9.22h11.25l0.02-9.22H224.09z"/>
			</g>
		</g>
		<g>
			<polygon class="st0" points="214.23,368.76 233.64,368.81 233.64,376.66 214.23,376.64 			"/>
		</g>
		<g>
			<g>
				<path class="st1" d="M214.93,369.49h18v6.54c-1.26,0-16.75-0.05-18-0.05V369.49z M213.55,368.76v8.51l20.78,0.05v-9.13h-20.78
					V368.76z"/>
			</g>
		</g>
		<g>
			<rect x="233.64" y="368.82" class="st0" width="19.38" height="7.85"/>
		</g>
		<g>
			<g>
				<path class="st1" d="M234.33,369.49h17.99v6.54h-17.99V369.49z M232.93,368.82v8.51h20.8v-9.14h-20.8V368.82z"/>
			</g>
		</g>
		<g>
			<polygon class="st0" points="253.04,368.82 272.48,368.82 272.39,376.67 253.04,376.67 			"/>
		</g>
		<g>
			<g>
				<path class="st1" d="M253.74,369.49h17.92v6.54h-17.92V369.49z M252.31,368.82v8.51h20.79v-9.14h-20.79V368.82z"/>
			</g>
		</g>
		<g>
			<polygon class="st0" points="272.47,368.82 291.8,368.87 291.8,376.67 272.39,376.67 			"/>
		</g>
		<g>
			<g>
				<path class="st1" d="M273.09,369.49c1.3,0,16.74,0.05,18.01,0.05v6.49h-18.01V369.49z M271.66,368.82v8.51h20.81v-9.14h-20.81
					V368.82z"/>
			</g>
		</g>
		<g>
			<polygon class="st0" points="224.12,360.96 243.52,360.96 243.52,368.82 224.09,368.78 			"/>
		</g>
		<g>
			<g>
				<path class="st1" d="M224.82,361.61h17.95v6.57h-17.99C224.79,367.16,224.82,362.66,224.82,361.61 M223.4,360.96l-0.06,8.53
					h20.8l0.06-9.17h-20.8V360.96z"/>
			</g>
		</g>
		<g>
			<rect x="243.52" y="360.96" class="st0" width="19.33" height="7.86"/>
		</g>
		<g>
			<g>
				<path class="st1" d="M262.16,361.61v6.57h-18.02c0-1.02,0-5.52,0.06-6.57H262.16z M262.86,360.31h-20.07v9.17h20.75v-9.17
					H262.86z"/>
			</g>
		</g>
		<g>
			<polygon class="st0" points="262.86,360.96 282.27,360.96 282.27,368.87 262.86,368.82 			"/>
		</g>
		<g>
			<g>
				<path class="st1" d="M263.53,361.61h18.02v6.58h-18.02V361.61z M262.15,360.96v8.53l20.81,0.05v-9.17l-20.81-0.04V360.96z"/>
			</g>
		</g>
		<g>
			<polygon class="st0" points="282.26,360.96 291.82,361.01 291.79,368.87 282.26,368.87 			"/>
		</g>
		<g>
			<g>
				<path class="st1" d="M282.97,361.61h8.13v6.58h-8.13V361.61z M281.56,360.96v8.57h10.91l0.03-9.17l-10.94-0.04V360.96z"/>
			</g>
		</g>
		<g>
			<polygon class="st0" points="214.28,360.96 224.11,360.96 224.09,368.78 214.23,368.78 			"/>
		</g>
		<g>
			<g>
				<path class="st1" d="M214.94,361.61h8.4v6.57h-8.41C214.93,367.16,214.94,362.58,214.94,361.61 M213.55,360.96v8.53h11.24
					l0.03-9.17h-11.27V360.96z"/>
			</g>
		</g>
		<g>
			<polygon class="st0" points="214.28,368.73 233.65,368.73 233.64,360.96 214.28,360.96 			"/>
		</g>
		<g>
			<g>
				<path class="st1" d="M214.94,361.61h17.99v6.52c-1.2,0-16.72-0.05-17.99-0.05V361.61z M213.55,360.96v8.42h20.78v-9.07h-20.78
					V360.96z"/>
			</g>
		</g>
		<g>
			<polygon class="st0" points="233.65,368.73 253.07,368.73 253.07,360.96 233.64,360.96 			"/>
		</g>
		<g>
			<g>
				<path class="st1" d="M234.33,361.61h18.02v6.52h-18.02V361.61z M232.93,360.96v8.42h20.8v-9.07h-20.8V360.96z"/>
			</g>
		</g>
		<g>
			<polygon class="st0" points="253.07,368.73 272.48,368.78 272.48,360.96 253.07,360.96 			"/>
		</g>
		<g>
			<g>
				<path class="st1" d="M253.74,361.61h17.99v6.52h-17.99V361.61z M252.36,360.96v8.42l20.79,0.06v-9.08l-20.79-0.04V360.96z"/>
			</g>
		</g>
		<g>
			<polygon class="st0" points="272.47,368.76 291.82,368.76 291.82,361.02 272.47,360.96 			"/>
		</g>
		<g>
			<g>
				<path class="st1" d="M273.14,361.61h17.96v6.52h-17.96V361.61z M271.72,360.96v8.48h20.78v-9.08h-20.78V360.96z"/>
			</g>
		</g>
		<g>
			<polygon class="st0" points="224.12,360.87 243.52,360.91 243.52,368.73 224.12,368.73 			"/>
		</g>
		<g>
			<g>
				<path class="st1" d="M224.82,361.58h17.95v6.55c-1.26,0-16.74-0.05-17.95-0.05V361.58z M223.4,360.87l-0.06,8.51h20.86
					l0.03-9.13H223.4V360.87z"/>
			</g>
		</g>
		<g>
			<polygon class="st0" points="243.52,360.91 262.89,360.91 262.89,368.76 243.52,368.73 			"/>
		</g>
		<g>
			<g>
				<path class="st1" d="M244.23,361.58h18v6.55H244.2C244.2,367.07,244.23,362.56,244.23,361.58 M242.77,360.91v8.46l20.8,0.05
					v-9.17h-20.8V360.91z"/>
			</g>
		</g>
		<g>
			<polygon class="st0" points="262.88,360.91 282.26,360.96 282.26,368.76 262.88,368.76 			"/>
		</g>
		<g>
			<g>
				<path class="st1" d="M263.58,361.58h18c0,1,0,5.57-0.02,6.55h-17.98V361.58z M262.24,360.91v8.51h20.72v-9.17h-20.72V360.91z"/>
			</g>
		</g>
		<g>
			<polygon class="st0" points="282.26,360.96 291.87,360.96 291.82,368.78 282.26,368.78 			"/>
		</g>
		<g>
			<g>
				<path class="st1" d="M282.97,361.61h8.13v6.52h-8.13V361.61z M281.59,360.96l-0.03,8.48h10.94v-9.13l-10.91-0.05V360.96z"/>
			</g>
		</g>
		<g>
			<rect x="214.28" y="360.87" class="st0" width="9.83" height="7.86"/>
		</g>
		<g>
			<g>
				<path class="st1" d="M214.94,361.53c1.14,0,7.34,0.05,8.46,0.05v6.51h-8.46V361.53z M213.57,360.87l-0.02,8.51h11.27v-9.13
					h-11.25V360.87z"/>
			</g>
		</g>
		<g>
			<rect x="214.28" y="353.07" class="st0" width="19.37" height="7.82"/>
		</g>
		<g>
			<g>
				<path class="st1" d="M214.94,353.73h18.02c0,1-0.04,5.51-0.04,6.54h-17.99V353.73z M213.57,353.07v8.47l20.76,0.05v-9.17
					l-20.76-0.05V353.07z"/>
			</g>
		</g>
		<g>
			<polygon class="st0" points="233.65,353.07 253.1,353.07 253.07,360.91 233.65,360.88 			"/>
		</g>
		<g>
			<g>
				<path class="st1" d="M234.33,353.73h18.02v6.52h-18.02V353.73z M232.96,353.07l-0.03,8.51h20.83v-9.17h-20.8V353.07z"/>
			</g>
		</g>
		<g>
			<polygon class="st0" points="253.09,353.07 272.47,353.07 272.47,360.96 253.06,360.91 			"/>
		</g>
		<g>
			<g>
				<path class="st1" d="M253.76,353.73c1.25,0,16.73,0.03,18.02,0.03c0,0.97-0.06,5.52-0.06,6.51h-17.96V353.73z M252.39,353.07
					l-0.03,8.51l20.78,0.03l0.03-9.16l-20.78-0.05V353.07z"/>
			</g>
		</g>
		<g>
			<polygon class="st0" points="272.47,353.07 291.87,353.11 291.87,360.96 272.47,360.96 			"/>
		</g>
		<g>
			<g>
				<path class="st1" d="M273.17,353.76h18.01c0,0.97,0,5.52-0.08,6.55c-1.25,0-16.7-0.05-17.96-0.05
					C273.14,359.28,273.17,354.73,273.17,353.76 M271.78,353.07l-0.06,8.51l20.78,0.03l0.02-9.16h-20.74V353.07z"/>
			</g>
		</g>
		<g>
			<rect x="224.11" y="345.19" class="st0" width="19.41" height="7.88"/>
		</g>
		<g>
			<g>
				<path class="st1" d="M224.82,345.87h17.95v6.54h-17.95V345.87z M223.43,345.2l-0.02,8.53h20.83v-9.17h-20.8V345.2z"/>
			</g>
		</g>
		<g>
			<rect x="243.52" y="345.19" class="st0" width="19.36" height="7.88"/>
		</g>
		<g>
			<g>
				<path class="st1" d="M244.23,345.87h18v6.54h-18V345.87z M242.77,345.2v8.53h20.8v-9.17h-20.8V345.2z"/>
			</g>
		</g>
		<g>
			<polygon class="st0" points="262.88,345.2 282.28,345.25 282.26,353.07 262.88,353.07 			"/>
		</g>
		<g>
			<g>
				<path class="st1" d="M263.58,345.87c1.28,0,16.76,0.04,18,0.04v6.54c-1.24,0-16.74-0.05-18-0.05V345.87z M262.24,345.2v8.53
					l20.72,0.03l0.03-9.14l-20.75-0.06V345.2z"/>
			</g>
		</g>
		<g>
			<polygon class="st0" points="282.28,345.25 291.87,345.25 291.87,353.11 282.25,353.07 			"/>
		</g>
		<g>
			<g>
				<path class="st1" d="M291.18,345.91v6.55h-8.21c0-1.03,0.03-5.52,0.03-6.55H291.18z M291.87,344.62h-10.28v9.13h10.93v-9.13
					H291.87z"/>
			</g>
		</g>
		<g>
			<rect x="214.28" y="345.19" class="st0" width="9.83" height="7.88"/>
		</g>
		<g>
			<g>
				<path class="st1" d="M223.43,345.87c0,1.03-0.02,5.52-0.02,6.54c-1.11,0-7.33,0-8.43-0.05v-6.49H223.43z M224.12,344.56h-10.55
					v9.17h11.25l0.02-9.17H224.12z"/>
			</g>
		</g>
		<g>
			<polygon class="st0" points="214.28,337.36 233.68,337.36 233.65,345.2 214.28,345.2 			"/>
		</g>
		<g>
			<g>
				<path class="st1" d="M214.97,338.02h18.01c0,1.02,0,5.51-0.02,6.54h-17.99V338.02z M213.57,337.36v8.51h20.76l0.04-9.16h-20.81
					V337.36z"/>
			</g>
		</g>
		<g>
			<polygon class="st0" points="233.68,337.36 253.1,337.36 253.1,345.2 233.65,345.2 			"/>
		</g>
		<g>
			<g>
				<path class="st1" d="M234.38,338.02h18.01v6.54h-18.06C234.33,343.52,234.38,339.04,234.38,338.02 M232.98,337.36l-0.01,8.51
					h20.82v-9.16h-20.81V337.36z"/>
			</g>
		</g>
		<g>
			<polygon class="st0" points="253.09,337.36 272.47,337.4 272.47,345.25 253.09,345.2 			"/>
		</g>
		<g>
			<g>
				<path class="st1" d="M253.8,338.02c1.24,0,16.71,0.03,17.99,0.03v6.55c-1.3-0.05-16.77-0.05-17.99-0.05V338.02z M252.39,337.36
					v8.51l20.78,0.04v-9.17l-20.78-0.03V337.36z"/>
			</g>
		</g>
		<g>
			<rect x="272.48" y="337.4" class="st0" width="19.4" height="7.85"/>
		</g>
		<g>
			<g>
				<path class="st1" d="M291.18,344.6h-18.01v-6.55h18.01V344.6z M291.87,336.74h-20.1v9.17h20.75l0.05-9.17H291.87z"/>
			</g>
		</g>
		<g>
			<polygon class="st0" points="252.7,442.72 252.62,488.15 266.11,473.93 			"/>
		</g>
		<g>
			<g>
				<path class="st1" d="M254.04,449.52c3.39,7.8,9.93,23.05,10.45,24.19c-0.86,0.88-7.33,7.74-10.45,10.98V449.52z M252.42,441.47
					c-0.66,0.09-1.15,0.66-1.15,1.25l-0.04,45.44c0,0.55,0.35,1.05,0.89,1.25c0.59,0.19,1.19,0.05,1.57-0.37l13.48-14.2
					c0.32-0.4,0.47-0.93,0.26-1.39l-13.46-31.18C253.73,441.67,253.07,441.34,252.42,441.47"/>
			</g>
		</g>
		<g>
			<polygon class="st1" points="252.56,442.72 252.59,488.15 239.11,473.93 			"/>
		</g>
		<g>
			<g>
				<path class="st1" d="M251.09,449.52c0.05,8.93,0.05,30.22,0.05,35.17c-3.08-3.24-9.51-10.1-10.4-10.99
					C241.26,472.57,247.79,457.32,251.09,449.52 M251.22,442.28l-13.41,31.19c-0.2,0.46-0.12,0.97,0.23,1.37l13.46,14.2
					c0.41,0.42,1.02,0.57,1.57,0.37c0.52-0.22,0.88-0.7,0.88-1.26l-0.03-45.42c0-0.59-0.48-1.14-1.12-1.25
					C252.11,441.34,251.49,441.67,251.22,442.28"/>
			</g>
		</g>
		<g>
			<path class="st3" d="M235.54,432.78c0,0-8.05,1.88-12.64-12.33c-4.64-14.2-5.38-9.5-7.24-12.81c0,0,5.94,1.36,10.68,11.58
				c0,0,1.87,4.78,5.86,5.35c0,0-4.56-5.35-5.37-10.99c-0.79-5.66-3.49-13.14-9.93-17.82c0,0,8.65,0.42,13.27,14.65
				c0,0,1.66-4.59-2.54-14.49c-4.21-9.87-5.24-10.53-5.3-20.91c0,0,2.13,11.63,9.07,20.58c6.91,8.97,6.14,12.18,6.57,17.99
				c0,0,1.6-2.79,1.3-7.52c-0.76-1.85-1.57-1.5-2.01-3.61c0,0,0.72,0.46,1.78,1.65c-0.45-2.53-1.47-5.57-3.5-8.97
				c-6.72-10.99-4.24-12.91-3.86-15.99c0,0,2.66,10.47,7.74,16.11c-0.54-3.31-1.61-2.24-2.16-4.81c0,0,4,2.53,6.11,10.65
				c1.26,2.64,2.17,5.54,2.34,8.67c0.19,0.31,0.43,0.59,0.66,0.88c0.14-1.31,0.19-2.71,0.14-4.23c-0.26-1.39-0.48-2.98-0.45-4.58
				c-0.64-3.45-1.93-7.02-4.31-10.22c0,0,2.5,1.03,4.77,4.49c0.16-5.13-0.9-11.29-4.77-16.5c0,0,8.14,3.31,8.58,18.46
				c0,0,0.87-1.22,1.44-4.12c-0.9-7.43-1.44-9.81-0.38-15c-0.86-6.88-1.03,6.71,1.35-1.6c0,0-1.22-3.81,2.87,7.01
				c3.51,9.42,2.73,12.81,1.7,17.22l0.31,1.23c0.66-0.97,1.58-2.45,2.28-4.75l-0.2-0.77c-2.27-8.94-1.57-12.07-0.53-14.09
				c-2.39-10.76,0.15-11.75,1.34-14.45c0,0-0.42,10.9,2.81,18.01c2.17,4.72,3.28,10.95,1.65,16.77c0.4,1.4,0.63,2.88,0.74,4.4
				l0.46-0.62l0.18-0.46c2.24-5.18,3.87-13,0.82-20.8c0,0,7,5.61,3.59,20.26c0,0,3.7-2.78,5.26-13.58c1.54-10.79,1-11.98,6.22-20.6
				c0,0-4.16,10.93-2.94,22.63c1.2,11.61-1.09,13.88-3.69,18.98c0,0,7.29-3.61,7.36-16.84c0.09-13.23,3.07-13.29,4.93-15.6
				c0,0-3.12,10.27-1.72,18.02c1.31,7.82-0.52,18.04-9.07,23.19c0,0,8.94-0.14,11.16-10.18c0,0-0.68,20.38-19.14,18.01l-4.42-1.79
				c-2.14,2.33-5.34,4.2-9.99,5.04l-5.66-0.46c0,0-2.82-0.34-5.23-3.61c-0.79,0.62-1.76,1.25-2.74,1.82L235.54,432.78z"/>
		</g>
		<g>
			<g>
				<path class="st1" d="M258.76,396.08c0.1,0.46,0.1,0.8,0.26,1.3l0.18,0.79c-0.34,0.94-0.72,1.48-1.12,2.22
					C258.42,399.03,258.7,397.69,258.76,396.08 M258.12,403.1L258.12,403.1l-0.82,1.11l-0.32-1.36c0,0-0.28-1.11-0.28-1.4
					c0.39-1.85,0.81-3.66,0.81-5.78c0-2.67-0.59-5.95-2.52-11.09c0,0-1.32-3.45-2.17-5.61c-0.33,0.75-0.61,1.25-0.9,1.45
					c-0.21,1.3-0.47,2.58-0.47,3.75c0,2.02,0.28,4.01,0.65,7.02c0,0,0.31,2.61,0.31,2.85c-0.57,3.04-1.52,4.29-1.57,4.33l-1.14,1.51
					l-0.01-1.83c-0.29-9.3-3.52-13.97-5.86-16.17c2.59,4.73,3.38,9.59,3.38,13.31v0.91l-0.08,2.02l-1.15-1.7
					c-0.67-1.08-1.4-1.65-2.05-2.28c1.27,2.33,2.29,4.86,2.83,7.69c0,0,0.42,4.49,0.45,4.58l-0.18,4.32l-0.05,1.77l-1.08-1.5
					c0,0-0.75-0.94-0.8-1.2c-0.16-2.87-0.96-5.71-2.35-8.57c-0.85-3.32-2-5.47-3.09-7.09c0.18,0.42,0.43,0.99,0.43,0.99l-1.13,0.49
					c-3.65-4.05-6-10.28-7.12-13.78c-0.07,0.51-0.24,1-0.24,1.63c0,2.16,0.89,5.32,4.53,11.35c1.88,3.15,3.11,6.23,3.6,9.24
					l0.21,1.76c0,0-0.17-0.17-0.28-0.28c0.12,0.2,0.27,0.48,0.27,0.48c0.02,0.4,0.05,0.83,0.05,1.29c0,4.03-1.33,6.41-1.4,6.55
					l-1.06,1.91l-0.26-4.29c-0.24-4.55-0.42-7.85-6.34-15.53c-3.92-5.06-6.32-10.95-7.66-15.22c0.38,4.27,1.31,6.51,3.38,11.19
					l1.64,3.79c2.37,5.6,2.9,9.54,2.9,11.98c0,1.87-0.3,2.79-0.36,2.88l-0.62,1.82l-0.59-1.82c-3-9.27-7.69-12.41-10.47-13.51
					c5.74,5.16,7.81,12.29,8.39,16.4c0.78,5.43,5.22,10.64,5.24,10.72l1.02,1.2l-1.63-0.29c-4.35-0.54-6.28-5.5-6.37-5.69
					c-1.96-4.19-4.09-6.66-5.94-8.37c0.91,1.6,2.1,4.26,3.67,9.16c4.38,13.49,11.58,12.09,11.89,11.96l5.35-1.4l3.27-2.08l0.42,0.46
					c2.14,3.02,4.64,3.36,4.64,3.36s5.58,0.42,5.58,0.51c4.11-0.72,7.32-2.42,9.61-4.9l0.31-0.37l0.42,0.19c0,0,4.26,1.74,4.26,1.79
					c4.8,0.62,8.73-0.29,11.73-2.72c3.21-2.54,4.9-6.31,5.73-9.45c-3.58,5.32-9.53,5.6-9.53,5.6h-2.33l1.92-1.16
					c6.8-4.07,9.11-11.5,9.11-17.99c0-1.6-0.14-3.15-0.39-4.55c-0.23-1.45-0.32-2.99-0.32-4.49c0-4.53,0.87-8.93,1.53-11.5
					c-1.53,1.6-3.02,4.07-3.04,13.43c-0.09,13.4-7.43,17.21-7.76,17.33l-1.78,0.89l1.88-3.5c1.71-3.04,2.99-5.47,2.99-11.18
					c0-1.65-0.09-3.47-0.32-5.68c-0.16-1.45-0.19-2.88-0.19-4.33c0-5.01,0.81-9.59,1.56-13c-1.76,3.7-2.12,6.12-2.82,11.22
					l-0.54,4.15c-1.57,10.92-5.36,13.81-5.49,13.92l-1.46,1.13l0.4-1.71c0.65-2.79,0.91-5.24,0.91-7.4c0-4.7-1.16-7.74-2.34-9.71
					c0.52,2.07,0.79,4.12,0.79,6.04c0,5.01-1.4,9.33-2.52,11.95c0,0-0.13,0.48-0.26,0.68l-0.49,0.59l-0.94,1.08l-0.21-1.41
					c0,0-0.67-4.28-0.67-4.61c0.49-1.79,0.73-3.75,0.73-5.71c0-3.61-0.86-7.31-2.43-10.73c-2.32-5.13-2.78-11.92-2.8-15.57
					c-0.57,1.03-1.07,2.31-1.07,4.69c0,1.77,0.24,4.13,0.92,7.43c-0.52,0.99-0.92,2.27-0.92,4.4c0,2.11,0.36,4.99,1.5,9.27
					c0,0,0.19,0.79,0.19,1.05v0.08C259.82,400.54,258.81,402.17,258.12,403.1 M259.16,369.79c-0.78,1.34-1.66,2.82-1.66,6.03
					c0,1.82,0.28,4.18,1,7.45c-0.56,0.94-1,2.25-1,4.58c0,0.18,0.05,0.51,0.05,0.71c-0.39-1.37-0.71-2.67-1.35-4.4
					c-1.83-4.82-2.52-6.74-2.98-7.52h-0.02c-0.31-0.62-0.52-0.66-0.82-0.57c-0.68,0.22-0.47,0.79-0.28,1.4
					c0-0.09-0.11,0.29-0.26,0.52c-0.14-1.14-0.35-1.71-0.88-1.71h-0.62l-0.17,0.99c-0.03,0.05-0.03,0.31-0.03,0.66
					c0,0.66,0.15,1.4,0.51,2.07c-0.3,1.45-0.52,2.85-0.52,4.21c0,1.99,0.25,4.12,0.65,7.15l0.3,2.62c-0.11,0.62-0.25,0.93-0.39,1.34
					c-1.26-12.95-8.38-16.16-8.69-16.27l-2.11-0.88l1.27,1.76c3.62,4.86,4.55,10.32,4.67,14.51c-1.94-2.3-3.77-3.41-3.85-3.45
					l-2.09-0.79l1.27,1.71c2.12,2.88,3.55,6.24,4.24,10.01c0-0.11,0.48,4.63,0.48,4.63c0-0.05,0,0.17-0.02,0.32
					c-0.34-1.96-0.94-4.02-1.92-6.03c-2.07-8.19-6.17-10.79-6.39-10.89c0,0-0.79-0.53-1.36-0.9c-2.47-4.9-3.86-10.01-3.86-10.1
					l-1.36,0.09l-0.26,1.45c-0.2,0.88-0.46,1.77-0.46,2.95c0,2.33,0.93,5.74,4.7,11.92c1.36,2.27,1.97,4.39,2.56,6.6
					c-0.13,0.09-0.94,0.62-0.94,0.62l1.14,2.24l0.95,1.46v0.93c0,1.03-0.16,1.6-0.34,2.34c-0.29-3.84-1.12-7.49-6.41-14.32
					c-6.78-8.74-8.96-20.24-8.98-20.34l-1.27,0.09c0.08,9.02,0.86,10.78,3.73,17.39l1.63,3.75c2.31,5.52,2.81,9.3,2.81,11.56v0.15
					c-4.86-12.06-12.57-12.67-12.94-12.67l-2.09-0.06l1.71,1.17c6.95,4.94,9.02,12.97,9.64,17.39c0.57,3.87,2.79,7.43,4.26,9.47
					c-2.26-1.4-3.44-4.1-3.45-4.15c-4.83-10.42-10.88-11.87-11.17-11.98l-2.05-0.46l1.35,1.36l1.75,1.83
					c1.02,0.54,2.28,1.25,5.37,10.85c4.77,14.63,13.08,12.89,13.45,12.78l5.58-1.48c0.1-0.03,1.67-1.03,2.47-1.57
					c2.45,2.96,5.11,3.38,5.22,3.38l5.73,0.49c4.38-0.77,7.68-2.48,10.13-5c0.6,0.22,4.1,1.67,4.1,1.67
					c5.32,0.71,9.59-0.28,12.92-2.95c6.67-5.27,7.12-15.17,7.12-15.6l-1.29-0.12c-1.44,6.51-5.68,8.56-8.33,9.22
					c5.67-4.49,7.89-11.3,7.89-17.49c0-1.65-0.17-3.24-0.43-4.7c-0.22-1.33-0.33-2.78-0.33-4.22c0-6.65,2.04-13.46,2.07-13.55
					l-1.16-0.62l-0.98,1.08c-1.87,1.76-4.01,3.71-4.03,14.97c-0.08,7.77-2.68,12.06-4.66,14.26c1.42-2.73,2.59-5.43,2.59-10.81
					c0-1.65-0.14-3.45-0.35-5.64c-0.13-1.48-0.2-2.87-0.2-4.27c0-9.7,3.12-18.05,3.12-18.1l-1.16-0.52
					c-4.58,7.51-4.84,9.48-5.76,16.76l-0.58,4.07c-0.89,6.35-2.47,9.61-3.68,11.41c0.33-1.87,0.69-3.82,0.69-5.43
					c0-9.13-4.53-12.89-4.75-13.09l-1.89-1.51l0.81,2.19c1.2,3.08,1.65,6.04,1.65,8.87c0,4.49-1.15,8.2-2.13,10.73
					c-0.23-1.2-0.42-2.45-0.42-2.45c0.52-1.79,0.78-3.75,0.78-5.77c0-3.65-0.84-7.57-2.51-11.09c-2.54-5.57-2.8-13.66-2.8-16.61
					c0-0.71,0.01-1.12,0.01-1.12l-1.22-0.22L259.16,369.79z"/>
			</g>
		</g>
		<g>
			<path class="st0" d="M233.3,338.06c0,0-9.38,1.85-14.82-12.36c-5.37-14.2-6.25-9.51-8.41-12.8c0,0,7.02,1.33,12.51,11.55
				c0,0,2.15,4.83,6.88,5.37c0,0-5.33-5.32-6.32-10.98c-0.93-5.68-4.05-13.15-11.61-17.81c0,0,10.13,0.42,15.5,14.62
				c0,0,1.95-4.56-2.98-14.46c-4.92-9.94-6.1-10.53-6.18-20.92c0,0,2.49,11.64,10.62,20.57c8.03,8.93,7.15,12.23,7.67,18.01
				c0,0,1.84-2.81,1.5-7.54c-0.82-1.91-1.86-1.48-2.36-3.64c0,0,0.86,0.54,2.08,1.68c-0.45-2.56-1.66-5.61-4.05-8.97
				c-7.83-11.04-4.99-12.89-4.53-15.99c0,0,3.08,10.47,9.04,16.08c-0.62-3.33-1.9-2.22-2.54-4.75c0,0,4.67,2.53,7.16,10.59
				c1.46,2.62,2.46,5.57,2.7,8.65c0.23,0.39,0.49,0.66,0.77,0.94c0.18-1.29,0.25-2.73,0.2-4.19c-0.29-1.42-0.14-3.9-0.12-5.44
				c-0.72-3.45-2.67-6.21-5.47-9.41c0,0,2.98,0.94,5.5,3.65c-0.33-1.79-0.52-3.85-0.58-6.35c-0.29-14.6-1.87-10.48-2.54-14.12
				c0,0,4.1,3.18,5.37,14.12c0,0,0.34,5.07,3.11,6.88c0,0-2.19-6.41-1.57-11.89c0.66-5.47,0.35-13.27-3.4-19.63
				c0,0,6.3,3.16,6.56,17.81c0,0,2.23-3.65,1.31-14.18c-1.01-10.5-1.57-11.39,0.64-20.98c0,0-0.98,11.42,2.13,21.92
				c3.18,10.52,1.93,13.24,0.96,18.76c0,0,4.74-5.52,2.22-17.85c-2.5-12.35-0.34-13.25,0.64-16.01c0,0-0.32,10.53,2.2,17.39
				c2.48,6.8,3.13,16.8-2.18,24.08c0.82-0.26,6.55-3.33,6.25-12.67c0,0,2.31,13.04-4.8,19.46c2.71,2.25,7.69-9.71,5.37,1.48
				c0.4,1.45,0.69,2.91,0.81,4.44l0.58-0.63l0.23-0.46c2.55-5.15,4.43-13,0.92-20.84c0,0,8.17,5.63,4.21,20.27
				c0,0,4.3-2.77,6.17-13.55c1.77-10.78,1.17-11.98,7.28-20.58c0,0-4.86,10.93-3.48,22.63c1.4,11.64-1.3,13.83-4.31,18.93
				c0,0,8.51-3.59,8.63-16.78c0.07-13.29,3.54-13.29,5.71-15.62c0,0-3.62,10.27-2.02,18.02c1.58,7.82-0.57,18.09-10.58,23.2
				c0,0,10.46-0.16,13.04-10.24c0,0-0.79,20.45-22.34,18.06l-5.13-1.79c-2.57,2.31-6.23,4.22-11.68,5.06l-6.69-0.52
				c0,0-3.24-0.26-6.05-3.58c-0.96,0.65-2.06,1.2-3.27,1.83L233.3,338.06z"/>
		</g>
		<g>
			<g>
				<path class="st1" d="M253.59,287.66c0.09-0.15,1.63-2.78,1.63-9.64c0-1.45-0.05-3.08-0.23-4.93l-0.37-3.93
					c-0.32-2.93-0.51-4.89-0.51-6.8c0-0.69,0.14-1.45,0.19-2.17c0.2,4.13,0.63,9.08,2.1,14.09c1.49,4.95,2.02,8.19,2.02,10.76
					c0,2.08-0.34,3.82-0.73,5.74l-0.79,4.44l1.7-1.96c0.13-0.22,3.07-3.76,3.07-11.36c0-2-0.2-4.38-0.76-7
					c-0.83-4.18-1.13-7.03-1.13-8.97c0-1.56,0.2-2.64,0.42-3.47c0.11,3.75,0.52,9.59,2.16,14.15c1.11,2.92,1.87,6.57,1.87,10.39
					c0,4.49-1.06,9.2-3.9,13.07l-1.31,1.83l2.22-0.82c0,0,3.55-1.56,5.45-6.24c-0.25,4.03-1.33,8.8-4.79,11.87l-0.82,0.71l0.82,0.28
					l1.39,0.48c1.29-0.11,2.52-1.42,3.6-2.57c0,0,0.41-0.34,0.76-0.6c-0.02,0.56-0.17,1.53-0.56,3.62c0,0.29,0.77,4.59,0.77,4.59
					l0.2,1.37l1-0.99l0.62-0.66c0.06-0.15,0.28-0.57,0.28-0.57c1.33-2.64,2.94-7,2.94-12.01c0-2.05-0.38-4.16-1.02-6.35
					c1.42,1.87,2.97,4.95,2.97,9.85c0,2.17-0.28,4.69-1.06,7.49l-0.45,1.68l1.51-0.97c0.23-0.11,4.61-3.04,6.45-13.98l0.67-4.22
					c0.84-5.21,1.19-7.63,3.5-11.55c-0.98,3.39-1.99,8.05-1.99,13.28c0,1.46,0.11,2.96,0.28,4.49c0.27,2.16,0.38,3.99,0.38,5.54
					c0,5.71-1.53,8.08-3.46,11.16l-2.21,3.56l1.99-0.79c0.36-0.15,8.95-3.93,9.03-17.39c0.05-9.57,1.89-11.96,3.7-13.51
					c-0.74,2.58-1.81,7.02-1.81,11.56c0,1.53,0.1,3.05,0.42,4.5c0.28,1.39,0.43,2.9,0.43,4.52c0,6.46-2.7,13.88-10.65,17.96
					l0.33,1.23c0,0,7.23-0.26,11.35-5.84c-0.9,2.79-2.55,6.35-5.75,8.88c-3.66,2.95-8.67,4.15-14.8,3.46c0-0.05-5-1.77-5-1.77
					l-0.42-0.12l-0.35,0.26c-2.68,2.51-6.48,4.16-11.26,4.9c0-0.04-6.51-0.49-6.51-0.49s-3-0.34-5.57-3.39l-0.35-0.4l-3.77,2.05
					c0,0-6.26,1.4-6.32,1.45c-0.37,0.05-8.84,1.5-14.01-11.96c-1.86-5.01-3.21-7.69-4.31-9.22c2.19,1.68,4.79,4.12,7.11,8.5
					c0.1,0.2,2.4,5.15,7.41,5.77l1.96,0.2l-1.37-1.31c-0.03-0.06-5.2-5.29-6.08-10.65c-0.69-4.07-3.12-11.19-9.75-16.39
					c3.25,1.03,8.71,4.18,12.3,13.52l0.6,1.63l0.71-1.59c0.04-0.09,0.41-1.08,0.41-2.99c0-2.44-0.63-6.37-3.4-12.03l-1.94-3.82
					c-2.43-4.78-3.59-6.97-4.01-11.42c1.58,4.27,4.39,10.35,9.16,15.62c6.94,7.68,7.14,10.9,7.4,15.53l0.31,4.16l1.14-1.77
					c0.06-0.12,1.64-2.53,1.64-6.63c0-0.42,0-0.83-0.03-1.26c-0.04-0.06-0.23-0.32-0.35-0.52c0.15,0.09,0.38,0.29,0.38,0.29
					l-0.31-1.8c-0.57-3.01-2.01-6.14-4.21-9.24c-4.24-5.98-5.23-9.17-5.23-11.33c0-0.68,0.14-1.2,0.28-1.71
					c1.28,3.41,4.04,9.81,8.39,13.98l1.6,1.5l-0.38-2.07c-0.06-0.37-0.21-0.51-0.23-0.74c1.22,1.57,2.5,3.67,3.49,6.91
					c1.57,2.85,2.48,5.66,2.68,8.53c0.12,0.26,0.95,1.25,0.95,1.25l1.15,1.39l0.07-1.71l0.19-4.29c-0.03-0.15-0.15-4.27-0.15-4.27
					l0.03-1.17c-0.55-2.76-2.02-5.07-3.88-7.49c0.86,0.48,1.77,1.19,2.69,2.17l1.41,1.5l-0.77-8.26c-0.06-3.96-0.29-6.29-0.52-8.05
					c0.82,2.03,1.52,4.53,1.93,8.11c0,0.2,0.34,5.35,3.44,7.37l1.7,1.13l-0.62-1.9c-0.03-0.05-1.65-4.86-1.65-9.59
					c0-0.68,0.03-1.34,0.07-2c0.18-1.25,0.32-2.85,0.32-4.62c0-3.7-0.83-8.17-2.73-12.52c1.76,2.24,3.99,6.72,4.16,15.23l0.08,2.42
					L253.59,287.66z M252.73,262.32c0,1.96,0.19,4.01,0.47,6.95l0.39,3.95c0.15,1.77,0.23,3.36,0.23,4.76c0,2.28-0.2,3.87-0.41,5.21
					c-1.3-11.3-6.41-14.14-6.65-14.25l-2.11-1.13l1.18,2.02c2.89,4.9,3.62,10.42,3.62,14.72c0,1.73-0.15,3.27-0.29,4.49
					c-0.07,0.74-0.1,1.51-0.1,2.24c0,2.27,0.31,4.43,0.71,6.2c-0.61-1.65-0.77-3.31-0.77-3.31c-1.28-11.18-5.43-14.56-5.58-14.65
					l-2.1-1.65l0.93,2.23l0.92,2.2c0.62,0.86,1.39,1.97,1.59,11.89c0,0,0.23,2.76,0.43,4.62c-2.2-1.82-4.29-2.54-4.44-2.54
					l-2.27-0.77l1.5,1.77c2.88,3.33,4.69,5.86,5.34,9.13l-0.05,1.02l0.19,4.4c0-0.05-0.03,0.32-0.06,0.88
					c-0.34-2.17-1.1-4.44-2.33-6.66c-2.45-8.14-7.18-10.82-7.43-10.9c0,0-1.06-0.62-1.63-0.91c-2.91-4.9-4.5-9.94-4.54-10.05
					l-1.36,0.11l-0.37,1.43c-0.26,0.89-0.52,1.79-0.52,3.01c0,2.31,1.09,5.8,5.49,12.04c1.63,2.22,2.61,4.41,3.34,6.66
					c-0.11-0.09-0.4-0.34-0.4-0.34l-1.05,0.71l1.38,2.36l1.05,1.42c0.02,0.29,0.02,0.62,0.02,0.91c0,1.17-0.25,1.91-0.46,2.74
					c-0.31-4.02-1.13-7.71-7.6-14.82c-7.88-8.76-10.42-20.15-10.42-20.31l-1.43,0.15c0.08,8.97,0.97,10.78,4.35,17.36l1.92,3.82
					c2.69,5.43,3.32,9.2,3.32,11.46c0,0.19-0.03,0.22-0.03,0.37c-5.68-12.24-14.75-12.86-15.16-12.9l-2.57-0.11l2.18,1.34
					c8.15,5,10.6,13,11.31,17.33c0.65,3.82,3.1,7.32,4.84,9.39c-2.67-1.34-4.05-4.1-4.08-4.15c-5.65-10.44-12.7-11.89-12.99-11.98
					l-2.51-0.46l1.72,1.5l2.09,1.83c1.16,0.56,2.63,1.25,6.3,10.84c5.57,14.58,15.19,12.86,15.61,12.8l6.5-1.49
					c0.14-0.05,2.07-1.16,2.98-1.62c2.79,3.04,5.98,3.41,6.07,3.41l6.72,0.51c5.02-0.74,8.9-2.42,11.8-5
					c0.56,0.18,4.84,1.66,4.84,1.66c6.73,0.77,12.08-0.51,16.04-3.72c6.82-5.43,7.24-14.55,7.24-14.86l-1.38-0.2
					c-1.65,6.55-6.67,8.6-9.78,9.37c6.61-4.56,9.17-11.33,9.17-17.53c0-1.71-0.2-3.24-0.48-4.8c-0.32-1.29-0.39-2.7-0.39-4.18
					c0-6.57,2.35-13.46,2.41-13.55l-1.21-0.63l-1.15,1.03c-2.23,1.76-4.72,3.78-4.77,15.05c-0.04,8.06-3.28,12.33-5.7,14.48
					c1.76-2.81,3.15-5.51,3.15-11.02c0-1.63-0.09-3.5-0.36-5.66c-0.15-1.45-0.29-2.9-0.29-4.29c0-9.7,3.65-17.95,3.68-18.09
					l-1.23-0.59c-5.25,7.52-5.61,9.44-6.71,16.7l-0.68,4.16c-1.12,6.54-3.08,9.85-4.46,11.53c0.41-1.91,0.82-3.87,0.82-5.52
					c0-9.14-5.33-12.98-5.6-13.2l-2.05-1.43l0.97,2.2c1.4,3.08,1.92,6.12,1.92,8.93c0,4.53-1.43,8.36-2.61,10.9
					c-0.2-1.31-0.49-2.67-0.49-2.67c0.46-1.93,0.63-3.13,0.63-3.92c0-0.91-0.19-1.23-0.65-1.42c-0.78-0.37-1.51,0.39-2.5,1.5
					c-0.64,0.62-1.41,1.34-2.07,1.74c3.54-4.03,4.42-9.64,4.42-13.74c0-2.82-0.37-4.82-0.38-5.07l-1.4,0.14v0.62
					c0,5.41-2.07,8.26-3.78,9.87c1.89-3.59,2.91-7.49,2.91-11.32c0-3.96-0.75-7.82-1.9-10.84c-1.95-5.4-2.14-13.2-2.14-16.04
					c0-0.66,0.03-1.09,0.03-1.09l-1.34-0.23l-0.57,1.28c-0.63,1.25-1.31,2.7-1.31,5.78c0,2.11,0.33,5.01,1.17,9.27
					c0.54,2.5,0.77,4.76,0.77,6.72c0,2.48-0.42,4.33-0.85,5.98c0.12-0.94,0.32-1.71,0.32-2.74c0-2.71-0.48-6.03-2.01-11.13
					c-1.91-6.51-2.27-13.41-2.27-17.68c0-2.48,0.12-4.07,0.12-4.07l-1.42-0.17C253.11,256.89,252.73,259.55,252.73,262.32"/>
			</g>
		</g>
		<g>
			<polygon class="st3" points="295.17,209.32 301.22,209.32 301.22,232.65 310.3,232.65 310.3,238.37 301.22,238.37 301.22,246 
				295.1,246 295.13,238.37 286.02,238.37 286.02,232.65 295.13,232.65 			"/>
		</g>
		<g>
			<g>
				<path class="st1" d="M300.32,210.22c0,1.59-0.03,23.3-0.03,23.3h9.12v4.02h-9.12v7.6h-4.27c0-1.36,0.03-7.6,0.03-7.6h-9.13
					v-4.02h9.13v-23.3H300.32z M301.22,208.49h-6.97c0,0-0.02,21.74-0.02,23.33h-9.1v7.4h9.1v7.6h7.89v-7.6h9.11v-7.35
					c0,0-7.65-0.05-9.11-0.05c0-1.59,0.03-23.33,0.03-23.33H301.22z"/>
			</g>
		</g>
		<g>
			<polygon class="st3" points="324.5,209.38 330.59,209.38 330.59,232.7 339.64,232.7 339.62,238.42 330.59,238.42 330.59,246 
				324.45,246 324.45,238.37 315.37,238.37 315.37,232.65 324.45,232.65 			"/>
		</g>
		<g>
			<g>
				<path class="st1" d="M324.45,233.56h0.97v-23.34c1.03,0,3.13,0,4.24,0.05c0,1.54-0.01,23.3-0.01,23.3h9.09v3.98h-9.14v7.6h-4.18
					v-7.6h-9.17v-3.98H324.45z M323.62,209.38c0,0-0.08,20.85-0.08,22.43h-9.08v7.4h9.08v7.6h7.91v-7.6h9.08l0.08-7.35h-9.16
					c0-1.63,0.03-23.33,0.03-23.33h-7.86V209.38z"/>
			</g>
		</g>
		<g>
			<polygon class="st3" points="309.77,244.57 315.86,244.57 315.86,267.82 324.98,267.82 324.98,273.59 315.86,273.59 
				315.83,281.22 309.77,281.14 309.77,273.59 300.66,273.59 300.66,267.82 309.77,267.82 			"/>
		</g>
		<g>
			<g>
				<path class="st1" d="M309.77,268.73h0.9v-23.3h4.28c0,1.6-0.03,23.3-0.03,23.3h9.11v3.95h-9.11v7.68
					c-1.11,0-3.19-0.05-4.26-0.05v-7.63h-9.04v-3.95H309.77z M308.87,244.57v22.42h-9.13v7.43h9.07v7.63h7.96
					c0,0,0.01-6.28,0.01-7.63h9.09v-7.43h-9.09v-23.27h-7.89V244.57z"/>
			</g>
		</g>
		<g>
			<polygon class="st0" points="263.83,107.36 253.34,97.5 242.87,107.36 253.34,117.22 			"/>
		</g>
		<g>
			<g>
				<path class="st1" d="M253.34,98.48c0.87,0.79,8.66,8.09,9.5,8.88c-0.84,0.79-8.63,8.14-9.5,8.97c-0.86-0.83-8.63-8.19-9.46-8.97
					C244.71,106.58,252.48,99.27,253.34,98.48 M252.89,97.02l-11.01,10.35l11.46,10.79l11.51-10.79l-11.51-10.81L252.89,97.02z"/>
			</g>
		</g>
		<g>
			<polygon class="st1" points="283.74,109.18 277.85,103.66 271.96,109.18 277.85,114.73 			"/>
		</g>
		<g>
			<polygon class="st1" points="306.91,112.11 301.85,105.91 295.25,110.65 300.29,116.89 			"/>
		</g>
		<g>
			<polygon class="st1" points="329.71,116.97 325.16,110.45 318.16,114.73 322.76,121.33 			"/>
		</g>
		<g>
			<polygon class="st1" points="221.92,109.18 227.76,103.66 233.66,109.18 227.76,114.73 			"/>
		</g>
		<g>
			<polygon class="st1" points="198.72,112.11 203.8,105.91 210.39,110.65 205.36,116.89 			"/>
		</g>
		<g>
			<polygon class="st1" points="175.92,116.97 180.47,110.45 187.44,114.73 182.87,121.33 			"/>
		</g>
		<g>
			<path class="st1" d="M260.59,49.19c0-3.1-2.65-5.55-5.9-5.55c-3.25,0-5.89,2.45-5.89,5.55c0,2.99,2.64,5.5,5.89,5.5
				C257.94,54.69,260.59,52.18,260.59,49.19"/>
		</g>
		<g>
			<path class="st1" d="M327.01,63.78c0-1.76-1.57-3.28-3.5-3.28c-1.9,0-3.45,1.53-3.45,3.28c0,1.8,1.55,3.28,3.45,3.28
				C325.44,67.06,327.01,65.58,327.01,63.78"/>
		</g>
		<g>
			<path class="st1" d="M188.61,63.78c0-1.76-1.54-3.28-3.44-3.28c-1.94,0-3.5,1.53-3.5,3.28c0,1.8,1.56,3.28,3.5,3.28
				C187.07,67.06,188.61,65.58,188.61,63.78"/>
		</g>
		<g>
			<polygon class="st4" points="367.13,110.57 345.67,117.12 353.27,135.27 			"/>
		</g>
		<g>
			<g>
				<path class="st1" d="M364.26,112.88c-2.25,3.92-8.83,15.65-10.82,19.27c-1.48-3.62-5.1-12.32-5.92-14.2
					C349.61,117.31,359.93,114.18,364.26,112.88 M366.71,109.37l-21.49,6.51c-0.37,0.09-0.63,0.35-0.79,0.68
					c-0.17,0.34-0.2,0.71-0.03,1.03l7.55,18.21c0.19,0.46,0.65,0.77,1.22,0.77c0.57,0.08,1.05-0.23,1.32-0.65l13.86-24.68
					c0.26-0.52,0.21-1.08-0.15-1.5C367.85,109.37,367.21,109.18,366.71,109.37"/>
			</g>
		</g>
		<g>
			<polygon class="st4" points="141.6,110.57 163.04,117.12 155.47,135.27 			"/>
		</g>
		<g>
			<g>
				<path class="st1" d="M144.42,112.87c4.34,1.31,14.7,4.46,16.8,5.09c-0.84,1.88-4.48,10.64-5.95,14.2
					C153.25,128.59,146.63,116.8,144.42,112.87 M140.47,109.74c-0.35,0.42-0.42,0.97-0.16,1.5l13.91,24.68
					c0.27,0.43,0.77,0.72,1.31,0.65c0.52,0,1.03-0.32,1.21-0.79l7.58-18.19c0.15-0.32,0.15-0.68-0.01-1.03
					c-0.17-0.31-0.48-0.59-0.83-0.68l-21.47-6.51C141.47,109.17,140.84,109.37,140.47,109.74"/>
			</g>
		</g>
		<g>
			<path class="st1" d="M274.05,41.85c0.97,0.37,3.57,1.71,3.66,3.36c0.15,1.22-1.03,2.53-3.35,3.9c-0.26,0.12-0.34,0.37-0.34,0.59
				c0.03,0.25,0.14,0.46,0.39,0.57c0.94,0.42,3.39,1.8,3.46,3.45c0.04,1.13-1.18,2.39-3.47,3.55l0.66,1.14
				c2.81-1.42,4.21-3.01,4.21-4.64v-0.09c-0.08-1.97-2.1-3.41-3.33-4.07c2.01-1.36,3.22-2.81,3.22-4.19v-0.29
				c-0.28-2.81-4.39-4.44-4.6-4.5L274.05,41.85z"/>
		</g>
		<g>
			<path class="st1" d="M230.88,45.12v0.29c0,1.39,1.2,2.84,3.23,4.19c-1.24,0.66-3.26,2.1-3.34,4.07v0.09
				c0,1.63,1.41,3.22,4.24,4.64l0.63-1.13c-2.31-1.19-3.52-2.44-3.5-3.56c0.05-1.63,2.56-3.04,3.49-3.45
				c0.18-0.11,0.37-0.32,0.42-0.57c0.02-0.22-0.11-0.46-0.37-0.59c-2.34-1.37-3.53-2.68-3.39-3.9c0.14-1.65,2.73-2.99,3.67-3.36
				l-0.49-1.23C235.26,40.68,231.14,42.31,230.88,45.12"/>
		</g>
		<g>
			<path class="st1" d="M258.81,15.19c-2.06,0.05-3.59,1.96-4.34,3.13c-1.54-1.96-3.13-3.18-4.72-3.04
				c-3.01,0.25-4.77,4.18-4.82,4.32l1.3,0.49c0.43-0.92,1.86-3.36,3.61-3.47c1.26-0.12,2.72,0.99,4.12,3.19
				c0.15,0.2,0.39,0.34,0.66,0.34c0.26-0.06,0.46-0.19,0.59-0.42c0.44-0.89,1.94-3.21,3.65-3.24c1.22-0.03,2.53,1.06,3.8,3.31
				l1.23-0.69C262.35,16.47,260.64,15.15,258.81,15.19"/>
		</g>
	</g>
</g>
</svg>
