<?xml version="1.0" encoding="utf-8"?>
<!-- Generator: Adobe Illustrator 26.0.0, SVG Export Plug-In . SVG Version: 6.00 Build 0)  -->
<svg version="1.1" id="Capa_1" xmlns="http://www.w3.org/2000/svg" xmlns:xlink="http://www.w3.org/1999/xlink" x="0px" y="0px"
	 viewBox="0 0 500 500" style="enable-background:new 0 0 500 500;" xml:space="preserve">
<style type="text/css">
	.st0{fill:#FFFFFF;}
</style>
<g>
	<g>
		<g>
			<path class="st0" d="M370.05,346.29c-0.08,0.06-8.05,4.36-11.28,12.5l0.02-12.56h-5.99v12.58c-3.23-8.17-11.2-12.47-11.31-12.55
				l-0.81,0.98c6.81,7.86,7.26,14.99,7.18,17.41c-0.79,0.36-1.3,0.9-1.3,1.55c0,0.63,0.49,1.19,1.27,1.54
				c-0.14,3.28-1.25,9.58-7.18,16.38l0.84,0.97c0.11-0.05,8.08-4.36,11.31-12.5v13.61h5.96l0.02-13.61
				c3.22,8.14,11.17,12.44,11.23,12.48l0.9-0.97c-5.99-6.8-7.07-13.21-7.18-16.36c0.78-0.35,1.25-0.89,1.25-1.5l-0.44-1.11
				c-0.21-0.19-0.51-0.35-0.82-0.49c-0.06-2.63,0.49-9.66,7.21-17.39L370.05,346.29z M354.18,347.47h3.25c0,0.59,0,8.38-0.02,16.73
				h-3.25C354.18,355.85,354.18,348.05,354.18,347.47z M343.86,349.48c3.3,2.55,8.24,7.48,8.87,14.72h-2.58
				c-0.33,0-0.65,0.03-0.95,0.08v-0.08C349.2,361.69,348.36,355.89,343.86,349.48z M343.85,381.91c3.96-5.67,5.1-10.79,5.31-13.77
				c0.32,0.05,0.65,0.08,1,0.08h2.44C351.61,374.89,346.97,379.51,343.85,381.91z M357.39,384.95h-3.28
				c0.02-0.57,0.03-8.38,0.05-16.73h3.25C357.41,376.57,357.39,384.38,357.39,384.95z M350.15,366.97c-0.35,0-0.67-0.03-0.95-0.1
				c-0.27-0.05-0.49-0.11-0.68-0.19c-0.41-0.17-0.63-0.36-0.63-0.48c0-0.13,0.21-0.3,0.59-0.46c0.17-0.06,0.4-0.13,0.67-0.17
				c0.29-0.06,0.63-0.1,1.01-0.1h11.23c0.4,0,0.73,0.05,1.05,0.11c0.24,0.05,0.46,0.13,0.63,0.21c0.19,0.08,0.36,0.17,0.46,0.27
				l0.13,0.14c0,0.11-0.22,0.3-0.62,0.48c-0.19,0.08-0.41,0.14-0.67,0.19c-0.29,0.06-0.62,0.1-0.98,0.1H350.15z M367.66,381.91
				c-3.14-2.46-7.71-7.02-8.7-13.69h2.42c0.35,0,0.68-0.03,1.01-0.08C362.57,370.99,363.65,376.16,367.66,381.91z M362.37,364.26
				c-0.32-0.05-0.65-0.06-0.98-0.06h-2.57c0.65-7.22,5.61-12.15,8.9-14.72C363.24,355.97,362.37,361.69,362.37,364.26z"/>
		</g>
		<g>
			<path class="st0" d="M142.91,359.86c0.71-3.28,2.41-7.64,6.29-12.24c0.14-0.17,0.27-0.33,0.42-0.5l-0.85-0.94
				c-0.06,0.02-2.46,1.31-5.15,3.79c-1.35,1.24-2.76,2.78-3.99,4.62c-0.81,1.2-1.54,2.53-2.13,3.98v-12.49h-5.96v0h-0.01
				l-0.03,12.55c-0.6-1.53-1.37-2.92-2.22-4.17c-3.69-5.44-8.96-8.26-9.07-8.29l-0.82,0.89c2.09,2.42,3.57,4.78,4.63,6.95
				c0.01,0.02,0.02,0.03,0.03,0.05c0.02,0.04,0.04,0.08,0.06,0.13c2.27,4.74,2.48,8.57,2.43,10.31c-0.09,0.04-0.16,0.09-0.23,0.13
				c-0.63,0.33-1.02,0.8-1.02,1.38l0.35,0.78l0.13,0.29c0.07,0.07,0.16,0.13,0.24,0.19c0.05,0.03,0.09,0.07,0.14,0.1
				c0.12,0.07,0.24,0.14,0.37,0.2c-0.05,1.12-0.22,2.58-0.63,4.29c-0.82,3.35-2.63,7.64-6.55,12.15l0.82,0.93c0,0,0,0,0.01,0l0,0
				c0.12-0.07,8.06-4.35,11.3-12.48l-0.03,13.6h6.04v-0.01h0.01l0.01-13.62v0c1.82,4.58,5.12,7.94,7.69,10.02
				c1.99,1.61,3.53,2.45,3.57,2.48l0,0c0,0,0.01,0,0.01,0l0.81-0.93c0,0,0,0,0,0l0,0c-3.15-3.65-4.93-7.11-5.93-10.04
				c-0.9-2.66-1.17-4.86-1.22-6.34c0-0.01,0-0.02,0-0.03c0.79-0.35,1.28-0.87,1.28-1.54l-0.51-1.05c-0.13-0.13-0.3-0.24-0.48-0.34
				c-0.09-0.05-0.18-0.1-0.28-0.15c0,0,0-0.01,0-0.01C142.41,363.53,142.47,361.91,142.91,359.86z M132.86,347.36h3.27
				c0,0.55-0.01,8.36-0.02,16.72h-3.28C132.85,355.72,132.86,347.9,132.86,347.36z M122.57,349.28c3.3,2.61,8.23,7.59,8.88,14.8
				h-2.56c-0.35,0-0.68,0.03-0.99,0.07c0-0.03,0-0.04,0-0.07C127.91,361.48,127.06,355.79,122.57,349.28z M122.51,381.77
				c3.98-5.65,5.13-10.82,5.35-13.82c0.32,0.04,0.65,0.07,1,0.07h2.45C130.3,374.72,125.67,379.31,122.51,381.77z M136.09,384.81
				h-3.28c0-0.56,0.01-8.42,0.02-16.79h3.28C136.1,376.4,136.09,384.25,136.09,384.81z M137.49,366.77h-0.64h-0.07h-0.59h-0.09
				h-3.28h-0.07h-0.61h-0.06h-0.6h-0.03h-2.6c-0.35,0-0.67-0.04-0.96-0.09c-0.28-0.05-0.52-0.12-0.72-0.2
				c-0.19-0.08-0.36-0.16-0.46-0.25l-0.12-0.16c0-0.12,0.19-0.28,0.51-0.43c0.19-0.09,0.43-0.16,0.73-0.22
				c0.3-0.06,0.64-0.1,1.04-0.1h2.6h0.02h0.64h0.01h0.67h0.01h3.28h0.02h0.65h0h0.7h0h2.61c0.38,0,0.71,0.05,1.01,0.12
				c0.26,0.06,0.49,0.12,0.67,0.2c0.2,0.08,0.37,0.16,0.47,0.23l0.1,0.13c0,0.14-0.22,0.33-0.62,0.49
				c-0.19,0.07-0.42,0.14-0.68,0.19c-0.27,0.05-0.59,0.08-0.94,0.08h-2.56H137.49z M146.37,381.73c-3.16-2.42-7.74-7.04-8.7-13.71
				h2.42c0.34,0,0.66-0.03,0.96-0.07C141.24,370.81,142.34,375.98,146.37,381.73z M141.02,364.01c0,0.05,0,0.08,0,0.12
				c-0.3-0.04-0.61-0.06-0.93-0.06h-2.55c0.61-7.21,5.56-12.18,8.88-14.74C141.9,355.7,141.02,361.39,141.02,364.01z"/>
		</g>
		<g>
			<path class="st0" d="M149.2,229.44c0.17-0.21,0.33-0.41,0.52-0.62l-0.84-0.93c0,0,0,0,0,0l0,0c-0.04,0.01-1.19,0.63-2.79,1.84
				c-2.63,1.98-6.46,5.54-8.48,10.59v-0.01l0.02-12.49h0h-0.7h-5.33h0v8.37l0,4.19c-3.17-8.04-10.93-12.32-11.24-12.5
				c0,0-0.02-0.01-0.02-0.01v0c0,0,0,0,0,0l-0.32,0.36l-0.52,0.57c3.49,4.02,5.31,7.83,6.24,10.94c0.89,2.97,0.97,5.3,0.92,6.54
				c-0.76,0.36-1.24,0.9-1.24,1.54c0,0.63,0.48,1.17,1.24,1.53c-0.02,0.61-0.08,1.32-0.2,2.13c-0.51,3.47-2.14,8.66-6.99,14.24
				l0.86,0.95c0,0,0,0,0,0l0,0c0.08-0.08,8.03-4.33,11.26-12.46v11.45l0,2.15h0v0.01l3.49,0.03l2.52,0.02l0.01-13.61
				c0.43,1.07,0.95,2.08,1.51,3.02c2.15,3.58,5.05,6.16,7.13,7.7c1.49,1.11,2.56,1.68,2.6,1.69l0,0c0,0,0,0,0,0l0.25-0.27l0.62-0.68
				c-5.66-6.5-6.91-12.48-7.14-15.79c-0.01-0.2-0.02-0.39-0.03-0.57c0.77-0.36,1.26-0.9,1.26-1.54c0-0.42-0.22-0.79-0.57-1.1
				c-0.19-0.17-0.41-0.33-0.69-0.46c-0.01-0.64,0.01-1.56,0.16-2.7C143.11,240.21,144.58,235,149.2,229.44z M132.92,229.06h3.31
				c0,0.57,0,8.39-0.01,16.73h-3.31C132.92,237.44,132.92,229.63,132.92,229.06z M122.68,231.05c3.3,2.53,8.22,7.49,8.83,14.74
				h-2.54c-0.34,0-0.65,0.03-0.96,0.08c0-0.06,0-0.11,0-0.17C128.01,243.11,127.1,237.46,122.68,231.05z M122.65,263.49
				c3.92-5.7,5.09-10.83,5.31-13.77c0.32,0.05,0.64,0.08,1,0.08h2.41C130.4,256.45,125.79,261.02,122.65,263.49z M136.21,266.53
				h-3.3c0-0.57,0-8.39,0.01-16.73h3.31C136.22,258.14,136.21,265.96,136.21,266.53z M137.59,248.54h-0.62h-0.06h-0.61h-0.07h-3.31
				h-0.08h-0.58h-0.1h-0.59h-0.06h-2.55c-0.36,0-0.68-0.04-0.96-0.09c-0.28-0.06-0.51-0.13-0.7-0.21c-0.37-0.16-0.57-0.34-0.57-0.44
				c0-0.1,0.19-0.27,0.52-0.43c0.17-0.08,0.39-0.15,0.64-0.21c0.3-0.07,0.64-0.12,1.06-0.12l2.6,0.01h0.02l0.65,0l0.03,0l0.64,0
				l0.02,0l3.31,0.01l0,0l0.67,0l0.01,0l0.67,0l0.02,0l2.62,0.01c0.38,0,0.71,0.04,0.99,0.09c0.27,0.05,0.5,0.12,0.68,0.2
				c0.36,0.15,0.56,0.32,0.56,0.43c0,0.1-0.21,0.29-0.61,0.46c-0.19,0.08-0.42,0.15-0.69,0.2c-0.27,0.05-0.58,0.09-0.93,0.09h-2.59
				H137.59z M146.5,263.5c-3.16-2.44-7.74-7.05-8.73-13.71h2.45c0.34,0,0.66-0.03,0.96-0.07C141.38,252.58,142.5,257.75,146.5,263.5
				z M141.13,245.79c0,0.03,0,0.04,0,0.07c-0.29-0.04-0.6-0.07-0.92-0.07h-2.58c0.63-7.24,5.55-12.17,8.86-14.74
				C141.99,237.49,141.13,243.15,141.13,245.79z"/>
		</g>
		<g>
			<path class="st0" d="M228.89,196.25l0.68,1.14c0.38-0.14,7.95-3.04,11.07-8.65l-0.02,9.38h5.88v-9.33
				c3.12,5.58,10.65,8.46,11.04,8.6l0.7-1.08c-5.54-4.5-6.7-8.57-6.89-10.74c0.67-0.29,1.11-0.71,1.11-1.3
				c0-0.81-0.46-1.35-1.12-1.7c0.13-2.15,1.14-6.43,6.92-11.04l-0.67-1.11c-0.41,0.13-7.95,2.98-11.09,8.52v-8.6h-5.86v8.63
				c-3.1-5.56-10.66-8.43-11.06-8.55l-0.7,1.06c5.61,4.51,6.76,8.67,6.92,10.85c-0.95,0.27-1.66,0.74-1.66,1.46
				c0,1.01,0.7,1.6,1.62,1.89C235.53,188.01,234.23,191.99,228.89,196.25z M245.13,196.85h-3.15c0-0.54,0-5.5,0.02-10.88l3.14,0.02
				V196.85z M254.55,194.47c-2.88-1.68-6.7-4.5-7.76-8.49l2.19,0.02c0.35,0,0.71-0.03,1.08-0.08
				C250.29,187.8,251.3,190.96,254.55,194.47z M254.55,173.33c-3.39,3.66-4.36,6.95-4.55,8.87c-0.33-0.06-0.68-0.1-1.03-0.1h-2.28
				C247.61,178.01,251.57,175.04,254.55,173.33z M242.01,171.68h3.14v10.42h-3.15C242.01,176.89,242.01,172.19,242.01,171.68z
				 M232.63,173.34c2.96,1.71,6.91,4.67,7.81,8.76h-2.8c-0.16,0-0.33,0.02-0.49,0.03C236.95,180.23,235.95,176.99,232.63,173.34z
				 M235.5,184.19v-0.4c0.03-0.03,0.14-0.08,0.29-0.14c0.17-0.05,0.41-0.11,0.7-0.17c0.19-0.05,0.41-0.06,0.67-0.1
				c0.16,0,0.32-0.03,0.49-0.03h11.34c0.4,0,0.73,0.05,1.01,0.1c0.29,0.05,0.51,0.11,0.68,0.17c0.27,0.1,0.44,0.19,0.51,0.22
				l-0.03,0.43c-0.05,0.05-0.22,0.14-0.51,0.24c-0.17,0.05-0.38,0.11-0.65,0.16c-0.3,0.05-0.62,0.08-1.01,0.08h-11.34
				c-0.17,0-0.3-0.03-0.46-0.05c-0.25-0.02-0.48-0.05-0.68-0.1c-0.29-0.08-0.51-0.16-0.68-0.22
				C235.65,184.3,235.53,184.22,235.5,184.19z M237.08,185.94c0.19,0.02,0.38,0.02,0.55,0.02l2.71,0.02
				c-1.05,3.99-4.83,6.81-7.76,8.47C235.75,191,236.81,187.95,237.08,185.94z"/>
		</g>
		<g>
			<path class="st0" d="M166.88,230.5l0.53,0.05c0,0,0.03-0.01,0.09-0.02c0.11-0.03,0.3-0.08,0.52-0.14
				c0.12-0.03,0.23-0.06,0.35-0.09c0,1.23,0,8.94,0,14.33c0,3.03,0,5.32,0,5.32h0c0,0,0,0,0,0h6.99v-2.42h2.75l0.04-5.74h0v0h-2.79
				v-0.4h2.77v0h0.01v-5.75h-2.78c0-1.05,0-4.3,0.02-5.67c0-0.02,0-0.05,0-0.08c0.34,0.11,0.67,0.24,1.01,0.35
				c0.43,0.14,0.87,0.25,1.34,0.25c0.55,0.01,1.09-0.06,1.63-0.18c1.16-0.26,2.24-0.8,3.08-1.61c0,0,0,0,0.01-0.01c0,0,0,0,0,0
				c1.27-1.19,1.94-2.76,1.94-4.47c0-0.76-0.15-1.48-0.43-2.15c-0.82-2.01-2.76-3.51-5.09-3.91c0.07-0.33,0.14-0.67,0.19-0.92
				c0.04-0.19,0.06-0.34,0.06-0.35c0-0.42-0.04-0.83-0.12-1.23c-0.24-1.2-0.86-2.31-1.82-3.16c-0.06-0.05-0.12-0.09-0.18-0.14
				c-1.22-1.1-2.85-1.71-4.54-1.71c-3.68,0-6.68,2.82-6.68,6.24c0,0,0.03,0.68,0.16,1.23c-3.24,0.49-5.77,2.97-5.77,6.09
				C160.15,227.72,163.17,230.5,166.88,230.5z M166.88,219.68h0.98l-0.33-2.79c0-2.53,2.2-4.6,4.93-4.6c1.3,0,2.55,0.48,3.5,1.36
				c0.9,0.91,1.38,2.04,1.38,3.29l-0.44,2.55l0.95,0.19c2.65,0.03,4.77,2.09,4.77,4.55c0,1.25-0.47,2.43-1.43,3.28
				c-0.92,0.88-2.14,1.37-3.47,1.37c-0.98,0-1.93-0.27-2.73-0.82l-1.4-0.85v10.16h2.77v2.4h-2.77v3.69h2.77v2.4h-2.77v2.38h-3.46
				v-20.04l-1.36,0.4l-1.33,0.27h-0.57c-2.76,0-4.96-2.12-4.96-4.65C161.92,221.68,164.14,219.68,166.88,219.68z"/>
		</g>
		<g>
			<path class="st0" d="M172.3,219.53c1.49,0,2.69-1.15,2.69-2.55c0-1.34-1.2-2.49-2.69-2.49c-1.48,0-2.67,1.15-2.67,2.49
				C169.62,218.39,170.81,219.53,172.3,219.53z"/>
		</g>
		<g>
			<path class="st0" d="M196.12,230.55h0.62c0,0,0.03-0.01,0.05-0.01c0.09-0.02,0.42-0.11,0.81-0.22c0.03-0.01,0.06-0.02,0.1-0.03
				c0,0.98,0,6.17,0,10.97c0,4.51-0.01,8.67-0.01,8.67h6.97v-2.39h2.8v0h0.01v-5.73h-2.8v-0.36h2.8v-5.75h-0.01v-0.01h-2.8v-5.79
				c0.53,0.17,1.03,0.4,1.56,0.53c0.26,0.07,0.52,0.12,0.81,0.12c0.77,0,1.52-0.15,2.22-0.38c0.91-0.31,1.76-0.78,2.46-1.46
				c1.31-1.19,1.98-2.76,1.98-4.48c0-3.07-2.38-5.53-5.5-6c0.02-0.12,0.04-0.24,0.06-0.36c0.08-0.46,0.17-0.83,0.18-0.89
				c0-0.01,0.01-0.03,0.01-0.03v-0.03c0-1.57-0.65-3.06-1.78-4.21c-0.05-0.06-0.09-0.12-0.15-0.17c-0.02-0.01-0.03-0.02-0.05-0.04
				c-1.28-1.18-2.92-1.82-4.69-1.82c-3.71,0-6.7,2.82-6.73,6.27c0,0,0,0.01,0,0.01c0,0,0,0,0,0s0,0.01,0,0.02
				c0.01,0.05,0.07,0.53,0.12,0.96c0.01,0.09,0.02,0.18,0.02,0.26c-0.99,0.14-1.91,0.5-2.72,1c-0.49,0.3-0.94,0.63-1.33,1.03
				c-1.03,1.07-1.67,2.46-1.67,4.02c0,0.6,0.12,1.16,0.29,1.71C190.55,228.58,193.11,230.55,196.12,230.55z M196.12,219.67h1.02
				l-0.18-1.37l-0.17-1.36c0.05-2.5,2.24-4.6,4.98-4.6c1.31,0,2.53,0.43,3.44,1.31c0.93,0.91,1.44,2.1,1.44,3.29l-0.49,2.59
				l1.01,0.13c2.65,0.08,4.77,2.06,4.77,4.56c0,1.25-0.52,2.43-1.45,3.29c-0.9,0.86-2.17,1.34-3.43,1.34c-1.03,0-2-0.25-2.82-0.76
				l-1.35-0.85l-0.02,10.13h2.78v2.43h-2.78v3.65h2.78v2.44h-2.81v2.34h-3.41c0-1.49,0.02-20.04,0.02-20.04l-1.39,0.4l-1.29,0.25
				h-0.66c-2.69,0-4.9-2.06-4.9-4.63C191.22,221.68,193.43,219.67,196.12,219.67z"/>
		</g>
		<g>
			<path class="st0" d="M201.62,219.53c1.47,0,2.65-1.15,2.65-2.5c0-1.39-1.18-2.53-2.65-2.53c-1.5,0-2.68,1.15-2.68,2.53
				C198.95,218.39,200.13,219.53,201.62,219.53z"/>
		</g>
		<g>
			<path class="st0" d="M181.05,248.95c-0.72,1-1.14,2.2-1.14,3.5c0,0,0.06,0.59,0.12,1.05c0.02,0.14,0.04,0.28,0.05,0.37
				c-1.06,0.14-2.09,0.35-2.97,0.86c-0.29,0.17-0.57,0.37-0.83,0.62c-0.49,0.43-0.87,0.95-1.19,1.5c-0.51,0.89-0.8,1.88-0.8,2.9
				c0,1.64,0.69,3.13,1.8,4.25c1.22,1.25,2.96,2.05,4.89,2.05h0.6c0,0,0.46-0.12,0.92-0.21v19.65h0.01v0h6.95v0h0v-2.41h2.82v-5.77
				h-0.01v-0.01h-2.82v-0.35h2.82v0h0.01v-5.74h-2.82v-5.84c0.77,0.27,1.55,0.67,2.39,0.67c3.68,0,6.69-2.79,6.69-6.27
				c0-1.38-0.52-2.64-1.37-3.66c-0.64-0.78-1.47-1.41-2.43-1.84c-0.54-0.24-1.1-0.44-1.7-0.55c0.06-0.65,0.2-1.21,0.2-1.21
				c0-1.76-0.75-3.33-1.96-4.47c-1.21-1.14-2.87-1.84-4.7-1.86C184.28,246.19,182.24,247.29,181.05,248.95z M186.58,247.84
				c2.72,0,4.91,2.1,4.91,4.68l-0.44,2.52l0.96,0.13c2.6,0.04,4.77,2.15,4.77,4.6c0,2.58-2.21,4.6-4.91,4.6
				c-1.01,0-1.95-0.27-2.78-0.82l-1.35-0.82l-0.05,10.13h2.82v2.44h-2.8v3.62c0,0,1.95,0.04,2.8,0.04v2.44h-2.8v2.35h-3.43
				c0-1.49,0.02-20.07,0.02-20.07l-1.35,0.37l-1.36,0.3h-0.6c-2.69-0.03-4.89-2.07-4.89-4.63c0-1.24,0.48-2.37,1.43-3.28
				c0.93-0.85,2.15-1.3,3.47-1.3h0.95l-0.11-1.24l-0.16-1.49C181.68,249.94,183.88,247.84,186.58,247.84z"/>
		</g>
		<g>
			<path class="st0" d="M186.42,255.03c1.52,0,2.66-1.1,2.66-2.5c0-1.37-1.14-2.49-2.66-2.49c-1.44,0-2.64,1.12-2.64,2.49
				C183.79,253.92,184.98,255.03,186.42,255.03z"/>
		</g>
		<g>
			<polygon class="st0" points="236.65,398.22 236.81,398.22 236.65,398.22 			"/>
		</g>
		<g>
			<path class="st0" d="M113.63,88.35c5.66,1.76,8.36,7.51,8.7,8.13c-0.03,0.29-0.03,0.49-0.03,0.74c0,5.72,4.23,7.92,7.13,8.44
				c0.21,0.36,3.29,5.85,6.99,12.42c0,0,0,0,0,0c0,0,0,0,0,0c0.01,0.03,0.02,0.06,0.03,0.1v0.02c0.01,0.02,0.02,0.04,0.02,0.06
				c0.01,0.02,0.01,0.04,0.02,0.05c0-0.01,0-0.02-0.01-0.03c0,0.01,0.01,0.02,0.01,0.03l5.29,9.36c0.71,1.25,1.39,2.47,2.04,3.64
				c0.21,0.36,0.41,0.73,0.6,1.08c0.22,0.35,0.41,0.7,0.59,1.03c0.13,0.24,0.27,0.48,0.4,0.7c0.13,0.24,0.25,0.46,0.38,0.68
				c0.08,0.11,0.14,0.22,0.19,0.33c0.06,0.11,0.11,0.22,0.17,0.33l0.46,0.81c0.17,0.29,0.33,0.57,0.48,0.84
				c0.3,0.54,0.59,1.03,0.84,1.49c0.21,0.35,0.4,0.68,0.55,0.98c0.06,0.11,0.13,0.22,0.17,0.32c0.13,0.21,0.22,0.38,0.32,0.55
				c0.06,0.1,0.11,0.19,0.16,0.27c0.05,0.08,0.1,0.14,0.11,0.21c0.06,0.08,0.1,0.14,0.11,0.19l0.06,0.14
				c-2.91,2.11-6.46,6.19-6.46,11.44c0,1.7,0.4,3.53,1.3,5.37c1.44,3.14,3.74,5.15,6.76,6.23c0.27,0.1,0.54,0.17,0.81,0.24h-37.69
				c0,0,0,1.08,0,1.17v37.78h0.03l-0.16,183.08c-0.03,0.54-4.94,59.96,60.24,65.72c30.38,2.72,49.31,12.58,59.61,20.48l10.08,10.63
				c0.16,0.16,0.35,0.27,0.55,0.33c0,0.02,0.02,0.02,0.03,0.03c0.02,0,0.02,0,0.03,0c0.11,0.03,0.22,0.05,0.35,0.06h0.06
				c0.08,0.02,0.16,0,0.22-0.02c0.1-0.02,0.17-0.02,0.25-0.05c0.02,0,0.02,0,0.03-0.02c0.21-0.06,0.41-0.17,0.57-0.35l0.25-0.27
				h0.08c0-0.03,0.03-0.08,0.03-0.13l9.58-10.07c10.2-7.92,29.15-17.84,59.83-20.53c56.54-4.93,60.45-50.28,60.45-62.68
				c0-1.82-0.09-2.96-0.09-3.06l0.19-221.98h-1.03c-0.14-0.05-0.3-0.1-0.46-0.1h-33.47c0.32-0.08,0.63-0.17,0.95-0.29
				c3.07-1.08,5.35-3.09,6.8-6.23c0.9-1.84,1.25-3.68,1.25-5.37c0-5.24-3.56-9.31-6.43-11.44l0.06-0.14l0.11-0.19l0.32-0.55
				c0.05-0.1,0.11-0.21,0.17-0.32l0.02-0.05c0.06-0.1,0.13-0.21,0.19-0.3c0.06-0.13,0.14-0.27,0.22-0.4
				c0.03-0.06,0.06-0.13,0.1-0.19c0.11-0.17,0.21-0.36,0.32-0.55c0.1-0.17,0.19-0.35,0.29-0.52l0.06-0.1
				c0.19-0.35,0.4-0.71,0.62-1.11l0.02-0.05c0.13-0.22,0.25-0.43,0.38-0.65l1.03-1.84c0.22-0.41,0.46-0.84,0.7-1.27l0.74-1.31
				c0.33-0.59,0.67-1.19,1.01-1.81l5.64-10.03c0.3-0.54,0.6-1.06,0.9-1.58c0-0.02,0-0.02,0-0.03l0.02-0.02v-0.02
				c0-0.02,0.02-0.03,0.02-0.05v-0.02c3.74-6.62,6.86-12.15,7.07-12.51c2.91-0.52,7.18-2.72,7.18-8.44c0-0.19,0-0.46-0.05-0.74
				c0.3-0.62,3.03-6.37,8.73-8.13c2.93-0.9,4.67-3.06,4.69-5.83v-0.14c0-3.75-2.93-7.57-6.87-9c-6.29-2.17-16.89,1.81-21.42,6.49
				c-3.23-2.55-9.3-5.43-14.78-1.41c-1.85,1.36-2.82,2.96-2.91,4.78v0.22c0,4.51,5.56,9.27,11.01,13.85
				c-4.17,1.93-15.24,6.3-22.97,2.3c-4.82-2.49-7.52-8.09-8.05-16.51c0.3,0,0.7,0.1,0.7,0.1c3.36,0.62,8.73,0.32,12.39-1.98
				c1.85-1.14,2.98-2.69,3.36-4.44c0.11-0.41,0.16-0.81,0.16-1.24c0-4.74-5.07-9.93-9.96-11.69c0.36-0.93,0.76-1.98,0.76-1.98
				c0.13-0.65,0.21-1.31,0.21-1.95c0-4.78-3.58-9.03-8.73-10.03c-5.86-1.09-11.58,2.53-12.75,8c0,0-0.1,1.09-0.19,1.89
				c-5.81-0.46-14.15,2.09-15.24,7.27c-0.1,0.36-0.13,0.76-0.13,1.16c0,5.28,7.25,10.68,12.64,11.66c0,0,0.33,0.11,0.57,0.16
				c-0.02,0.05-0.03,0.24-0.03,0.24c0,1.27-3.01,20.13-23,18.83c-18.03-1.19-23.37-17-26.57-26.47c0,0-0.16-0.52-0.25-0.79
				c4.61,1.7,14.27,4.29,20.97,0.67c3.75-2.11,5.89-5.8,6.38-11.03c0.03-0.67,0.03-1.24,0.03-1.79c0-4.1-1.3-7.41-3.9-9.93
				c-4.5-4.26-11.29-4.93-14.7-5.02c1.3-2.79,3.53-8.43,3.53-14.02c0-2.88-0.55-5.62-2.08-8.03c-2.76-4.28-8.11-6.46-15.84-6.53
				c-8.06,0.06-13.37,2.25-16.14,6.53c-1.54,2.41-2.11,5.15-2.11,8.03c0,5.59,2.23,11.23,3.52,14.02c-3.41,0.1-10.2,0.76-14.62,5.02
				c-2.66,2.52-3.98,5.83-3.98,9.93c0,0.55,0.02,1.12,0.11,1.79c0.44,5.23,2.57,8.92,6.37,11.03c6.67,3.63,16.32,1.03,20.94-0.67
				c-0.1,0.27-0.27,0.79-0.27,0.79c-3.18,9.47-8.55,25.28-26.57,26.47c-19.99,1.3-22.92-17.57-23.05-18.39v-0.13
				c0-0.16-0.02-0.36-0.03-0.51c0.3-0.1,0.65-0.21,0.65-0.21c5.39-0.98,12.61-6.38,12.61-11.66c0-0.4-0.02-0.79-0.11-1.16
				c-1.09-5.18-9.43-7.73-15.26-7.27c-0.06-0.79-0.19-1.89-0.19-1.89c-0.55-2.66-2.15-4.91-4.56-6.46
				c-2.44-1.47-5.34-2.03-8.21-1.54c-5.13,0.95-8.68,5.24-8.68,10.03c0,0.63,0.08,1.3,0.21,1.95c0,0,0.44,1.09,0.76,1.98
				c-4.91,1.76-9.96,6.95-9.96,11.64c0,0.43,0.03,0.87,0.13,1.28c0.36,1.74,1.55,3.29,3.37,4.44c3.6,2.3,8.98,2.6,12.47,1.98
				c0,0,0.4-0.1,0.73-0.1c-0.54,8.27-3.23,13.97-8.16,16.51c-7.67,4.01-18.82-0.36-23-2.3c5.51-4.58,11.01-9.33,11.01-13.85v-0.22
				c-0.06-1.82-1.01-3.42-2.88-4.78c-5.48-4.02-11.55-1.14-14.78,1.41c-4.55-4.74-15.11-8.67-21.4-6.49c-3.98,1.43-6.95,5.24-6.95,9
				v0.14C108.91,85.33,110.67,87.45,113.63,88.35z M140.46,119.89h0.02c4.21,1.27,14.18,4.31,16.21,4.91
				c-0.81,1.82-4.31,10.23-5.73,13.7c0,0.02-0.02,0.02-0.02,0.02C148.99,135.09,142.59,123.7,140.46,119.89z M333.71,124.44
				l6.19,14.94c-14.95-4.86-96.71-28.78-186.48,0.1l6.27-15.03c0.14-0.3,0.14-0.65-0.02-1c-0.17-0.29-0.46-0.55-0.81-0.65
				l-16.82-5.1c18.82-5.69,106.17-28.37,208.94,0.11l-16.49,4.99c-0.36,0.1-0.62,0.35-0.76,0.65
				C333.58,123.78,333.55,124.14,333.71,124.44z M116.61,166.89h35.8v15.79c-2.15,0-31.71,0.06-35.52,0.06h-0.29V166.89z
				 M116.78,305.2c0.02-5.23,0.02-10.55,0.02-15.92h35.58c0,5.32,0,10.63-0.02,15.86C149.94,305.14,120.05,305.2,116.78,305.2z
				 M152.36,307.82v15.86h-9.06v-15.86H152.36z M140.84,307.82v15.86h-24.08c0.02-5.15,0.02-10.44,0.02-15.86H140.84z M116.8,287.02
				c0.03-29.72,0.06-60.45,0.08-83.53h35.56c-0.02,22.83-0.05,53.51-0.06,83.48L116.8,287.02z M116.61,185.35h35.8v15.83
				c-2.15,0-31.79,0.06-35.53,0.06h-0.27V185.35z M231.08,467.49c-11.56-7.52-30.05-15.33-56.57-17.74
				c-53.64-4.67-57.9-46.11-57.9-59.17c0-2.17,0.11-3.52,0.11-3.88c0-0.05,0.02-26.34,0.05-60.77h35.6
				c-0.03,37.19-0.05,66.2-0.05,66.2c0,22.29,15.48,23.13,15.62,23.18c48.95,6.64,71.35,20.59,75.48,23.49L231.08,467.49z
				 M335.42,167.21V183v11.88c-0.02,3.07-0.02,5.32-0.02,5.91h-0.02c-2.99,0-177.04-0.16-180.24-0.16h-0.02
				c0-2.3,0.02-31.27,0.03-33.54c0.02,0,0.02,0,0.02,0C158.14,167.1,332.33,167.21,335.42,167.21z M161.36,164.55
				c2.93-0.63,5.04-1.57,5.21-1.63c41.74-13.07,76.18-12.58,79.93-12.44c4.18-0.14,38.54-0.63,80.49,12.48
				c0.11,0.05,2.46,1.08,5.66,1.71L161.36,164.55z M335.39,203.3l-0.14,164.32c-7.57-13.8-86.7-158.32-90.02-164.38L335.39,203.3z
				 M155.15,203.15l86.94,0.06c-3.22,6.11-81.41,153.58-87.11,164.35L155.15,203.15z M243.67,203.8
				c1.41,2.61,84.05,153.66,91.58,167.39l-0.02,21.08c0,19.72-12.63,20.55-13.15,20.59c-15.22,2.01-28.02,4.78-38.57,7.75v-14.81
				v-1.25l0.02-6.34v-30.4h0.03v0.01h0.01v-8.78h0v0v-6.38h0.02v-1.25v-7.57l0.05-7.62h-27.28c1.12-0.63,2.15-1.35,3.06-2.15
				c0.54,0.17,4.69,1.62,4.69,1.62c6.49,0.74,11.68-0.49,15.49-3.6c6.61-5.24,7-14.07,7-14.37l-1.33-0.19
				c-1.6,6.34-6.45,8.32-9.46,9.06c6.4-4.42,8.87-10.95,8.87-16.95c0-1.65-0.21-3.12-0.46-4.63c-0.32-1.25-0.38-2.61-0.38-4.04
				c0-6.35,2.27-13.01,2.33-13.1l-1.17-0.6l-1.11,1c-2.15,1.7-4.56,3.64-4.61,14.54c-0.05,7.79-3.17,11.91-5.51,13.99
				c1.71-2.71,3.04-5.32,3.04-10.66c0-1.57-0.08-3.37-0.33-5.47c-0.14-1.39-0.29-2.8-0.29-4.13c0-9.38,3.53-17.35,3.55-17.47
				l-1.19-0.57c-5.07,7.27-5.42,9.11-6.48,16.13l-0.65,4.02c-1.09,6.32-2.98,9.52-4.31,11.15c0.4-1.85,0.79-3.74,0.79-5.34
				c0-8.84-5.15-12.55-5.42-12.75l-1.98-1.38l0.93,2.12c1.36,2.98,1.87,5.91,1.87,8.63c0,4.37-1.39,8.06-2.53,10.53
				c-0.19-1.27-0.48-2.58-0.48-2.58c0.44-1.87,0.6-3.03,0.6-3.79c0-0.87-0.17-1.19-0.62-1.38c-0.74-0.35-1.46,0.38-2.42,1.46
				c-0.62,0.59-1.36,1.3-2,1.68c3.42-3.9,4.26-9.31,4.26-13.27c0-2.72-0.35-4.66-0.36-4.89l-1.35,0.13v0.6
				c0,5.23-2.01,7.98-3.66,9.54c1.82-3.49,2.8-7.26,2.8-10.95c0-3.83-0.71-7.56-1.82-10.47c-1.88-5.21-2.08-12.75-2.08-15.49
				c0-0.65,0.03-1.06,0.03-1.06l-1.28-0.22l-0.55,1.24c-0.62,1.2-1.27,2.61-1.27,5.59c0,2.04,0.32,4.83,1.12,8.95
				c0.52,2.41,0.74,4.61,0.74,6.49c0,2.41-0.4,4.18-0.82,5.78c0.13-0.9,0.32-1.65,0.32-2.65c0-2.63-0.46-5.83-1.93-10.76
				c-1.85-6.29-2.2-12.97-2.2-17.09c0-2.41,0.11-3.94,0.11-3.94l-1.36-0.16c-1.06,4.69-1.43,7.27-1.43,9.93
				c0,1.9,0.19,3.88,0.46,6.73l0.36,3.8c0.14,1.73,0.22,3.25,0.22,4.61c0,2.2-0.19,3.74-0.4,5.04c-1.25-10.93-6.18-13.67-6.42-13.77
				l-2.04-1.09l1.14,1.95c2.79,4.74,3.5,10.08,3.5,14.24c0,1.66-0.14,3.15-0.29,4.32c-0.08,0.71-0.1,1.46-0.1,2.17
				c0,2.19,0.3,4.28,0.68,5.99c-0.59-1.6-0.74-3.2-0.74-3.2c-1.24-10.8-5.24-14.07-5.4-14.16l-2.01-1.6l0.89,2.17l0.89,2.12
				c0.6,0.84,1.35,1.92,1.54,11.5c0,0,0.22,2.66,0.43,4.47c-2.12-1.76-4.15-2.47-4.29-2.47l-2.2-0.74l1.46,1.73
				c2.79,3.22,4.53,5.66,5.16,8.81l-0.05,0.98l0.19,4.26c0,0-0.03,0.33-0.06,0.84c-0.33-2.11-1.06-4.29-2.25-6.43
				c-2.38-7.87-6.95-10.46-7.19-10.53c0,0-1.03-0.6-1.57-0.89c-2.8-4.74-4.34-9.6-4.39-9.71l-1.31,0.11l-0.36,1.38
				c-0.25,0.87-0.51,1.73-0.51,2.91c0,2.23,1.06,5.59,5.31,11.63c1.57,2.15,2.53,4.26,3.23,6.43c-0.11-0.08-0.4-0.32-0.4-0.32
				l-1.01,0.68l1.35,2.28l1.01,1.36c0.02,0.29,0.02,0.6,0.02,0.89c0,1.12-0.24,1.85-0.44,2.65c-0.3-3.88-1.09-7.45-7.35-14.32
				c-7.62-8.46-10.06-19.47-10.06-19.61l-1.38,0.14c0.06,8.68,0.93,10.42,4.2,16.78l1.85,3.71c2.61,5.24,3.22,8.89,3.22,11.06
				c0,0.19-0.03,0.21-0.03,0.36c-5.48-11.83-14.26-12.44-14.65-12.47l-2.49-0.11l2.11,1.3c7.87,4.83,10.25,12.56,10.93,16.74
				c0.63,3.69,3.01,7.08,4.69,9.08c-2.58-1.3-3.91-3.96-3.94-4.01c-5.47-10.09-12.28-11.48-12.55-11.58l-2.44-0.44l1.66,1.44
				l2.03,1.77c1.12,0.54,2.53,1.2,6.08,10.47c2.15,5.62,4.91,8.74,7.49,10.46h-11.61v22.81h-0.02v16.38l-0.03,7.67h0.03v7.52
				l-0.03,6.34v8.22l-0.02,6.97v8.6c-10.65-3.03-23.59-5.89-39.02-8c-0.67-0.05-13.24-0.84-13.24-20.48l0.02-21.08
				C160.58,360.57,242.23,206.45,243.67,203.8z M223.08,329.11c-0.02-0.06-5.01-5.12-5.88-10.3c-0.67-3.93-3.01-10.82-9.41-15.84
				c3.14,1,8.41,4.04,11.88,13.07l0.59,1.58l0.68-1.54c0.03-0.1,0.4-1.05,0.4-2.9c0-2.34-0.62-6.15-3.3-11.61l-1.87-3.71
				c-2.36-4.61-3.47-6.73-3.88-11.04c1.52,4.13,4.25,10.01,8.86,15.1c6.7,7.43,6.91,10.53,7.16,15l0.3,4.02l1.09-1.71
				c0.06-0.11,1.58-2.44,1.58-6.4c0-0.41,0-0.81-0.03-1.22c-0.05-0.06-0.22-0.32-0.33-0.51c0.14,0.08,0.36,0.27,0.36,0.27l-0.3-1.74
				c-0.55-2.9-1.93-5.92-4.07-8.92c-4.09-5.78-5.05-8.87-5.05-10.95c0-0.67,0.14-1.17,0.27-1.66c1.24,3.29,3.91,9.49,8.11,13.51
				l1.54,1.46l-0.36-2c-0.06-0.36-0.21-0.49-0.22-0.71c1.17,1.5,2.41,3.53,3.37,6.67c1.52,2.76,2.39,5.47,2.58,8.24
				c0.13,0.25,0.93,1.2,0.93,1.2l1.11,1.35l0.06-1.66l0.19-4.13c-0.03-0.14-0.14-4.13-0.14-4.13l0.03-1.12
				c-0.54-2.66-1.95-4.89-3.75-7.24c0.82,0.46,1.71,1.14,2.6,2.09l1.36,1.46l-0.74-7.98c-0.06-3.83-0.29-6.08-0.51-7.78
				c0.81,1.96,1.47,4.37,1.87,7.83c0,0.21,0.33,5.18,3.33,7.13l1.65,1.09l-0.6-1.84c-0.03-0.05-1.6-4.69-1.6-9.27
				c0-0.67,0.03-1.3,0.06-1.93c0.17-1.22,0.32-2.76,0.32-4.48c0-3.56-0.81-7.89-2.65-12.09c1.71,2.15,3.87,6.49,4.02,14.72
				l0.08,2.34l1.19-2.01c0.1-0.16,1.58-2.69,1.58-9.31c0-1.41-0.05-2.98-0.22-4.77l-0.36-3.8c-0.32-2.84-0.49-4.72-0.49-6.57
				c0-0.67,0.14-1.39,0.17-2.09c0.21,3.99,0.62,8.78,2.04,13.61c1.44,4.78,1.95,7.92,1.95,10.41c0,2.01-0.33,3.69-0.7,5.54
				l-0.78,4.29l1.65-1.9c0.13-0.21,2.96-3.63,2.96-10.98c0-1.93-0.19-4.23-0.73-6.76c-0.81-4.04-1.09-6.8-1.09-8.68
				c0-1.49,0.19-2.53,0.41-3.34c0.1,3.61,0.51,9.27,2.08,13.67c1.08,2.82,1.81,6.35,1.81,10.04c0,4.34-1.03,8.9-3.77,12.64
				l-1.27,1.77l2.15-0.79c0,0,3.42-1.5,5.26-6.04c-0.24,3.88-1.28,8.51-4.63,11.47l-0.79,0.68l0.79,0.27l1.35,0.48
				c1.25-0.11,2.44-1.38,3.48-2.5c0,0,0.4-0.32,0.73-0.57c-0.02,0.54-0.16,1.47-0.54,3.5c0,0.29,0.74,4.44,0.74,4.44l0.19,1.33
				l0.97-0.95l0.6-0.65c0.06-0.14,0.27-0.55,0.27-0.55c1.28-2.53,2.85-6.76,2.85-11.6c0-1.98-0.36-4.02-1-6.15
				c1.38,1.81,2.87,4.78,2.87,9.52c0,2.11-0.27,4.53-1.01,7.24l-0.44,1.63l1.46-0.93c0.22-0.11,4.45-2.95,6.23-13.53l0.65-4.07
				c0.81-5.04,1.16-7.38,3.37-11.17c-0.95,3.28-1.92,7.78-1.92,12.83c0,1.41,0.11,2.87,0.27,4.34c0.25,2.08,0.36,3.85,0.36,5.34
				c0,5.51-1.49,7.81-3.34,10.79l-2.14,3.45l1.92-0.76c0.35-0.16,8.65-3.8,8.73-16.81c0.05-9.25,1.82-11.56,3.58-13.05
				c-0.73,2.49-1.76,6.78-1.76,11.17c0,1.47,0.1,2.95,0.41,4.36c0.27,1.35,0.41,2.8,0.41,4.36c0,6.26-2.6,13.42-10.3,17.36
				l0.32,1.19c0,0,6.99-0.25,10.96-5.64c-0.86,2.69-2.46,6.13-5.54,8.59c-3.53,2.84-8.4,4.01-14.3,3.33c0-0.03-4.85-1.71-4.85-1.71
				l-0.4-0.11l-0.33,0.25c-1.47,1.38-3.31,2.49-5.47,3.31c-1.38,0.54-2.9,0.97-4.55,1.27c-1.38,0-2.39-0.02-2.66-0.02v0.02
				c0,0,0,0-0.02,0c-0.41-0.03-0.89-0.06-1.35-0.1c-1.57-0.11-3.14-0.22-3.14-0.22s-1.14-0.13-2.61-0.95
				c-0.87-0.49-1.85-1.24-2.77-2.33l-0.33-0.4l-3.64,1.98c0,0-1.66,0.38-3.25,0.74c-0.59,0.13-1.17,0.27-1.66,0.38
				c-0.7,0.16-1.19,0.27-1.19,0.29c-0.03,0-0.08,0.02-0.16,0.02c-0.51,0.06-2.2,0.17-4.36-0.68c-2.8-1.14-6.37-3.96-9.03-10.9
				c-1.79-4.85-3.09-7.43-4.17-8.9c2.12,1.62,4.63,3.98,6.88,8.21c0.09,0.19,2.31,4.97,7.16,5.58l1.88,0.19L223.08,329.11z
				 M255.61,351.36v-6.29l7.92,0.02h1.35h5.29h2.84v6.32C271.8,351.41,256.83,351.36,255.61,351.36z M264.85,360.25h8.13v6.3h-8.13
				V360.25z M264.04,396.97c0.02-0.33,0.05-0.65,0.05-0.95c0-2.06-0.25-3.82-0.62-5.34h0c0,0,0,0,0,0h1.3l-0.45,0h0.45h2.14
				c-0.4,2.61-0.9,4.67-1.46,6.29H264.04z M264.99,398.22c-0.08,0.17-0.14,0.36-0.22,0.52v-0.52H264.99z M264.79,389.35v-6.29h3.18
				c-0.14,0.97-0.29,2.01-0.43,3.25l-0.44,3.06C265.91,389.37,265.04,389.35,264.79,389.35z M255.57,381.78v-6.32h7.86h1.38h5.32
				c-1.05,2.23-1.57,4.02-1.95,6.32H255.57z M253.52,374.19c-0.25-2.52-0.3-4.69-0.3-5.92v-0.4h1.01v0h1.33v0h0l7.86,0.02v6.3
				H253.52z M254.24,375.46v3.42c-0.25-1.14-0.43-2.31-0.57-3.42H254.24z M249.78,386.31c-0.3-1.05-0.55-2.06-0.95-3.25h1.14
				c-0.14,0.68-0.24,1.5-0.24,2.55C249.74,385.8,249.78,386.1,249.78,386.31z M248.37,381.76c-1.31-3.45-2-5.31-2.44-6.3h0.16h3.69
				c0.11,1.52,0.4,3.39,0.92,5.73c-0.11,0.17-0.21,0.36-0.3,0.59C249.77,381.78,249.09,381.78,248.37,381.76z M235.5,374.19
				l-8.16-0.02v-6.3h8.17h1.31h7.89v6.32H235.5z M244.52,375.57c-0.02,0-0.13,0.32-0.25,0.52c-0.03-0.24-0.06-0.44-0.11-0.63h0.32
				C244.49,375.51,244.51,375.52,244.52,375.57z M243.13,378.04c-0.27,1.28-0.44,2.52-0.49,3.72c-1.09,0-2.12,0-2.99-0.02
				c-0.97-1.49-1.96-2.53-2.82-3.26v-3.03v-0.02h5.83v0.02c-0.02,0.08-0.03,0.29-0.03,0.59
				C242.62,376.68,242.78,377.39,243.13,378.04z M242.66,383.06c0.06,1.66,0.27,3.49,0.6,5.96l0.03,0.33h-0.67
				c-0.54-2.58-1.33-4.64-2.22-6.29H242.66z M243.43,390.63l0.11,0.92c-0.11,0.59-0.24,0.89-0.38,1.3c-0.06-0.78-0.17-1.5-0.29-2.22
				H243.43z M235.53,389.35l-0.79-0.7l-2.01-0.76l1.08,1.46h-1.44c-1.03-1.16-1.81-1.65-1.9-1.7c0,0-0.76-0.51-1.31-0.86
				c-0.63-1.27-1.19-2.55-1.68-3.74h9.27c0.84,2.15,1.3,4.31,1.54,6.29H235.53z M238.38,390.62c0.02,0.02,0.02,0.02,0.02,0.02
				c0.03,0.48,0.05,0.92,0.06,1.36l-1.5-1.36l-0.03-0.02H238.38z M235.46,391.95v2.66c-0.67-1.65-1.41-2.96-2.11-3.98h1.3
				C234.94,391.08,235.23,391.51,235.46,391.95z M230.95,404.49c-0.21-1.35-0.57-2.72-1.27-4.32c0,0-0.05-0.08-0.11-0.22
				c-0.02-0.03-0.03-0.06-0.03-0.1c-0.22-0.44-0.62-1.25-0.84-1.65h1.44c0.1,0.35,1.39,5.23,1.39,5.23v1.06H230.95z M231.39,405.81
				c-0.06,0.25-0.11,0.51-0.19,0.79c-0.02-0.27-0.05-0.54-0.08-0.79H231.39z M227.97,396.97c-0.79-1.27-1.74-2.65-2.95-4.21
				c-0.55-0.7-1.05-1.43-1.54-2.15c1.01,0,2.08,0.02,3.14,0.02c0.4,0.71,0.84,1.46,1.33,2.27c0.84,1.41,1.36,2.74,1.81,4.09H227.97z
				 M225.94,389.35c-0.3,0-1.57-0.02-3.26-0.02c-1.28-2.11-2.34-4.26-3.18-6.27h4.07c0.29,1.55,0.98,3.56,2.38,6.27V389.35z
				 M223.85,378.53c-0.19,0.84-0.44,1.71-0.44,2.84c0,0.11,0.02,0.24,0.02,0.36h-4.47c-0.32-0.79-0.6-1.55-0.84-2.28
				c0-1.55,0.02-3.39,0.02-4.02l7.86,0.02v0.02h9.5v2.04c-0.41-0.24-0.68-0.36-0.73-0.38l-2.04-0.84l1.22,1.7
				c0.6,0.79,1.09,1.6,1.54,2.42v1.33h-8.14h-0.38c-1-2.65-1.54-4.64-1.54-4.69l-1.31,0.08L223.85,378.53z M225.99,366.56
				c-0.54,0-4.1,0-7.86-0.02v-3.09l0.02-3.2h7.84V366.56z M238.71,337.46c1.54,0.81,2.74,0.95,2.8,0.95l3.28,0.24v5.13h-17.44
				l0.02-3.17l0.02-2.69l1.95-0.46H238.71z M233.64,336.2c0.65-0.36,1.49-0.84,2-1.09c0.38,0.41,0.78,0.76,1.17,1.09H233.64z
				 M235.5,345.04v6.32h-9.47l-7.87-0.02l0.02-6.3H235.5z M227.34,360.25h8.16v6.3h-8.16V360.25z M236.87,366.56
				c0-1.01,0.03-5.31,0.03-6.3h7.86v6.3H236.87z M235.5,358.95h-8.16v-6.3h17.43v6.3H235.5z M236.9,351.36v-6.32h9.24l8.16,0.03
				v6.29h-8.19H236.9z M255.6,358.95L255.6,358.95l-1.29,0v0h-8.2v-6.3c1.22,0,16.11,0.03,17.41,0.03v0.98
				c0,0.43-0.02,0.97-0.02,1.5c0,0.67,0,1.35-0.02,1.98l-0.02,1.81H255.6z M263.47,360.26v6.3h-7.86v-6.3H263.47z M250.96,393.58
				c0.09,0.44,0.09,0.76,0.24,1.25l0.17,0.76c-0.19,0.55-0.41,0.97-0.65,1.38h-0.24C250.72,395.91,250.91,394.82,250.96,393.58z
				 M249.74,374v0.19h-3.64v-6.32h5.42l-0.17,0.3C250.58,369.47,249.74,370.9,249.74,374z M246.09,366.56v-6.3h8.14v0.01v6.3H246.09
				z M258.1,398.22h1.33c-0.41,1.85-0.95,3.45-1.44,4.74c-0.22-1.16-0.4-2.36-0.4-2.36C257.82,399.84,257.97,399.03,258.1,398.22z
				 M255.91,384.31c-0.17-0.41-0.35-0.82-0.51-1.25h2.69l0.35,0.97c0.71,1.82,1.12,3.6,1.36,5.32h-2.15
				C257.26,387.64,256.69,385.93,255.91,384.31z M258.24,396.97c0.06-0.65,0.1-1.3,0.1-1.95c0-1.43-0.16-2.88-0.43-4.36h2.06
				c0.05,0.65,0.08,1.3,0.08,1.93c0,1.55-0.14,3.03-0.38,4.37H258.24z M259.49,383.36l-0.4-0.3h4.32v6.29h-0.32
				C261.81,385.31,259.64,383.51,259.49,383.36z M263.53,343.81l-7.94-0.03h-1.28h-4.72h-3.44v-5.02l1.85,0.14
				c2.06-0.3,3.91-0.79,5.59-1.43c4.4,0.02,9.24,0.02,9.93,0.02V343.81z M226.04,338.17c0,1.12,0,3.04-0.02,4.37v1.24h-17.39v-6.32
				h12.72C223.47,338.28,225.25,338.25,226.04,338.17z M216.8,345.04c0,0.43,0,1.47-0.02,2.58v3.72l-8.05-0.03h-0.1v-6.27H216.8z
				 M226.02,352.65c0,0.32-0.02,1-0.02,1.79l-0.02,2.63c-0.02,0.84-0.02,1.55-0.02,1.9H208.6v-6.32H226.02z M216.72,360.25v6.29
				c-3.85-0.02-7.54-0.02-8.11-0.02v-6.27H216.72z M216.72,367.87h1.39h7.87v6.29l-7.87-0.02h-1.39h-0.16
				c-0.14-0.65-0.22-1.03-0.22-1.05l-1.24,0.1c0,0.33,0.02,0.63,0.02,0.95h-4.28h-2.25v-6.27H216.72z M223.01,404.94
				c-0.06-0.16-0.14-0.29-0.21-0.44c-1.11-2.65-2.36-4.72-3.63-6.3h2.74c0.81,2.74,1.06,4.83,1.08,6.3c0,0.1,0.02,0.21,0.02,0.3
				V404.94z M223.6,405.79c-0.1,1.08-0.29,1.6-0.29,1.6c-0.17-0.55-0.38-1.08-0.57-1.6H223.6z M218.12,396.95h-0.02v-6.37
				c0.14,0,0.46,0,0.87,0.02l1.33,3.01c0.49,1.2,0.9,2.31,1.24,3.34H218.12z M208.6,389.32v-6.26h7.46c0.51,1.9,1.27,3.71,2.36,6.26
				H208.6z M210.51,392.69l-1.92-0.05v-2.06h8.13v5.05C213.51,392.93,210.72,392.69,210.51,392.69z M213.62,396.94h-3.61
				c-0.65-0.02-1.17-0.02-1.41-0.02v-4.21l1.54,1.06C211.48,394.72,212.62,395.8,213.62,396.94z M215.16,375.41
				c0.08,2.68,0.25,4.63,0.59,6.32h-7.16v-6.34L215.16,375.41z M214.62,398.17c1.52,2.06,2.6,4.25,3.34,6.32h-7.57
				c-0.54-0.24-0.9-0.33-0.95-0.36l-0.86-0.19v-5.77H214.62z M216.72,405.78v4.04c-1.47-1.92-2.91-3.2-4.1-4.04H216.72z
				 M209.48,405.76l0.97,1.01c0.76,0.4,1.65,0.92,3.39,5.34h-5.26v-6.35H209.48z M214.3,413.37c0.41,1.09,0.86,2.38,1.35,3.9
				c0.29,0.87,0.57,1.68,0.89,2.42h-7.97v-6.32H214.3z M217.07,420.94c0.63,1.38,1.3,2.55,1.98,3.53
				c-3.36-1.19-7.03-2.36-11.06-3.53H217.07z M218.47,420.94c-0.17-0.38-0.36-0.81-0.55-1.25c-0.36-0.86-0.71-1.77-1.06-2.8
				c-0.43-1.35-0.82-2.5-1.2-3.52c-0.16-0.44-0.32-0.87-0.46-1.25c-0.74-1.89-1.36-3.17-1.88-4.09c1.08,1,2.25,2.25,3.42,3.98
				c0.02,0.03,0.05,0.06,0.08,0.11c0.25,0.4,0.52,0.81,0.79,1.25c0.49,0.82,0.97,1.73,1.46,2.76c0.05,0.11,0.81,2.03,2.38,3.56
				c0.49,0.48,1.05,0.92,1.7,1.25c0.62,0.33,1.3,0.59,2.08,0.68l1.58,0.29l-0.81-0.97h-0.02v-0.02l-0.16-0.19
				c-0.02-0.02-0.33-0.4-0.79-1.05c-0.95-1.28-2.52-3.64-3.5-6.32c-0.14-0.41-0.29-0.84-0.4-1.25c-0.16-0.57-0.3-1.16-0.38-1.73
				c-0.17-1.28-0.54-2.88-1.08-4.59c0-0.02-0.02-0.02-0.02-0.03c-0.13-0.41-0.27-0.84-0.43-1.27c-0.76-2.06-1.84-4.23-3.34-6.32
				c-0.3-0.41-0.62-0.81-0.95-1.22c0,0-0.02,0-0.02-0.02c-0.7-0.82-1.43-1.65-2.28-2.41c1.06,0.41,2.41,1.14,3.82,2.41l0.03,0.03
				l0.25,0.24c0.02,0.02,0.05,0.03,0.06,0.06c0.3,0.27,0.59,0.57,0.89,0.9c1.35,1.5,2.71,3.55,3.91,6.32
				c0.17,0.41,0.35,0.84,0.51,1.28l0.02,0.02c0.22,0.57,0.43,1.16,0.63,1.79l0.57,1.76l0.6-1.76c0.05-0.08,0.24-0.67,0.3-1.79v-0.02
				c0.03-0.3,0.05-0.62,0.05-0.98c0-0.1-0.02-0.21-0.02-0.3c-0.02-1.52-0.27-3.61-1.03-6.3c0,0,0,0,0-0.02
				c-0.11-0.4-0.22-0.78-0.35-1.2c0,0-0.02,0-0.02-0.02c-0.36-1.14-0.82-2.39-1.39-3.74l-1.14-2.61v-0.02l-0.44-1.03
				c-0.03-0.08-0.06-0.13-0.09-0.21c0,0,0-0.02-0.02-0.03c-1.12-2.57-1.9-4.39-2.41-6.26c-0.13-0.44-0.22-0.89-0.32-1.33
				c-0.13-0.63-0.24-1.28-0.32-2c-0.05-0.33-0.08-0.65-0.11-1c0.03,0.11,0.08,0.22,0.11,0.33c0.27,0.84,0.57,1.73,0.92,2.66
				c0.14,0.38,0.3,0.76,0.46,1.16c0.03,0.06,0.05,0.11,0.06,0.17c0.82,2,1.84,4.15,3.09,6.26c0,0.02,0,0.03,0.02,0.03
				c0.24,0.43,0.51,0.82,0.76,1.24c0,0.02,0,0.02,0,0.02c0.62,0.97,1.27,1.92,1.98,2.84c1,1.3,1.82,2.46,2.5,3.53
				c0.29,0.43,0.54,0.84,0.78,1.24c0.02,0.03,0.03,0.06,0.05,0.1c1.44,2.46,2.09,4.37,2.42,6.19c0.08,0.44,0.13,0.87,0.17,1.3
				c0,0,0,0,0,0.02c0.09,0.86,0.14,1.71,0.19,2.63l0.22,3.68l0.03,0.48l0.27-0.48l0.76-1.38c0.06-0.11,1.05-1.88,1.3-4.93
				c0,0,0,0,0-0.02c0.03-0.4,0.05-0.84,0.06-1.28v-0.11c0-0.44-0.03-1.44-0.03-1.44l-0.21-1.7c-0.17-1.01-0.44-2.03-0.78-3.06
				l-0.02-0.02c-0.13-0.41-0.25-0.81-0.41-1.22c-0.59-1.52-1.35-3.07-2.28-4.64c-0.36-0.6-0.68-1.16-1-1.71c0,0,0-0.02-0.02-0.02
				c-0.24-0.44-0.46-0.84-0.67-1.25c-0.02,0-0.02-0.02-0.03-0.03c-0.55-1.05-1.01-2-1.36-2.84c0,0,0,0-0.02,0
				c-0.57-1.36-0.93-2.49-1.11-3.42c-0.1-0.49-0.14-0.93-0.16-1.33c0-0.13-0.02-0.25-0.02-0.36c0-0.6,0.16-1.08,0.24-1.57
				c0.17,0.57,0.41,1.24,0.65,1.93c0.14,0.36,0.27,0.73,0.43,1.12c0.02,0.06,0.05,0.14,0.08,0.21c0.36,0.95,0.79,1.96,1.27,3.01
				c0.52,1.09,1.11,2.2,1.74,3.28c0.25,0.43,0.52,0.84,0.79,1.25c0.02,0,0.02,0.02,0.02,0.02c0.59,0.89,1.22,1.74,1.9,2.49
				l1.09-0.48c0,0-0.25-0.55-0.41-0.95c0.86,1.3,1.77,2.95,2.52,5.29c0.13,0.4,0.25,0.79,0.36,1.24c0,0,0,0,0,0.02
				c0.03,0.11,0.06,0.21,0.1,0.32c0.97,2,1.63,3.98,1.98,5.96c0,0.02,0.02,0.03,0.02,0.03c0.03,0.21,0.06,0.41,0.08,0.6
				c0.03,0.24,0.05,0.46,0.08,0.68c0.03,0.33,0.09,0.67,0.11,1.01c0.05,0.25,0.78,1.16,0.78,1.16l1.05,1.44l0.05-1.71l0.08-1.9
				l0.03-0.68l0.02-0.59v-0.03l0.05-0.97c-0.03-0.1-0.43-4.44-0.43-4.44c-0.06-0.3-0.14-0.59-0.22-0.89v-0.02
				c-0.1-0.41-0.19-0.84-0.3-1.24c-0.51-1.73-1.19-3.33-2-4.83v-0.03c-0.08-0.14-0.14-0.29-0.22-0.43c0.08,0.06,0.14,0.14,0.22,0.21
				v0.02c0.59,0.52,1.19,1.06,1.76,1.98l1.11,1.65l0.08-1.95v-0.89c0-0.65-0.03-1.35-0.1-2.06c0,0,0,0,0-0.02
				c-0.03-0.41-0.08-0.82-0.13-1.27c-0.25-1.96-0.73-4.1-1.57-6.29c-0.16-0.44-0.33-0.87-0.54-1.31c0,0,0,0,0-0.02
				c-0.19-0.4-0.4-0.81-0.6-1.22v-0.02c-0.11-0.22-0.21-0.44-0.33-0.67l0.33,0.33c0.43,0.44,0.89,0.97,1.35,1.58c0,0,0,0,0,0.02
				c0.29,0.38,0.57,0.82,0.86,1.3c0.93,1.58,1.81,3.64,2.39,6.29c0.09,0.41,0.17,0.84,0.25,1.28c0.25,1.46,0.43,3.06,0.48,4.83
				l0.02,1.5v0.27l0.21-0.27l0.9-1.19c0.05-0.05,0.97-1.25,1.52-4.2c0-0.08-0.05-0.47-0.09-0.95h0c0,0,0,0,0,0h0c0,0,0,0,0,0v-0.05
				c-0.05-0.43-0.11-0.89-0.14-1.24c-0.03-0.3-0.06-0.52-0.06-0.52c-0.3-2.41-0.52-4.13-0.6-5.77c-0.02-0.35-0.02-0.68-0.02-1.01
				v-0.29c0.05-1.05,0.27-2.19,0.44-3.33c0.29-0.19,0.55-0.67,0.87-1.39c0.6,1.5,1.43,3.64,1.84,4.72v0.02
				c0.16,0.41,0.27,0.68,0.27,0.68c0.08,0.21,0.14,0.4,0.21,0.6c0.92,2.5,1.5,4.56,1.84,6.29c0.08,0.46,0.16,0.89,0.21,1.28
				c0,0.02,0,0.02,0,0.02c0.13,0.92,0.19,1.74,0.19,2.52c0,1.38-0.19,2.6-0.43,3.8c-0.08,0.41-0.16,0.84-0.25,1.25
				c-0.03,0.17-0.06,0.36-0.11,0.54c0,0.29,0.27,1.35,0.27,1.35l0.32,1.31l0.79-1.06c0.38-0.51,0.84-1.24,1.28-2.14
				c0.21-0.38,0.38-0.79,0.57-1.25c0.16-0.41,0.32-0.84,0.46-1.31v-0.06c0-0.25-0.19-1.01-0.19-1.01c-0.4-1.47-0.68-2.77-0.9-3.93
				c0,0,0,0,0-0.02c-0.08-0.44-0.16-0.87-0.22-1.28c-0.24-1.47-0.32-2.71-0.32-3.74c0-1.03,0.09-1.87,0.25-2.55
				c0.11-0.51,0.27-0.92,0.44-1.28c0.06-0.14,0.11-0.29,0.17-0.41c-0.51-2.46-0.74-4.37-0.84-5.91v-0.02
				c-0.02-0.44-0.03-0.87-0.03-1.25c0-2.3,0.47-3.53,1.03-4.53c0,1.2,0.06,2.79,0.22,4.53c0.05,0.41,0.09,0.82,0.14,1.25v0.02
				c0.25,2.04,0.65,4.23,1.28,6.32c0.13,0.43,0.25,0.86,0.41,1.28c0.19,0.55,0.41,1.11,0.65,1.65c0.68,1.5,1.2,3.07,1.6,4.64
				c0,0.02,0,0.02,0,0.02c0.11,0.43,0.19,0.86,0.27,1.27c0,0.02,0.02,0.02,0.02,0.03c0.27,1.47,0.46,2.95,0.46,4.42
				c0,0.63-0.06,1.25-0.13,1.89c-0.03,0.43-0.06,0.84-0.13,1.25c-0.11,0.81-0.25,1.62-0.46,2.38c0,0.24,0.4,2.85,0.57,3.96
				c0.05,0.29,0.08,0.49,0.08,0.49l0.11,0.76l0.1,0.59l0.52-0.59l0.4-0.44l0.48-0.57c0.03-0.06,0.06-0.16,0.11-0.24
				c0.06-0.21,0.13-0.43,0.13-0.43c0.63-1.47,1.35-3.52,1.84-5.91c0.08-0.41,0.16-0.82,0.24-1.25c0.22-1.38,0.36-2.84,0.36-4.37
				c0-0.63-0.05-1.28-0.1-1.92c0-0.02-0.02-0.02-0.02-0.03c-0.03-0.41-0.08-0.84-0.14-1.27c0,0,0-0.02,0-0.03
				c-0.13-0.86-0.3-1.73-0.52-2.6c0.43,0.71,0.86,1.57,1.22,2.6c0,0.02,0.02,0.03,0.02,0.03c0.13,0.4,0.25,0.82,0.38,1.27
				c0,0.02,0,0.02,0,0.03c0.4,1.49,0.65,3.28,0.65,5.45c0,0.27-0.02,0.55-0.03,0.84c0,0.41-0.03,0.82-0.06,1.25
				c-0.11,1.55-0.36,3.23-0.79,5.07l-0.29,1.27l-0.1,0.38l0.51-0.38l0.9-0.7c0.03-0.03,0.21-0.17,0.49-0.46
				c0.33-0.36,0.81-0.95,1.35-1.85c0.49-0.82,1.05-1.92,1.57-3.33c0.16-0.4,0.3-0.81,0.44-1.25c0.54-1.7,1.03-3.77,1.41-6.29
				c0,0,0,0,0-0.02c0.02-0.1,0.03-0.17,0.05-0.27l0.13-0.98l0.02-0.05l0.38-2.98c0.17-1.25,0.33-2.34,0.49-3.33
				c0.06-0.46,0.14-0.89,0.21-1.28c0.43-2.23,0.97-3.99,2.03-6.23c-0.4,1.77-0.79,3.9-1.09,6.23c-0.05,0.41-0.1,0.84-0.14,1.28
				c-0.17,1.6-0.27,3.29-0.27,5.04c0,0.43,0.02,0.86,0.02,1.28c0,0.02,0,0.02,0,0.03c0.02,0.43,0.03,0.84,0.05,1.27
				c0.03,0.54,0.06,1.08,0.13,1.62c0.17,1.77,0.27,3.29,0.3,4.67v1.25c-0.05,2.74-0.4,4.69-0.97,6.34
				c-0.14,0.43-0.32,0.84-0.49,1.25c-0.41,0.93-0.9,1.82-1.43,2.77l-1.82,3.37l1.73-0.86c0.19-0.08,2.8-1.44,4.9-5.29
				c0.19-0.35,0.36-0.71,0.54-1.09c0.03-0.05,0.05-0.11,0.08-0.16c0.74-1.7,1.38-3.79,1.71-6.34c0.06-0.41,0.11-0.82,0.14-1.25
				c0.08-0.84,0.13-1.7,0.13-2.63c0.02-1.36,0.05-2.57,0.11-3.66c0.03-0.44,0.06-0.86,0.1-1.25c0-0.02,0-0.02,0-0.03
				c0.29-3.22,0.84-5.1,1.5-6.34c0.29-0.52,0.57-0.93,0.87-1.28c0.13-0.14,0.24-0.29,0.36-0.41c-0.03,0.13-0.06,0.27-0.1,0.41
				c-0.1,0.38-0.19,0.81-0.3,1.28c-0.38,1.76-0.76,3.96-0.95,6.35v0.02c-0.03,0.41-0.06,0.82-0.08,1.25
				c-0.03,0.6-0.05,1.2-0.05,1.81c0,1.44,0.08,2.93,0.3,4.34c0.02,0.05,0.02,0.1,0.02,0.14c0.08,0.4,0.13,0.82,0.17,1.25
				c0.11,0.97,0.19,1.96,0.19,2.99c0,1.09-0.08,2.22-0.22,3.34c-0.05,0.41-0.13,0.82-0.19,1.25c-0.41,2.17-1.11,4.32-2.22,6.34
				c-0.06,0.11-0.13,0.24-0.21,0.35c-0.17,0.3-0.36,0.62-0.55,0.9c0,0.02,0,0.02-0.02,0.02c-1.33,2.01-3.09,3.8-5.4,5.2l-1.84,1.09
				l-0.02,0.02h2.25c0,0,0.06,0,0.17-0.02c0.93-0.08,5.91-0.74,9.03-5.39c-0.44,1.71-1.19,3.61-2.28,5.39
				c-0.27,0.44-0.55,0.87-0.87,1.28c-0.68,0.89-1.46,1.73-2.38,2.46c-0.65,0.52-1.36,0.97-2.09,1.35c-0.92,0.48-1.92,0.84-2.98,1.08
				c-1.88,0.43-3.98,0.51-6.27,0.21c0-0.05-4.12-1.73-4.12-1.73l-0.41-0.19l-0.3,0.36c-2.2,2.41-5.31,4.04-9.28,4.74
				c0-0.08-5.39-0.49-5.39-0.49s-2.42-0.33-4.48-3.25l-0.41-0.44l-3.15,2.01l-4.55,1.19l-0.62,0.16c-0.22,0.1-3.63,0.76-7.11-3.18
				C220.3,424.19,219.37,422.78,218.47,420.94z M218.29,412.11c-0.06-0.11-0.13-0.19-0.19-0.29v-6.05l0.29,0.02
				c0.55,1.79,0.87,3.45,1.06,4.78c0.08,0.52,0.19,1.03,0.32,1.54H218.29z M220.15,413.37c0.9,2.6,2.34,4.86,3.39,6.32h-0.02
				c-2.15-1.36-3.28-3.93-3.3-3.98c-0.4-0.86-0.81-1.62-1.2-2.34H220.15z M237.81,398.22c0.08,0.33,0.17,0.65,0.24,1
				c0.02,0,0.46,4.47,0.46,4.47s0,0.19-0.02,0.32c-0.33-1.89-0.9-3.87-1.84-5.78h0.16H237.81z M236.81,396.97v-2.08
				c0.25,0.68,0.49,1.36,0.7,2.08H236.81z M275.27,383.06c-0.6,1.36-1.09,3.33-1.35,6.34c-0.9,0-1.81-0.02-2.69-0.02
				c0-0.43-0.03-0.86-0.03-1.28c0-1.74,0.11-3.44,0.29-5.04H275.27z M271.63,381.78c0.32-2.41,0.76-4.56,1.19-6.32h0.16v6.32H271.63
				z M270.79,404.56c0.54-1.66,0.9-3.64,0.93-6.34h1.71c-0.36,2.61-1.05,4.7-1.84,6.34H270.79z M270.93,405.81
				c-0.57,0.95-1.16,1.73-1.7,2.33c0.4-0.76,0.76-1.52,1.09-2.33H270.93z M271.3,390.68h1.66v6.29h-1.24
				c-0.03-1.41-0.14-2.93-0.32-4.74C271.36,391.71,271.33,391.19,271.3,390.68z M282.18,412.15h-2.41c0.29-1.62,0.33-2.74,0.33-2.88
				l-1.25-0.13c-0.25,1.14-0.59,2.14-0.98,3.01h-2.12c1.09-2.01,1.82-4.17,2.25-6.34h4.18V412.15z M282.19,413.41v6.29h-5.07
				c1.22-2.15,1.95-4.42,2.38-6.29H282.19z M277.17,413.41c-1.85,2.99-4.51,4.18-6.37,4.64c1.71-1.35,3.06-2.93,4.15-4.64H277.17z
				 M278.01,396.61c-0.21-1.27-0.32-2.68-0.32-4.07c0-0.62,0.02-1.24,0.06-1.85h4.44v6.29h-4.13
				C278.04,396.86,278.04,396.73,278.01,396.61z M276.32,420.99h5.89c-2.82,0.81-5.47,1.63-7.95,2.46
				C275.05,422.68,275.73,421.86,276.32,420.99z M282.18,404.56h-4.01c0.16-1.14,0.27-2.28,0.27-3.41c0-1.01-0.1-1.98-0.21-2.93
				h3.98C282.21,399.2,282.18,403.56,282.18,404.56z M282,389.43c-0.63,0-2.2,0-4.17-0.02c0.21-2.38,0.59-4.61,0.97-6.35h3.41v6.37
				H282z M279.09,381.78c0.33-1.43,0.6-2.31,0.62-2.34l-1.12-0.6l-0.95,1.05c-0.55,0.52-1.14,1.08-1.68,1.9h-1.62v-6.32h7.87v6.32
				H279.09z M273.13,374.19c0.6-2.2,1.09-3.56,1.09-3.58l-1.12-0.51c-0.97,1.58-1.73,2.9-2.34,4.09h-5.96v-6.29l8.17,0.02h1.36h7.87
				v6.27H273.13z M274.34,366.56v-6.3h7.87v6.3H274.34z M274.34,358.97v-0.02h-9.49c0-0.49,0-1.84,0.02-3.17
				c0-1.33,0.02-2.65,0.02-3.1h9.46h7.94c0,0.93,0,5.32-0.06,6.32L274.34,358.97z M274.34,351.41l0.02-3.17
				c0.02-1.33,0.02-2.65,0.02-3.15h7.9v6.32H274.34z M269.7,343.82l-4.82-0.02v-6.32h17.39v6.34H269.7z M245.14,436.83
				c-1.87-1.43-6.57-4.36-14.38-7.78l3.28-0.87c0.03-0.02,0.27-0.14,0.59-0.35c0.05-0.03,0.11-0.06,0.17-0.11
				c0.17-0.11,0.36-0.22,0.55-0.35c0.38-0.25,0.78-0.51,1.06-0.7c2.38,2.85,4.94,3.25,5.05,3.25l5.53,0.49
				c4.23-0.74,7.41-2.41,9.79-4.83c0.05,0.02,0.13,0.05,0.24,0.09c0.1,0.03,0.21,0.08,0.35,0.13c0.25,0.11,0.59,0.24,0.92,0.38
				c0.24,0.08,0.46,0.17,0.7,0.27c0.11,0.06,0.22,0.11,0.33,0.14c0.33,0.14,0.65,0.27,0.89,0.36c0.08,0.05,0.16,0.08,0.22,0.1
				c0.16,0.06,0.25,0.09,0.3,0.13c0.02,0.02,0.02,0.02,0.02,0.02c0.24,0.02,0.48,0.05,0.7,0.06c0.22,0.03,0.44,0.05,0.68,0.06
				c0.46,0.03,0.9,0.05,1.33,0.06c-2.55,1.03-4.82,2.01-6.84,2.96c-1.9,0.89-3.58,1.74-5.02,2.52c-0.29,0.16-0.57,0.3-0.84,0.46
				c-0.55,0.3-1.06,0.59-1.54,0.86C247.31,435.29,245.97,436.19,245.14,436.83z M254.71,470.46c-3.77,2.84-6.53,5.54-8.33,7.75v-33
				c3.28,7.54,9.6,22.29,10.11,23.38C256.26,468.83,255.6,469.52,254.71,470.46z M315.54,449.91c-26.58,2.3-45.05,10.06-56.58,17.58
				l-12.31-28.48c3.25-2.36,25.27-16.89,75.69-23.63c0,0,15.57-0.79,15.6-23.1c0,0,0.02-29.08,0.05-66.34h35.55
				c-0.03,34.49-0.06,60.88-0.06,60.88c0.03,0.29,0.16,1.65,0.16,3.77C373.63,403.64,369.38,445.17,315.54,449.91z M338,305.14
				c0-5.23,0.02-10.53,0.02-15.86h35.53v15.92C370.6,305.2,341.11,305.14,338,305.14z M373.53,307.82v15.86h-24.17v-15.86H373.53z
				 M346.92,307.82v15.86h-8.93c0.02-5.16,0.02-10.47,0.02-15.86H346.92z M337.84,201.19v-15.84h9.08v15.89
				c-1.66,0-6.86-0.05-8.82-0.05H337.84z M373.57,287.02l-35.55-0.05c0.02-30,0.05-60.69,0.06-83.5h35.55
				C373.61,226.38,373.58,257.19,373.57,287.02z M373.69,201.24h-0.06c-1.63,0-14.4-0.02-24.27-0.03v-15.86h24.33V201.24z
				 M373.68,166.89v15.86c-0.02,0-0.03,0-0.03,0c-2.36,0-31.87-0.06-35.55-0.06h-0.25v-15.79H373.68z M346.67,157.07
				c-1.12,2.41-2.9,4.09-5.23,4.85c-5.8,2.03-13.35-1.27-13.42-1.31c-42.58-13.34-77.37-12.8-81.19-12.64
				c-4.07-0.16-38.92-0.7-81.3,12.59c-0.17,0.1-7.78,3.39-13.56,1.36c-2.36-0.76-4.13-2.44-5.26-4.85
				c-3.15-6.7,1.79-12.25,4.97-14.4c0.02,0,0.02,0,0.03-0.02c95.62-31.86,183.19-2.34,189.68-0.08l0.08,0.05
				C344.72,144.64,349.87,150.26,346.67,157.07z M342.83,137.81l-0.08,0.14c-0.11,0.21-0.22,0.41-0.32,0.57
				c-1.44-3.52-4.93-11.9-5.72-13.72c2.03-0.62,11.99-3.64,16.17-4.89C350.85,123.46,345.12,133.68,342.83,137.81z M116.72,75.79
				c5.43-1.9,15.9,2.22,19.2,6.51l0.92,1.22l1.12-1.05c0.3-0.27,6.7-6.1,12.34-2c1.17,0.87,1.76,1.82,1.81,2.87
				c0.11,3.52-5.48,8.21-10.49,12.42l-2.44,2.06l1.65,0.87c0.63,0.38,16.41,8.74,27.26,3.17c5.99-3.09,9.19-9.68,9.63-19.56v-0.19
				l-0.49-1.89l-3.42,0.44c-3.09,0.6-7.68,0.24-10.53-1.6c-1.24-0.76-1.95-1.7-2.2-2.77c-0.84-3.85,4.8-9.58,9.24-10.53l1.47-0.3
				l-0.65-1.6l-1-2.49c-0.87-4.12,2-8.11,6.42-8.93c2.12-0.46,4.29,0,6.1,1.11c1.82,1.16,3.01,2.8,3.44,4.85l0.33,3.83l1.55,0.19
				c4.53-0.84,12.74,1.22,13.54,5.1c0.82,3.98-5.85,9.05-10.36,9.95l-3.25,0.59l0.57,2.72c-0.08,0.49,3.28,22.4,25.84,20.91
				c19.83-1.28,25.77-18.85,28.99-28.31l2.11-6.04l-2.84,1.2c-0.17,0.06-13.67,5.89-21.26,1.79c-2.91-1.7-4.61-4.72-5.01-9.11
				c-0.38-4.1,0.68-7.37,3.07-9.66c5.12-4.83,14.68-4.29,14.75-4.25l2.39,0.14l-1.09-2.03c-0.03-0.16-7.33-13.77-2.39-21.43
				c2.22-3.49,6.76-5.24,13.51-5.29c7.02,0.05,11.55,1.81,13.8,5.29c4.93,7.67-2.34,21.27-2.41,21.43l-1.09,2.03l2.36-0.14
				c0.16-0.05,9.69-0.59,14.76,4.25c2.44,2.3,3.5,5.56,3.15,9.66c-0.41,4.39-2.11,7.41-5.07,9.11c-7.59,4.1-21.1-1.73-21.21-1.79
				l-2.88-1.2l2.11,6.04c3.25,9.46,9.14,27.02,29.04,28.31c22.54,1.49,25.87-20.42,25.9-20.61c-0.08-0.29,0.22-1.76,0.22-1.76
				l0.27-1.27l-3.23-0.59c-4.5-0.9-11.25-5.97-10.42-9.95c0.89-3.88,9.06-5.94,13.61-5.1l1.54,0.32l0.08-1.95l0.25-2.39
				c0.89-4.1,5.16-6.83,9.52-5.96c4.44,0.82,7.26,4.82,6.43,8.93l-1.63,3.85l1.44,0.54c4.45,0.95,10.06,6.68,9.24,10.53
				c-0.24,1.08-0.97,2.01-2.23,2.77c-2.85,1.84-7.37,2.2-10.42,1.6l-3.41-0.4l-0.51,1.57c0.38,10.34,3.6,16.93,9.54,20.02
				c10.88,5.58,26.63-2.79,27.29-3.17l1.62-0.87l-2.44-2.06c-4.94-4.21-10.61-8.9-10.47-12.42c0.02-1.05,0.65-2,1.82-2.87
				c5.69-4.1,12.04,1.73,12.29,2l1.16,1.05l0.9-1.22c3.29-4.29,13.8-8.41,19.22-6.51c2.88,1.03,5.21,4.04,5.16,6.68
				c-0.03,1.19-0.52,2.69-2.9,3.49c-7.19,2.25-10.31,9.5-10.49,9.81l-0.13,0.27l0.02,0.25c0.63,6.21-4.82,6.97-5.45,7.02l-0.68,0.1
				L355,116.2c-111.17-31.89-205.35-3.72-216.63-0.08l-7.14-12.72l-0.73-0.1c-0.63-0.05-6.08-0.81-5.47-7.02l0.02-0.25l-0.13-0.27
				c-0.13-0.3-3.26-7.56-10.44-9.81c-2.38-0.79-2.87-2.3-2.9-3.49C111.52,79.83,113.8,76.82,116.72,75.79z"/>
		</g>
		<g>
			<path class="st0" d="M341.61,266.79c0.08-0.05,8.05-4.34,11.26-12.48v13.62h5.97l0.02-13.62c3.22,8.16,11.15,12.45,11.28,12.53
				l0.84-1c-5.97-6.84-7.05-13.16-7.16-16.33c0.78-0.38,1.27-0.93,1.27-1.55c0-0.68-0.49-1.22-1.28-1.57
				c-0.08-2.61,0.47-9.68,7.18-17.43l-0.84-0.95c-0.11,0.08-8.05,4.37-11.26,12.51l0.02-12.59h-6.02v12.59
				c-3.2-8.16-11.15-12.48-11.25-12.51l-0.84,0.95c6.76,7.81,7.22,14.95,7.13,17.41c-0.78,0.36-1.28,0.92-1.28,1.58
				c0,0.62,0.51,1.16,1.28,1.5c-0.13,3.23-1.25,9.57-7.16,16.38L341.61,266.79z M357.52,266.65h-3.31c0-0.55,0.02-8.36,0.02-16.7
				l3.3,0.02V266.65z M367.75,263.68c-3.14-2.47-7.73-7.05-8.71-13.7h2.49c0.33,0,0.67-0.03,0.97-0.08
				C362.7,252.77,363.84,257.92,367.75,263.68z M367.83,231.19c-4.53,6.46-5.35,12.21-5.37,14.83c-0.3-0.05-0.6-0.06-0.93-0.06
				l-2.61-0.02C359.56,238.69,364.5,233.73,367.83,231.19z M354.26,229.21h3.28v16.73l-3.3-0.02
				C354.24,237.58,354.26,229.77,354.26,229.21z M361.53,247.18c0.38,0,0.71,0.05,1,0.11c0.27,0.06,0.49,0.14,0.68,0.22
				c0.33,0.17,0.52,0.35,0.52,0.44c0,0.08-0.21,0.25-0.59,0.41c-0.17,0.08-0.41,0.14-0.68,0.19c-0.27,0.06-0.59,0.1-0.93,0.1h-11.28
				c-0.35,0-0.67-0.03-0.93-0.08c-0.27-0.05-0.49-0.13-0.68-0.19c-0.41-0.16-0.63-0.35-0.63-0.43c0-0.1,0.21-0.29,0.57-0.46
				c0.17-0.08,0.41-0.14,0.67-0.21c0.3-0.06,0.63-0.11,1.01-0.11H361.53z M343.97,231.19c3.33,2.57,8.22,7.49,8.82,14.72h-2.55
				c-0.32,0-0.63,0.03-0.92,0.06v-0.16C349.33,243.25,348.46,237.59,343.97,231.19z M349.28,249.85c0.3,0.05,0.63,0.08,0.97,0.08
				l2.42,0.02c-0.98,6.62-5.56,11.22-8.71,13.61C347.92,257.92,349.08,252.83,349.28,249.85z"/>
		</g>
		<g>
			<path class="st0" d="M292.84,249.33v-7.35h8.81v-7.1c0,0-7.4-0.05-8.81-0.05c0-1.54,0.03-22.54,0.03-22.54h-7.64
				c0,0-0.02,21.01-0.02,22.54h-8.81v7.14h8.81v7.35H292.84z M278.17,240.37v-3.9h8.81v-22.51h4.13c0,1.54-0.03,22.51-0.03,22.51
				h8.81v3.9h-8.81v7.35h-4.12c0-1.31,0.02-7.35,0.02-7.35H278.17z"/>
		</g>
		<g>
			<path class="st0" d="M321.23,212.34h-7.6v0.81c0,0-0.08,20.15-0.08,21.69h-8.78v7.14h8.78v7.35h7.65v-7.35h8.78l0.08-7.1h-8.86
				C321.2,233.3,321.23,212.34,321.23,212.34z M328.24,236.52v3.85h-8.84v7.35h-4.04v-7.35h-8.85v-3.85h8.85v-22.56
				c1,0,3.03,0,4.1,0.05c0,1.49-0.02,22.51-0.02,22.51H328.24z"/>
		</g>
		<g>
			<path class="st0" d="M307,246.34h-7.64v22.48h-8.82v7.19h8.76v7.37h7.7c0,0,0-6.07,0-7.37h8.78v-7.19H307V246.34z M314.04,270.51
				v3.8h-8.81v7.43c-1.08,0-3.09-0.05-4.12-0.05v-7.38h-8.73v-3.8h8.73V248h4.13c0,1.54-0.02,22.51-0.02,22.51H314.04z"/>
		</g>
		<g>
			<path class="st0" d="M245.28,104.58l-10.65,10l11.07,10.42l11.12-10.42l-11.12-10.44L245.28,104.58z M245.71,123.24
				c-0.84-0.81-8.33-7.9-9.14-8.67c0.81-0.76,8.3-7.83,9.14-8.59c0.84,0.76,8.36,7.83,9.17,8.59
				C254.08,115.33,246.55,122.43,245.71,123.24z"/>
		</g>
		<g>
			<polygon class="st0" points="263.71,116.33 269.4,121.69 275.09,116.33 269.4,110.99 			"/>
		</g>
		<g>
			<polygon class="st0" points="286.21,117.74 291.08,123.78 297.47,119.16 292.59,113.17 			"/>
		</g>
		<g>
			<polygon class="st0" points="308.35,121.69 312.8,128.07 319.51,123.85 315.11,117.55 			"/>
		</g>
		<g>
			<polygon class="st0" points="215.35,116.33 221,121.69 226.69,116.33 221,110.99 			"/>
		</g>
		<g>
			<polygon class="st0" points="192.93,119.16 199.34,123.78 204.21,117.74 197.84,113.17 			"/>
		</g>
		<g>
			<polygon class="st0" points="170.9,123.85 177.61,128.07 182.03,121.69 175.29,117.55 			"/>
		</g>
		<g>
			<path class="st0" d="M252.72,58.35c0-2.99-2.56-5.36-5.71-5.36c-3.14,0-5.69,2.37-5.69,5.36c0,2.89,2.55,5.32,5.69,5.32
				C250.15,63.67,252.72,61.24,252.72,58.35z"/>
		</g>
		<g>
			<path class="st0" d="M313.52,75.62c1.86,0,3.38-1.43,3.38-3.17c0-1.7-1.52-3.17-3.38-3.17c-1.83,0-3.33,1.47-3.33,3.17
				C310.19,74.19,311.69,75.62,313.52,75.62z"/>
		</g>
		<g>
			<path class="st0" d="M183.16,72.45c0-1.7-1.49-3.17-3.33-3.17c-1.87,0-3.38,1.47-3.38,3.17c0,1.74,1.51,3.17,3.38,3.17
				C181.67,75.62,183.16,74.19,183.16,72.45z"/>
		</g>
		<g>
			<path class="st0" d="M266.02,58.28c-0.25,0.12-0.33,0.36-0.33,0.57c0.03,0.24,0.13,0.45,0.37,0.55c0.91,0.4,3.28,1.74,3.34,3.34
				c0.04,1.09-1.14,2.31-3.35,3.43l0.64,1.1c2.71-1.37,4.07-2.91,4.07-4.49v-0.09c-0.07-1.91-2.03-3.29-3.22-3.93
				c1.94-1.31,3.12-2.71,3.12-4.05v-0.28c-0.27-2.71-4.24-4.29-4.44-4.35l-0.49,1.19c0.94,0.36,3.45,1.65,3.54,3.25
				C269.41,55.69,268.26,56.95,266.02,58.28z"/>
		</g>
		<g>
			<path class="st0" d="M228.64,58.28c-2.26-1.33-3.41-2.59-3.28-3.77c0.13-1.59,2.64-2.89,3.55-3.25l-0.48-1.19
				c-0.19,0.06-4.17,1.64-4.43,4.35v0.28c0,1.34,1.16,2.74,3.12,4.05c-1.2,0.64-3.15,2.03-3.22,3.93v0.09c0,1.58,1.36,3.11,4.1,4.49
				l0.61-1.09c-2.23-1.15-3.4-2.35-3.38-3.44c0.05-1.58,2.47-2.93,3.37-3.34c0.18-0.1,0.36-0.31,0.4-0.55
				C229.02,58.64,228.89,58.4,228.64,58.28z"/>
		</g>
		<g>
			<path class="st0" d="M246.31,29.97c0.15,0.19,0.37,0.33,0.64,0.33c0.25-0.06,0.45-0.18,0.57-0.4c0.42-0.86,1.88-3.1,3.52-3.13
				c1.18-0.03,2.45,1.03,3.67,3.2l1.19-0.67c-1.49-2.56-3.14-3.84-4.91-3.8c-1.99,0.05-3.47,1.89-4.19,3.02
				c-1.49-1.89-3.02-3.07-4.56-2.94c-2.91,0.24-4.61,4.04-4.66,4.17l1.25,0.48c0.41-0.89,1.79-3.25,3.49-3.35
				C243.54,26.77,244.95,27.84,246.31,29.97z"/>
		</g>
	</g>
</g>
</svg>
