<svg version="1.1" id="Capa_1" xmlns="http://www.w3.org/2000/svg" x="0" y="0" viewBox="0 0 792 512" style="enable-background:new 0 0 792 512" xml:space="preserve">
  <style>
    .st0{fill:#fff}.st2{enable-background:new}
  </style>
  <path class="st0" d="M18.3 149.4h27.3v2H18.3zm74.1 13h27.3v2H92.4zm69.2 0h27.3v2h-27.3zm585.8 0h27.3v2h-27.3zm-74.2 0h27.3v2h-27.3zm-69.1 0h27.3v2h-27.3zm138.2 74.5h-29v-52.1h29v52.1zm-27-2h25v-48.1h-25v48.1zm-635.7 2h-29v-52.1h29v52.1zm-27-2h25v-48.1h-25v48.1zm689.7 78h-29v-64.2h29v64.2zm-27-2h25v-60.2h-25v60.2zm-635.7 2h-29v-64.2h29v64.2zm-27-2h25v-60.2h-25v60.2zm615.2-74h-29v-52.1h29v52.1zm-27-2h25v-48.1h-25v48.1zm-486.7 2h-29v-52.1h29v52.1zm-27-2h25v-48.1h-25v48.1zm540.7 78h-29v-64.2h29v64.2zm-27-2h25v-60.2h-25v60.2zm-486.7 2h-29v-64.2h29v64.2zm-27-2h25v-60.2h-25v60.2zm460.6-74h-29v-52.1h29v52.1zm-27-2h25v-48.1h-25v48.1zm-326.5 2h-29v-52.1h29v52.1zm-27-2h25v-48.1h-25v48.1zm380.5 78h-29v-64.2h29v64.2zm-27-2h25v-60.2h-25v60.2zm-326.5 2h-29v-64.2h29v64.2zm-27-2h25v-60.2h-25v60.2z"/>
  <path class="st0" d="M252.5 312.9H9.1V153.4h243.4v159.5zm-241.4-2h239.4V155.4H11.1v155.5zm772.9 2H540.4V153.4H784v159.5zm-241.6-2H782V155.4H542.4v155.5zm-26.5-124.7h-18.8v-9.5h18.8v9.5zm-16.7-2H514v-5.6h-14.8v5.6zm-203.5 2H277v-9.5h18.8l-.1 9.5zm-16.8-2h14.8v-5.6h-14.8v5.6zm237 13.3h-18.8V188h18.8v9.5zm-16.7-2H514V190h-14.8v5.5zm-203.5 2H277V188h18.8l-.1 9.5zm-16.8-2h14.8V190h-14.8v5.5zm237 13.4h-18.8v-9.5h18.8v9.5zm-16.7-2H514v-5.5h-14.8v5.5zm-203.5 2H277v-9.5h18.8l-.1 9.5zm-16.8-2h14.8v-5.5h-14.8v5.5zm237 13.4h-18.8v-9.5h18.8v9.5zm-16.7-2H514v-5.5h-14.8v5.5zm-203.5 2H277v-9.5h18.8l-.1 9.5zm-16.8-2h14.8v-5.5h-14.8v5.5zm237 13.4h-18.8v-9.5h18.8v9.5zm-16.7-2H514v-5.5h-14.8v5.5zm-203.5 2H277v-9.5h18.8l-.1 9.5zm-16.8-2h14.8v-5.5h-14.8v5.5zm237 13.4h-18.8v-9.5h18.8v9.5zm-16.7-2H514v-5.5h-14.8v5.5zm-203.5 2H277v-9.5h18.8l-.1 9.5zm-16.8-2h14.8v-5.5h-14.8v5.5zm237 13.3h-18.8v-9.5h18.8v9.5zm-16.7-2H514v-5.5h-14.8v5.5zm-203.5 2H277v-9.5h18.8l-.1 9.5zm-16.8-2h14.8v-5.5h-14.8v5.5zM481.6 151h2v20.6h-2zm48 0h2v20.6h-2zm-220.3 0h2v20.6h-2zm-48 0h2v20.6h-2zm253-15h-15.9v-7.1h15.9v7.1zm-13.9-2h11.9v-3.2h-11.9v3.2zm-205.9 2h-15.9v-7.1h15.9v7.1zm-14-2h11.9v-3.2h-11.9v3.2z"/>
  <path class="st0" d="M521.9 141.1h-31.1V134h31.1v7.1zm-29.1-2h27.1v-3.2h-27.1v3.2zm-190.7 2H271V134h31.1v7.1zm-29.1-2h27.1v-3.2H273v3.2z"/>
  <path class="st0" d="M531.6 147.1h-49.9v-7.9h49.9v7.9zm-48-2h46v-4h-46v4zm-172.3 2h-49.9v-7.9h49.9v7.9zm-48-2h46v-4h-46v4z"/>
  <path class="st0" d="M322.2 323.9h-71.7V145.1h71.7v178.8zm-69.7-2h67.7V147.1h-67.7v174.8zm289.9 2h-71.7V145.1h71.7v178.8zm-69.7-2h67.7V147.1h-67.7v174.8zm-18-148.7h-13.9v-16h13.9v16zm-11.9-1.9h9.9v-12h-9.9v12zm-3.8 1.9h-13.9v-16H439v16zm-11.9-1.9h9.9v-12h-9.9v12zm-59.8 1.9h-13.9v-16h13.9v16zm-11.9-1.9h9.9v-12h-9.9v12zm-3.8 1.9h-13.9v-16h13.9v16zm-11.9-1.9h9.9v-12h-9.9v12zm115 19.5h-13.9v-16h13.9v16zm-11.9-2h9.9v-12h-9.9v12zm-3.8 2h-13.9v-16H439v16zm-11.9-2h9.9v-12h-9.9v12zm-59.8 2h-13.9v-16h13.9v16zm-11.9-2h9.9v-12h-9.9v12zm-3.8 2h-13.9v-16h13.9v16zm-11.9-2h9.9v-12h-9.9v12zm115 19.6h-13.9v-16h13.9v16zm-11.9-2h9.9v-12h-9.9v12zm-3.8 2h-13.9v-16H439v16zm-11.9-2h9.9v-12h-9.9v12zm-59.8 2h-13.9v-16h13.9v16zm-11.9-2h9.9v-12h-9.9v12zm-3.8 2h-13.9v-16h13.9v16zm-11.9-2h9.9v-12h-9.9v12zm115 19.5h-13.9v-16h13.9v16zm-11.9-2h9.9v-12h-9.9v12zm-3.8 2h-13.9v-16H439v16zm-11.9-2h9.9v-12h-9.9v12zm-59.8 2h-13.9v-16h13.9v16zm-11.9-2h9.9v-12h-9.9v12zm-3.8 2h-13.9v-16h13.9v16zm-11.9-2h9.9v-12h-9.9v12zm115 19.6h-13.9v-16h13.9v16zm-11.9-2h9.9v-12h-9.9v12zm-3.8 2h-13.9v-16H439v16zm-11.9-2h9.9v-12h-9.9v12zm-59.8 2h-13.9v-16h13.9v16zm-11.9-2h9.9v-12h-9.9v12zm-3.8 2h-13.9v-16h13.9v16zm-11.9-2h9.9v-12h-9.9v12zm115 19.6h-13.9v-16h13.9v16zm-11.9-2h9.9v-12h-9.9v12zm-3.8 2h-13.9v-16H439v16zm-11.9-2h9.9v-12h-9.9v12zm-59.8 2h-13.9v-16h13.9v16zm-11.9-2h9.9v-12h-9.9v12zm-3.8 2h-13.9v-16h13.9v16zm-11.9-2h9.9v-12h-9.9v12zm113.9 25.2h-27.5v-19.7h27.5v19.7zm-25.5-2h23.5v-15.7h-23.5v15.7zm-62 2h-27.5v-19.7h27.5v19.7zm-25.4-2h23.5v-15.7h-23.5v15.7zm112.6 49.1h-26.8v-41.9h26.8v41.9zm-24.9-2h22.9v-37.9h-22.9v37.9zm-62.6 2H339v-41.9h26.8v41.9zm-24.8-2h22.9v-37.9H341v37.9zm54.7-156.9h-7.4v-15.3h7.4v15.3zm-5.4-2h3.4v-11.3h-3.4v11.3zm14.3 2h-7.4v-15.3h7.4v15.3zm-5.4-2h3.4v-11.3h-3.4v11.3zm-3.5 19.6h-7.4v-15.3h7.4v15.3zm-5.4-2h3.4v-11.3h-3.4v11.3zm14.3 2h-7.4v-15.3h7.4v15.3zm-5.4-2h3.4v-11.3h-3.4v11.3zm-3.5 19.6h-7.4v-15.3h7.4v15.3zm-5.4-2h3.4v-11.3h-3.4v11.3zm14.3 2h-7.4v-15.3h7.4v15.3zm-5.4-2h3.4v-11.3h-3.4v11.3zm-3.5 19.5h-7.4v-15.3h7.4v15.3zm-5.4-2h3.4v-11.3h-3.4v11.3zm14.3 2h-7.4v-15.3h7.4v15.3zm-5.4-2h3.4v-11.3h-3.4v11.3zm-3.5 19.6h-7.4v-15.3h7.4v15.3zm-5.4-2h3.4v-11.3h-3.4v11.3zm14.3 2h-7.4v-15.3h7.4v15.3zm-5.4-2h3.4v-11.3h-3.4v11.3zm-3.5 19.6h-7.4v-15.3h7.4v15.3zm-5.4-2h3.4v-11.3h-3.4v11.3zm14.3 2h-7.4v-15.3h7.4v15.3zm-5.4-2h3.4v-11.3h-3.4v11.3zm4.7 25.9H389v-19.7h14.8v19.7h.1zm-12.9-2h10.8v-15.7H391v15.7zm12.9 49.1H389v-41.9h14.8v41.9h.1zm-12.9-2h10.8v-37.9H391v37.9z"/>
  <path class="st0" d="M412.8 120.5v2.1h57.9v206.8H322.2V122.6h58.5v-2.1h-60.6v211h152.7v-211zm-17.7-95h2v48.4h-2zm5.7 71.9h-8.1V82.7h8.1v14.7zm-6.1-2h4.2V84.7h-4.2v10.7z"/>
  <path class="st0" d="M407.5 101.1h-22.2V78.9h22.2v22.2zm-20.2-2h18.2V80.9h-18.2v18.2z"/>
  <path class="st0" d="M412.8 106.3h-33.3V73h33.3v33.3zm-31.4-2h29.3V74.9h-29.3v29.4z"/>
  <path class="st0" d="M418.1 111.5h-42.6v-7.3h42.6v7.3zm-40.5-2.1H416v-3h-38.4v3z"/>
  <path class="st0" d="M369 114.5v-3h55.6v3h-11.8v2.1h13.9v-7.2h-59.9v7.2h13.9v-2.1z"/>
  <path class="st0" d="M382.8 113v28h28v-28h-28zm25.9 25.9h-23.8v-23.8h23.8v23.8z"/>
  <path class="st0" d="M396.8 136.7c5.3 0 9.7-4.3 9.7-9.7 0-5.3-4.3-9.7-9.7-9.7-5.3 0-9.7 4.3-9.7 9.7 0 5.3 4.3 9.7 9.7 9.7zm0-17.3c4.2 0 7.6 3.4 7.6 7.6s-3.4 7.6-7.6 7.6-7.6-3.4-7.6-7.6c0-4.2 3.4-7.6 7.6-7.6z"/>
  <path class="st0" d="M402.4 128h-6.6v-7.9h2v5.9h4.6z"/>
  <path d="M588.3 367.7h120.4v8.2H588.3zm-507.8 0h120.4v8.2H80.5z" style="fill:#f6a118"/>
  <g class="st2">
    <path class="st0" d="M71.8 405.7h18.6c11.8.1 20.6 7 20.6 20 0 12.9-8.8 19.9-20.6 19.9H71.8v-39.9zm11.3 9.7v20.4h6.8c5.6 0 9.5-3.7 9.5-10.2 0-6.6-3.8-10.3-9.5-10.3h-6.8zm36.2 30.2v-39.9h32.5v9.8h-21.7v5.3h17.4v9.2h-17.4v5.8h21.7v9.8h-32.5zm63.2-16.9c-6.4-1.8-9.3-5.2-9.3-10.8 0-7.2 5.8-12.8 16.7-12.8 5.6 0 11.3 1.5 14.4 3.2l-3.1 9.7c-3.2-2-7.9-3.5-11.8-3.5-3.3 0-4.8 1.1-4.8 2.8 0 1.3.8 1.9 2.9 2.6l6.8 2.1c7.5 2.3 10.7 5.7 10.7 11.1 0 7.8-6.4 13.2-16.7 13.2-5.9 0-11.9-2-14.6-3.5l2.6-9.8c3.2 2.1 7.9 3.9 12.2 3.9 3.2 0 4.9-1.4 4.9-3.2 0-1.4-1.4-2.2-3.6-2.9l-7.3-2.1zm40.9-23h13.3l14.8 39.9h-11.4l-2.4-6.8h-15.6l-2.3 6.8h-11.4l15-39.9zm1.6 24.9h10l-5-13.8-5 13.8zm43.5-7v22h-11.3v-39.9h9.7l18.2 22v-22h11.3v39.9h-9.8l-18.1-22zm53.1-17.9h20.6c8 0 14.9 4.8 14.9 15 0 9.3-6.8 14.7-14.9 14.7h-9.3v10.2h-11.3v-39.9zm11.3 9.7v10.2h7.5c2.9 0 5.1-2.1 5.1-5.1 0-3.1-2.2-5.2-5.1-5.2h-7.5zm31.5 30.2v-39.9h32.5v9.8h-21.7v5.3h17.4v9.2h-17.4v5.8h21.7v9.8h-32.5zm41.2-39.9h18.6c11.8.1 20.6 7 20.6 20 0 12.9-8.8 19.9-20.6 19.9h-18.6v-39.9zm11.3 9.7v20.4h6.8c5.6 0 9.5-3.7 9.5-10.2 0-6.6-3.8-10.3-9.5-10.3h-6.8zm36.2-9.7h20.3c7.6 0 14.9 4.3 14.9 13.3 0 6-4.1 10.3-9.7 11.8 3.4 2.9 6.6 5.8 9.9 5.8 1.1 0 2.8-.2 3.9-.6l1.1 8.8c-1.6.8-4.1 1.5-6.8 1.5-9.4 0-16.2-11.3-21.7-14.9h-.5v14.3h-11.3v-40zm11.3 9.7v8.2h7.9c2.8 0 4.3-1.8 4.3-4.1s-1.6-4.1-4.3-4.1h-7.9zm52.4-10.3c11.8 0 20.6 8.8 20.6 20.6 0 11.7-8.8 20.5-20.6 20.5-11.7 0-20.5-8.8-20.5-20.5 0-11.8 8.8-20.6 20.5-20.6zm0 30.5c5.6 0 9.5-4.4 9.5-9.9 0-5.6-3.9-10-9.5-10s-9.5 4.3-9.5 10c0 5.5 3.9 9.9 9.5 9.9zm50.8-6.9c-6.4-1.8-9.3-5.2-9.3-10.8 0-7.2 5.8-12.8 16.7-12.8 5.6 0 11.3 1.5 14.4 3.2l-3.1 9.7c-3.2-2-7.9-3.5-11.8-3.5-3.3 0-4.8 1.1-4.8 2.8 0 1.3.8 1.9 2.9 2.6l6.8 2.1c7.5 2.3 10.7 5.7 10.7 11.1 0 7.8-6.4 13.2-16.7 13.2-5.9 0-11.9-2-14.6-3.5l2.6-9.8c3.2 2.1 7.9 3.9 12.2 3.9 3.2 0 4.9-1.4 4.9-3.2 0-1.4-1.4-2.2-3.6-2.9l-7.3-2.1zm41.6-1.2c0 5.2 2.6 8.3 7.6 8.3 5.1 0 7.8-3.2 7.8-8.4v-21.8h11.3v22.6c0 9.6-6.8 17.9-19 17.9s-18.9-7.5-18.9-17.9v-22.6h11.3v21.9zm36.7 18.1v-39.9h11.3v30.2h19.2v9.7h-30.5zm47.3-39.9h13.3l14.8 39.9h-11.4l-2.4-6.8h-15.6l-2.3 6.8h-11.4l15-39.9zm1.6 24.9h10l-5-13.8-5 13.8z"/>
  </g>
  <g class="st2">
    <path class="st0" d="m243.6 368.3-8.3 10h-1.2l-8.3-10v16.9H219v-27.6h5.9l9.8 11.5 9.8-11.5h5.9v27.6h-6.8v-16.9zm20.9 4.6c0 4 2 6.4 6 6.4 4.1 0 6.1-2.5 6.1-6.4v-15.3h6.8v15.8c0 6.6-4.6 12.3-12.9 12.3s-12.8-5.2-12.8-12.3v-15.8h6.8v15.3zm33.1-4.5v16.8h-6.8v-27.6h5.9l13.9 16.8v-16.8h6.8v27.6h-5.9l-13.9-16.8zm27.5-10.8h6.8v27.6h-6.8v-27.6zm38.5 23.6c-2.5 2.4-6.7 4.5-11.3 4.5-8.2 0-14.3-5.3-14.3-14.2 0-9 6.1-14.3 14.3-14.3 7.2 0 11.1 4 11.3 10.4l-6.3 1.3c0-3.3-1.6-5.4-5.1-5.4-4.2 0-7.2 2.9-7.2 8 0 5 2.9 7.9 7.4 7.9 3.2 0 6.1-1.5 8-3.3l3.2 5.1zm5.8-23.6h6.8v27.6h-6.8v-27.6zm14.5 0h13.7c5.5 0 10.2 3.2 10.2 10.2 0 6.3-4.7 10.1-10.2 10.1h-6.9v7.3h-6.8v-27.6zm6.8 5.9v8.5h5.8c2.4 0 4.2-1.7 4.2-4.2 0-2.7-1.8-4.3-4.2-4.3h-5.8zm28.6-5.9h8l10.5 27.6h-6.9l-1.9-5.1h-11.6l-1.9 5.1h-6.9l10.7-27.6zm-.2 17.6h8.2l-4-10.8-4.2 10.8zm23 10v-27.6h6.8v21.7h13.7v5.9h-20.5zm25.4-27.6h6.8v27.6h-6.8v-27.6zm14.4 0h12.4c8.2 0 14.3 4.9 14.3 13.9 0 8.9-6.1 13.8-14.3 13.8h-12.4v-27.7zm6.8 5.9v15.8h5.3c4.5 0 7.5-2.8 7.5-7.8 0-5.1-3-7.9-7.5-7.9h-5.3zm32.7-5.9h8l10.5 27.6H533l-1.9-5.1h-11.6l-1.9 5.1h-6.9l10.7-27.6zm-.1 17.6h8.2l-4-10.8-4.2 10.8zm22.9-17.6h12.4c8.2 0 14.3 4.9 14.3 13.9 0 8.9-6.1 13.8-14.3 13.8h-12.4v-27.7zm6.9 5.9v15.8h5.3c4.5 0 7.5-2.8 7.5-7.8 0-5.1-3-7.9-7.5-7.9h-5.3z"/>
  </g>
</svg>
