<?xml version="1.0" encoding="utf-8"?>
<!-- Generator: Adobe Illustrator 26.0.0, SVG Export Plug-In . SVG Version: 6.00 Build 0)  -->
<svg version="1.1" id="Capa_1" xmlns="http://www.w3.org/2000/svg" xmlns:xlink="http://www.w3.org/1999/xlink" x="0px" y="0px"
	 viewBox="0 0 172.7 183.7" style="enable-background:new 0 0 172.7 183.7;" xml:space="preserve">
<style type="text/css">
	.st0{fill:#393B44;}
</style>
<g>
	<g>
		<g>
			<path class="st0" d="M33.8,155.6L33.8,155.6l-3.1,8.4h-1.5l-3-8.4l0,0l0.2,5v1.8l1.2,0.2v1.4h-4.7v-1.4l1.2-0.2v-8.1l-1.2-0.2
				v-1.4H24h3l2.9,8.4h0l2.9-8.4H37v1.4l-1.2,0.2v8.1l1.2,0.2v1.4h-4.7v-1.4l1.2-0.2v-1.8L33.8,155.6z"/>
			<path class="st0" d="M42.4,152.7v1.4l-1.2,0.2v5.9c0,0.7,0.2,1.3,0.6,1.7c0.4,0.4,1,0.6,1.7,0.6c0.7,0,1.3-0.2,1.7-0.6
				c0.4-0.4,0.6-0.9,0.6-1.7v-5.9l-1.2-0.2v-1.4h4.7v1.4l-1.2,0.2v5.9c0,1.3-0.4,2.3-1.3,2.9c-0.8,0.7-1.9,1-3.3,1
				c-1.4,0-2.4-0.3-3.3-1c-0.8-0.7-1.2-1.7-1.2-2.9v-5.9l-1.2-0.2v-1.4h1.2h2.3H42.4z"/>
			<path class="st0" d="M61.5,152.7v1.4l-1.2,0.2v9.7H58l-4.6-7.6l0,0v6l1.2,0.2v1.4h-4.7v-1.4l1.2-0.2v-8.1l-1.2-0.2v-1.4h1.2h2.3
				l4.6,7.6l0,0v-6l-1.2-0.2v-1.4h3.5H61.5z"/>
			<path class="st0" d="M62.2,154.1v-1.4h4.7v1.4l-1.2,0.2v8.1l1.2,0.2v1.4h-4.7v-1.4l1.2-0.2v-8.1L62.2,154.1z"/>
			<path class="st0" d="M77,156.5h-1.7l-0.2-1.5c-0.2-0.2-0.5-0.4-0.8-0.5c-0.3-0.1-0.7-0.2-1.2-0.2c-1,0-1.7,0.4-2.3,1.1
				c-0.5,0.7-0.8,1.6-0.8,2.8v0.4c0,1.2,0.3,2.1,0.8,2.8c0.5,0.7,1.3,1.1,2.2,1.1c0.4,0,0.9-0.1,1.2-0.2c0.4-0.1,0.7-0.3,0.9-0.5
				l0.2-1.5H77v2.2c-0.5,0.5-1,1-1.7,1.3c-0.7,0.3-1.5,0.5-2.4,0.5c-1.5,0-2.8-0.5-3.7-1.6c-1-1.1-1.5-2.4-1.5-4.1v-0.4
				c0-1.6,0.5-3,1.4-4.1c1-1.1,2.2-1.6,3.7-1.6c0.9,0,1.7,0.2,2.4,0.5c0.7,0.3,1.3,0.7,1.8,1.3V156.5z"/>
			<path class="st0" d="M78.1,154.1v-1.4h4.7v1.4l-1.2,0.2v8.1l1.2,0.2v1.4h-4.7v-1.4l1.2-0.2v-8.1L78.1,154.1z"/>
			<path class="st0" d="M89,152.7c1.3,0,2.3,0.3,3.1,1c0.7,0.7,1.1,1.5,1.1,2.6c0,1.1-0.4,2-1.1,2.6c-0.8,0.7-1.8,1-3.1,1h-1.9v2.5
				l1.2,0.2v1.4h-4.7v-1.4l1.2-0.2v-8.1l-1.2-0.2v-1.4h1.2H89z M87.1,158.2H89c0.6,0,1.1-0.2,1.4-0.5c0.3-0.3,0.5-0.8,0.5-1.3
				c0-0.5-0.2-1-0.5-1.4c-0.3-0.4-0.8-0.5-1.4-0.5h-1.9V158.2z"/>
			<path class="st0" d="M92,162.7l0.8-0.1l3.4-9.9h2.3l3.4,9.9l0.8,0.1v1.4h-3.9v-1.4l0.8-0.1l-0.5-1.6h-3.7l-0.5,1.6l0.8,0.1v1.4
				H92V162.7z M96.1,159.3h2.6l-1.3-4h0L96.1,159.3z"/>
			<path class="st0" d="M103.6,164v-1.4l1.2-0.2v-8.1l-1.2-0.2v-1.4h1.2h2.3h1.2v1.4l-1.2,0.2v8h3.2l0.1-1.4h1.7v3.2H103.6z"/>
			<path class="st0" d="M112.9,154.1v-1.4h4.7v1.4l-1.2,0.2v8.1l1.2,0.2v1.4h-4.7v-1.4l1.2-0.2v-8.1L112.9,154.1z"/>
			<path class="st0" d="M123.5,152.7c1.4,0,2.5,0.4,3.4,1.3c0.9,0.9,1.3,2,1.3,3.4v1.9c0,1.4-0.4,2.5-1.3,3.4
				c-0.9,0.9-2,1.3-3.4,1.3h-5.1v-1.4l1.2-0.2v-8.1l-1.2-0.2v-1.4h1.2H123.5z M121.9,154.4v7.8h1.5c0.8,0,1.5-0.3,1.9-0.8
				c0.5-0.5,0.7-1.3,0.7-2.2v-1.9c0-0.9-0.2-1.6-0.7-2.1c-0.5-0.6-1.1-0.8-1.9-0.8H121.9z"/>
			<path class="st0" d="M128.8,162.7l0.8-0.1l3.4-9.9h2.3l3.4,9.9l0.8,0.1v1.4h-3.9v-1.4l0.8-0.1l-0.5-1.6h-3.7l-0.5,1.6l0.8,0.1
				v1.4h-3.9V162.7z M133,159.3h2.6l-1.3-4h0L133,159.3z"/>
			<path class="st0" d="M145.5,152.7c1.4,0,2.5,0.4,3.4,1.3c0.9,0.9,1.3,2,1.3,3.4v1.9c0,1.4-0.4,2.5-1.3,3.4
				c-0.9,0.9-2,1.3-3.4,1.3h-5.1v-1.4l1.2-0.2v-8.1l-1.2-0.2v-1.4h1.2H145.5z M143.9,154.4v7.8h1.5c0.8,0,1.5-0.3,1.9-0.8
				c0.5-0.5,0.7-1.3,0.7-2.2v-1.9c0-0.9-0.2-1.6-0.7-2.1c-0.5-0.6-1.1-0.8-1.9-0.8H143.9z"/>
		</g>
		<g>
			<path class="st0" d="M10.9,166.6c1.4,0,2.5,0.4,3.4,1.3c0.9,0.9,1.3,2,1.3,3.4v1.9c0,1.4-0.4,2.5-1.3,3.4c-0.9,0.9-2,1.3-3.4,1.3
				H5.8v-1.4l1.2-0.2v-8.1L5.8,168v-1.4H7H10.9z M9.3,168.4v7.8h1.5c0.8,0,1.5-0.3,1.9-0.8c0.5-0.6,0.7-1.3,0.7-2.2v-1.9
				c0-0.9-0.2-1.6-0.7-2.1c-0.5-0.5-1.1-0.8-1.9-0.8H9.3z"/>
			<path class="st0" d="M24.1,173h-3.8v3.2H24l0.1-1.4h1.7v3.1h-9v-1.4l1.2-0.2v-8.1l-1.2-0.2v-1.4H18h7.7v3.1H24l-0.1-1.4h-3.6v2.8
				h3.8V173z"/>
			<path class="st0" d="M39.5,170.2h-1.7l-0.3-1.6c-0.2-0.1-0.5-0.2-0.9-0.3c-0.4-0.1-0.8-0.1-1.2-0.1c-0.6,0-1.1,0.1-1.4,0.4
				c-0.3,0.3-0.5,0.6-0.5,1c0,0.4,0.2,0.7,0.5,0.9c0.4,0.2,1,0.5,1.8,0.8c1.3,0.3,2.2,0.8,2.8,1.4c0.6,0.6,1,1.3,1,2.2
				c0,1-0.4,1.7-1.2,2.3c-0.8,0.6-1.8,0.8-3,0.8c-0.9,0-1.7-0.1-2.4-0.4c-0.7-0.3-1.3-0.7-1.8-1.2v-2.4H33l0.2,1.6
				c0.2,0.2,0.5,0.3,0.9,0.5c0.4,0.1,0.8,0.2,1.3,0.2c0.6,0,1.1-0.1,1.4-0.4c0.3-0.3,0.5-0.6,0.5-1c0-0.4-0.2-0.8-0.5-1.1
				c-0.3-0.3-0.8-0.5-1.6-0.7c-1.3-0.4-2.4-0.9-3.1-1.4c-0.7-0.5-1-1.3-1-2.2c0-0.9,0.4-1.7,1.2-2.3c0.8-0.6,1.8-0.9,2.9-0.9
				c0.9,0,1.7,0.1,2.4,0.4c0.7,0.3,1.3,0.6,1.8,1.1V170.2z"/>
			<path class="st0" d="M40.5,176.6l0.8-0.1l3.4-9.9H47l3.4,9.9l0.8,0.1v1.4h-3.9v-1.4l0.8-0.1l-0.5-1.6H44l-0.5,1.6l0.8,0.1v1.4
				h-3.9V176.6z M44.6,173.2h2.6l-1.3-4h0L44.6,173.2z"/>
			<path class="st0" d="M63.6,166.6v1.4l-1.2,0.2v9.7h-2.3l-4.6-7.6l0,0v6l1.2,0.2v1.4H52v-1.4l1.2-0.2v-8.1L52,168v-1.4h1.2h2.3
				l4.6,7.6l0,0v-6l-1.2-0.2v-1.4h3.5H63.6z"/>
			<path class="st0" d="M73.6,166.6c1.3,0,2.3,0.3,3.1,1c0.7,0.7,1.1,1.5,1.1,2.6c0,1.1-0.4,2-1.1,2.6c-0.7,0.7-1.8,1-3.1,1h-1.9
				v2.5l1.2,0.2v1.4h-4.7v-1.4l1.2-0.2v-8.1l-1.2-0.2v-1.4h1.2H73.6z M71.7,172.1h1.9c0.6,0,1.1-0.2,1.4-0.5
				c0.3-0.3,0.5-0.8,0.5-1.3c0-0.5-0.2-1-0.5-1.4c-0.3-0.4-0.8-0.5-1.4-0.5h-1.9V172.1z"/>
			<path class="st0" d="M85.9,173H82v3.2h3.7l0.1-1.4h1.7v3.1h-9v-1.4l1.2-0.2v-8.1l-1.2-0.2v-1.4h1.2h7.7v3.1h-1.7l-0.1-1.4H82v2.8
				h3.8V173z"/>
			<path class="st0" d="M93.8,166.6c1.4,0,2.5,0.4,3.4,1.3c0.9,0.9,1.3,2,1.3,3.4v1.9c0,1.4-0.4,2.5-1.3,3.4c-0.9,0.9-2,1.3-3.4,1.3
				h-5.1v-1.4l1.2-0.2v-8.1l-1.2-0.2v-1.4H90H93.8z M92.2,168.4v7.8h1.5c0.8,0,1.5-0.3,1.9-0.8c0.5-0.6,0.7-1.3,0.7-2.2v-1.9
				c0-0.9-0.2-1.6-0.7-2.1c-0.5-0.5-1.1-0.8-1.9-0.8H92.2z"/>
			<path class="st0" d="M104.8,166.6c1.3,0,2.3,0.3,3,0.9c0.7,0.6,1.1,1.4,1.1,2.4c0,0.6-0.2,1.1-0.5,1.5s-0.8,0.8-1.3,1
				c0.7,0.2,1.2,0.5,1.4,1c0.3,0.5,0.4,1,0.4,1.7v0.6c0,0.2,0,0.4,0.1,0.6c0.1,0.1,0.3,0.2,0.5,0.2l0.3,0v1.4h-1.2
				c-0.7,0-1.3-0.2-1.6-0.6c-0.3-0.4-0.5-0.9-0.5-1.5v-0.6c0-0.6-0.1-1-0.4-1.3c-0.3-0.3-0.7-0.5-1.2-0.5h-1.9v3l1.2,0.2v1.4h-4.7
				v-1.4l1.2-0.2v-8.1l-1.2-0.2v-1.4h1.2H104.8z M103.2,171.6h1.6c0.6,0,1.1-0.1,1.4-0.4s0.5-0.7,0.5-1.2c0-0.5-0.2-0.9-0.5-1.2
				c-0.3-0.3-0.8-0.5-1.4-0.5h-1.6V171.6z"/>
			<path class="st0" d="M121.1,172.4c0,1.7-0.5,3-1.4,4.1c-0.9,1.1-2.2,1.6-3.7,1.6c-1.5,0-2.8-0.5-3.7-1.6
				c-0.9-1.1-1.4-2.5-1.4-4.1v-0.2c0-1.7,0.5-3,1.4-4.1c0.9-1.1,2.2-1.6,3.7-1.6c1.5,0,2.8,0.5,3.7,1.6c1,1.1,1.4,2.5,1.4,4.1V172.4
				z M118.8,172.2c0-1.2-0.2-2.1-0.7-2.9c-0.5-0.7-1.2-1.1-2.2-1.1c-1,0-1.7,0.4-2.1,1.1c-0.5,0.7-0.7,1.7-0.7,2.9v0.2
				c0,1.2,0.2,2.2,0.7,2.9c0.5,0.7,1.2,1.1,2.1,1.1c1,0,1.7-0.4,2.2-1.1c0.5-0.7,0.7-1.7,0.7-2.9V172.2z"/>
			<path class="st0" d="M134.5,170.2h-1.7l-0.3-1.6c-0.2-0.1-0.5-0.2-0.9-0.3c-0.4-0.1-0.8-0.1-1.2-0.1c-0.6,0-1.1,0.1-1.4,0.4
				c-0.3,0.3-0.5,0.6-0.5,1c0,0.4,0.2,0.7,0.5,0.9c0.4,0.2,1,0.5,1.8,0.8c1.3,0.3,2.2,0.8,2.8,1.4c0.6,0.6,1,1.3,1,2.2
				c0,1-0.4,1.7-1.2,2.3c-0.8,0.6-1.8,0.8-3,0.8c-0.9,0-1.7-0.1-2.4-0.4c-0.7-0.3-1.3-0.7-1.8-1.2v-2.4h1.8l0.2,1.6
				c0.2,0.2,0.5,0.3,0.9,0.5c0.4,0.1,0.8,0.2,1.3,0.2c0.6,0,1.1-0.1,1.4-0.4c0.3-0.3,0.5-0.6,0.5-1c0-0.4-0.2-0.8-0.5-1.1
				c-0.3-0.3-0.8-0.5-1.6-0.7c-1.3-0.4-2.4-0.9-3.1-1.4c-0.7-0.5-1-1.3-1-2.2c0-0.9,0.4-1.7,1.2-2.3c0.8-0.6,1.8-0.9,2.9-0.9
				c0.9,0,1.7,0.1,2.4,0.4c0.7,0.3,1.3,0.6,1.8,1.1V170.2z"/>
			<path class="st0" d="M140.1,166.6v1.4l-1.2,0.2v5.9c0,0.7,0.2,1.3,0.6,1.7c0.4,0.4,1,0.6,1.7,0.6c0.7,0,1.3-0.2,1.7-0.6
				c0.4-0.4,0.6-0.9,0.6-1.7v-5.9l-1.2-0.2v-1.4h4.7v1.4l-1.2,0.2v5.9c0,1.3-0.4,2.3-1.3,2.9c-0.8,0.7-1.9,1-3.3,1
				c-1.4,0-2.4-0.3-3.3-1c-0.8-0.7-1.2-1.7-1.2-2.9v-5.9l-1.2-0.2v-1.4h1.2h2.3H140.1z"/>
			<path class="st0" d="M147.6,177.9v-1.4l1.2-0.2v-8.1l-1.2-0.2v-1.4h1.2h2.3h1.2v1.4l-1.2,0.2v8h3.2l0.1-1.4h1.7v3.2H147.6z"/>
			<path class="st0" d="M156.8,176.6l0.8-0.1l3.4-9.9h2.3l3.4,9.9l0.8,0.1v1.4h-3.9v-1.4l0.8-0.1l-0.5-1.6h-3.7l-0.5,1.6l0.8,0.1
				v1.4h-3.9V176.6z M160.9,173.2h2.6l-1.3-4h0L160.9,173.2z"/>
		</g>
	</g>
	<g>
		<g>
			<path class="st0" d="M120.5,94.8c0,0-2.2,1.2-3,3.4l0-3.4h-1.6v3.4c-0.9-2.2-3-3.4-3.1-3.4l-0.2,0.3c1.8,2.1,2,4,1.9,4.7
				c-0.2,0.1-0.4,0.2-0.4,0.4c0,0.2,0.1,0.3,0.3,0.4c0,0.9-0.3,2.6-1.9,4.4l0.2,0.3c0,0,2.2-1.2,3.1-3.4v3.7h1.6l0-3.7
				c0.9,2.2,3,3.4,3,3.4l0.2-0.3c-1.6-1.8-1.9-3.6-1.9-4.4c0.2-0.1,0.3-0.2,0.3-0.4l-0.1-0.3c-0.1-0.1-0.1-0.1-0.2-0.1
				c0-0.7,0.1-2.6,1.9-4.7L120.5,94.8z M116.2,95.2h0.9c0,0.2,0,2.3,0,4.5h-0.9C116.2,97.4,116.2,95.3,116.2,95.2z M113.4,95.7
				c0.9,0.7,2.2,2,2.4,4h-0.7c-0.1,0-0.2,0-0.3,0v0C114.8,99,114.6,97.4,113.4,95.7z M113.4,104.4c1.1-1.5,1.4-2.9,1.4-3.7
				c0.1,0,0.2,0,0.3,0h0.7C115.5,102.5,114.2,103.8,113.4,104.4z M117,105.3h-0.9c0-0.2,0-2.3,0-4.5h0.9
				C117,103,117,105.1,117,105.3z M115.1,100.4c-0.1,0-0.2,0-0.3,0c-0.1,0-0.1,0-0.2-0.1c-0.1,0-0.2-0.1-0.2-0.1
				c0,0,0.1-0.1,0.2-0.1c0,0,0.1,0,0.2,0c0.1,0,0.2,0,0.3,0h3c0.1,0,0.2,0,0.3,0c0.1,0,0.1,0,0.2,0.1c0.1,0,0.1,0,0.1,0.1l0,0
				c0,0-0.1,0.1-0.2,0.1c-0.1,0-0.1,0-0.2,0.1c-0.1,0-0.2,0-0.3,0H115.1z M119.8,104.4c-0.8-0.7-2.1-1.9-2.3-3.7h0.7
				c0.1,0,0.2,0,0.3,0C118.4,101.5,118.7,102.9,119.8,104.4z M118.4,99.7c-0.1,0-0.2,0-0.3,0h-0.7c0.2-1.9,1.5-3.3,2.4-4
				C118.6,97.4,118.4,99,118.4,99.7z"/>
		</g>
		<g>
			<path class="st0" d="M59.2,98.5c0.2-0.9,0.7-2.1,1.7-3.3c0,0,0.1-0.1,0.1-0.1l-0.2-0.3c0,0-0.7,0.4-1.4,1
				c-0.4,0.3-0.7,0.8-1.1,1.2c-0.2,0.3-0.4,0.7-0.6,1.1v-3.4h-1.6v0h0l0,3.4c-0.2-0.4-0.4-0.8-0.6-1.1c-1-1.5-2.4-2.2-2.4-2.2
				L52.8,95c0.6,0.7,1,1.3,1.2,1.9c0,0,0,0,0,0c0,0,0,0,0,0c0.6,1.3,0.7,2.3,0.7,2.8c0,0,0,0-0.1,0c-0.2,0.1-0.3,0.2-0.3,0.4
				l0.1,0.2l0,0.1c0,0,0,0,0.1,0.1c0,0,0,0,0,0c0,0,0.1,0,0.1,0.1c0,0.3-0.1,0.7-0.2,1.2c-0.2,0.9-0.7,2.1-1.8,3.3l0.2,0.3
				c0,0,0,0,0,0l0,0c0,0,2.2-1.2,3.1-3.4l0,3.7h1.6v0h0l0-3.7v0c0.5,1.2,1.4,2.1,2.1,2.7c0.5,0.4,1,0.7,1,0.7l0,0c0,0,0,0,0,0
				L61,105c0,0,0,0,0,0l0,0c-0.9-1-1.3-1.9-1.6-2.7c-0.2-0.7-0.3-1.3-0.3-1.7c0,0,0,0,0,0c0.2-0.1,0.3-0.2,0.3-0.4l-0.1-0.3
				c0,0-0.1-0.1-0.1-0.1c0,0,0,0-0.1,0c0,0,0,0,0,0C59,99.5,59,99,59.2,98.5z M56.5,95.1h0.9c0,0.1,0,2.3,0,4.5h-0.9
				C56.5,97.4,56.5,95.3,56.5,95.1z M53.7,95.6c0.9,0.7,2.2,2,2.4,4h-0.7c-0.1,0-0.2,0-0.3,0c0,0,0,0,0,0
				C55.1,98.9,54.9,97.4,53.7,95.6z M53.7,104.4c1.1-1.5,1.4-2.9,1.4-3.7c0.1,0,0.2,0,0.3,0H56C55.8,102.5,54.5,103.7,53.7,104.4z
				 M57.3,105.2h-0.9c0-0.2,0-2.3,0-4.5h0.9C57.3,103,57.3,105.1,57.3,105.2z M57.7,100.4h-0.2h0h-0.2h0h-0.9h0h-0.2h0h-0.2h0h-0.7
				c-0.1,0-0.2,0-0.3,0c-0.1,0-0.1,0-0.2-0.1c-0.1,0-0.1,0-0.1-0.1l0,0c0,0,0.1-0.1,0.1-0.1c0.1,0,0.1,0,0.2-0.1c0.1,0,0.2,0,0.3,0
				h0.7h0h0.2h0h0.2h0h0.9h0h0.2h0h0.2h0h0.7c0.1,0,0.2,0,0.3,0c0.1,0,0.1,0,0.2,0.1c0.1,0,0.1,0,0.1,0.1l0,0c0,0-0.1,0.1-0.2,0.1
				c-0.1,0-0.1,0-0.2,0.1c-0.1,0-0.2,0-0.3,0H57.7L57.7,100.4z M60.1,104.4c-0.9-0.7-2.1-1.9-2.3-3.7h0.7c0.1,0,0.2,0,0.3,0
				C58.7,101.4,59,102.8,60.1,104.4z M58.7,99.6C58.7,99.6,58.7,99.6,58.7,99.6c-0.1,0-0.2,0-0.2,0h-0.7c0.2-1.9,1.5-3.3,2.4-4
				C58.9,97.4,58.7,98.9,58.7,99.6z"/>
		</g>
		<g>
			<path class="st0" d="M60.9,63.3c0-0.1,0.1-0.1,0.1-0.2l-0.2-0.3c0,0,0,0,0,0l0,0c0,0-0.3,0.2-0.8,0.5c-0.7,0.5-1.7,1.5-2.3,2.9v0
				l0-3.4h0h-0.2h-1.4h0v2.3l0,1.1c-0.9-2.2-2.9-3.3-3-3.4c0,0,0,0,0,0v0c0,0,0,0,0,0L53,63l-0.1,0.2c0.9,1.1,1.4,2.1,1.7,3
				c0.2,0.8,0.3,1.4,0.2,1.8c-0.2,0.1-0.3,0.2-0.3,0.4c0,0.2,0.1,0.3,0.3,0.4c0,0.2,0,0.4-0.1,0.6c-0.1,0.9-0.6,2.3-1.9,3.8l0.2,0.3
				c0,0,0,0,0,0l0,0c0,0,2.2-1.2,3-3.4v3.1l0,0.6h0v0l0.9,0l0.7,0l0-3.7c0.1,0.3,0.3,0.6,0.4,0.8c0.6,1,1.4,1.7,1.9,2.1
				c0.4,0.3,0.7,0.5,0.7,0.5l0,0c0,0,0,0,0,0l0.1-0.1l0.2-0.2c-1.5-1.8-1.9-3.4-1.9-4.3c0-0.1,0-0.1,0-0.2c0.2-0.1,0.3-0.2,0.3-0.4
				c0-0.1-0.1-0.2-0.2-0.3c-0.1,0-0.1-0.1-0.2-0.1c0-0.2,0-0.4,0-0.7C59.2,66.2,59.6,64.8,60.9,63.3z M56.5,63.2h0.9
				c0,0.2,0,2.3,0,4.5h-0.9C56.5,65.5,56.5,63.4,56.5,63.2z M53.7,63.7c0.9,0.7,2.2,2,2.4,4h-0.7c-0.1,0-0.2,0-0.3,0c0,0,0,0,0,0
				C55.1,67,54.9,65.5,53.7,63.7z M53.7,72.5c1.1-1.5,1.4-2.9,1.4-3.7c0.1,0,0.2,0,0.3,0h0.7C55.8,70.6,54.5,71.8,53.7,72.5z
				 M57.4,73.3h-0.9c0-0.2,0-2.3,0-4.5h0.9C57.4,71,57.4,73.2,57.4,73.3z M57.7,68.5h-0.2h0h-0.2h0h-0.9h0h-0.2h0h-0.2h0h-0.7
				c-0.1,0-0.2,0-0.3,0c-0.1,0-0.1,0-0.2-0.1c-0.1,0-0.2-0.1-0.2-0.1c0,0,0.1-0.1,0.1-0.1c0,0,0.1,0,0.2-0.1c0.1,0,0.2,0,0.3,0
				l0.7,0h0l0.2,0l0,0l0.2,0l0,0l0.9,0l0,0l0.2,0l0,0l0.2,0l0,0l0.7,0c0.1,0,0.2,0,0.3,0c0.1,0,0.1,0,0.2,0.1c0.1,0,0.1,0.1,0.1,0.1
				c0,0-0.1,0.1-0.2,0.1c-0.1,0-0.1,0-0.2,0.1c-0.1,0-0.2,0-0.3,0H57.7L57.7,68.5z M60.1,72.5c-0.9-0.7-2.1-1.9-2.4-3.7h0.7
				c0.1,0,0.2,0,0.3,0C58.8,69.5,59.1,70.9,60.1,72.5z M58.7,67.7C58.7,67.7,58.7,67.7,58.7,67.7c-0.1,0-0.2,0-0.2,0h-0.7
				c0.2-2,1.5-3.3,2.4-4C58.9,65.5,58.7,67,58.7,67.7z"/>
		</g>
		<g>
			<path class="st0" d="M82.4,54.3l0.2,0.3c0.1,0,2.1-0.8,3-2.3l0,2.5h1.6v-2.5c0.8,1.5,2.9,2.3,3,2.3l0.2-0.3
				c-1.5-1.2-1.8-2.3-1.9-2.9c0.2-0.1,0.3-0.2,0.3-0.4c0-0.2-0.1-0.4-0.3-0.5c0-0.6,0.3-1.7,1.9-3l-0.2-0.3c-0.1,0-2.1,0.8-3,2.3
				v-2.3h-1.6v2.3c-0.8-1.5-2.9-2.3-3-2.3l-0.2,0.3c1.5,1.2,1.8,2.3,1.9,2.9c-0.3,0.1-0.4,0.2-0.4,0.4c0,0.3,0.2,0.4,0.4,0.5
				C84.2,52.1,83.8,53.2,82.4,54.3z M86.7,54.5h-0.9c0-0.1,0-1.5,0-2.9l0.8,0V54.5z M89.3,53.9c-0.8-0.5-1.8-1.2-2.1-2.3l0.6,0
				c0.1,0,0.2,0,0.3,0C88.1,52.1,88.4,52.9,89.3,53.9z M89.3,48.2c-0.9,1-1.2,1.9-1.2,2.4c-0.1,0-0.2,0-0.3,0h-0.6
				C87.4,49.4,88.5,48.6,89.3,48.2z M85.9,47.7h0.8v2.8h-0.9C85.9,49.1,85.9,47.9,85.9,47.7z M83.4,48.2c0.8,0.5,1.9,1.3,2.1,2.4
				h-0.8c0,0-0.1,0-0.1,0C84.5,50,84.3,49.1,83.4,48.2z M84.1,51.1V51c0,0,0,0,0.1,0c0,0,0.1,0,0.2,0c0.1,0,0.1,0,0.2,0
				c0,0,0.1,0,0.1,0h3.1c0.1,0,0.2,0,0.3,0c0.1,0,0.1,0,0.2,0c0.1,0,0.1,0.1,0.1,0.1l0,0.1c0,0-0.1,0-0.1,0.1c0,0-0.1,0-0.2,0
				c-0.1,0-0.2,0-0.3,0h-3.1c0,0-0.1,0-0.1,0c-0.1,0-0.1,0-0.2,0C84.3,51.2,84.3,51.2,84.1,51.1C84.2,51.1,84.2,51.1,84.1,51.1z
				 M84.6,51.6c0.1,0,0.1,0,0.1,0l0.7,0c-0.3,1.1-1.3,1.8-2.1,2.3C84.2,52.9,84.5,52.1,84.6,51.6z"/>
		</g>
		<g>
			<path class="st0" d="M65.6,63.6l0.1,0c0,0,0,0,0,0c0,0,0.1,0,0.1,0c0,0,0.1,0,0.1,0c0,0.3,0,2.4,0,3.9c0,0.8,0,1.4,0,1.4h0
				c0,0,0,0,0,0h1.9v-0.7h0.7l0-1.5h0v0h-0.8v-0.1h0.7v0h0V65h-0.7c0-0.3,0-1.2,0-1.5c0,0,0,0,0,0c0.1,0,0.2,0.1,0.3,0.1
				c0.1,0,0.2,0.1,0.4,0.1c0.1,0,0.3,0,0.4,0c0.3-0.1,0.6-0.2,0.8-0.4c0,0,0,0,0,0c0,0,0,0,0,0c0.3-0.3,0.5-0.7,0.5-1.2
				c0-0.2,0-0.4-0.1-0.6c-0.2-0.5-0.7-0.9-1.4-1.1c0-0.1,0-0.2,0-0.2c0-0.1,0-0.1,0-0.1c0-0.1,0-0.2,0-0.3c-0.1-0.3-0.2-0.6-0.5-0.9
				c0,0,0,0,0,0c-0.3-0.3-0.8-0.5-1.2-0.5c-1,0-1.8,0.8-1.8,1.7c0,0,0,0.2,0,0.3c-0.9,0.1-1.6,0.8-1.6,1.6
				C63.8,62.8,64.6,63.6,65.6,63.6z M65.6,60.7h0.3l-0.1-0.8c0-0.7,0.6-1.2,1.3-1.2c0.4,0,0.7,0.1,0.9,0.4c0.2,0.2,0.4,0.6,0.4,0.9
				l-0.1,0.7l0.3,0.1c0.7,0,1.3,0.6,1.3,1.2c0,0.3-0.1,0.7-0.4,0.9c-0.2,0.2-0.6,0.4-0.9,0.4c-0.3,0-0.5-0.1-0.7-0.2l-0.4-0.2v2.7
				h0.7v0.6h-0.7v1h0.7v0.6h-0.7v0.6h-0.9V63l-0.4,0.1l-0.4,0.1h-0.2c-0.7,0-1.3-0.6-1.3-1.3C64.3,61.2,64.9,60.7,65.6,60.7z"/>
		</g>
		<g>
			<path class="st0" d="M67.1,60.6c0.4,0,0.7-0.3,0.7-0.7c0-0.4-0.3-0.7-0.7-0.7c-0.4,0-0.7,0.3-0.7,0.7
				C66.4,60.3,66.7,60.6,67.1,60.6z"/>
		</g>
		<g>
			<path class="st0" d="M73.5,63.6h0.2c0,0,0,0,0,0c0,0,0.1,0,0.2-0.1c0,0,0,0,0,0c0,0.3,0,1.7,0,3c0,1.2,0,2.3,0,2.3h1.9v-0.6h0.8
				v0h0v-1.5h-0.8v-0.1h0.8V65h0v0h-0.8v-1.6c0.1,0,0.3,0.1,0.4,0.1c0.1,0,0.1,0,0.2,0c0.2,0,0.4,0,0.6-0.1c0.2-0.1,0.5-0.2,0.7-0.4
				c0.4-0.3,0.5-0.7,0.5-1.2c0-0.8-0.6-1.5-1.5-1.6c0,0,0-0.1,0-0.1c0-0.1,0-0.2,0-0.2c0,0,0,0,0,0v0c0-0.4-0.2-0.8-0.5-1.1
				c0,0,0,0,0,0c0,0,0,0,0,0c-0.3-0.3-0.8-0.5-1.3-0.5c-1,0-1.8,0.8-1.8,1.7c0,0,0,0,0,0c0,0,0,0,0,0s0,0,0,0c0,0,0,0.1,0,0.3
				c0,0,0,0,0,0.1c-0.3,0-0.5,0.1-0.7,0.3c-0.1,0.1-0.3,0.2-0.4,0.3c-0.3,0.3-0.4,0.7-0.4,1.1c0,0.2,0,0.3,0.1,0.5
				C72,63.1,72.7,63.6,73.5,63.6z M73.5,60.7h0.3l0-0.4l0-0.4c0-0.7,0.6-1.2,1.3-1.2c0.4,0,0.7,0.1,0.9,0.4c0.3,0.2,0.4,0.6,0.4,0.9
				l-0.1,0.7l0.3,0c0.7,0,1.3,0.6,1.3,1.2c0,0.3-0.1,0.7-0.4,0.9c-0.2,0.2-0.6,0.4-0.9,0.4c-0.3,0-0.5-0.1-0.8-0.2l-0.4-0.2l0,2.7
				h0.7v0.7h-0.7v1h0.7v0.7h-0.8v0.6h-0.9c0-0.4,0-5.4,0-5.4L74,63.1l-0.3,0.1h-0.2c-0.7,0-1.3-0.6-1.3-1.3
				C72.2,61.2,72.8,60.7,73.5,60.7z"/>
		</g>
		<g>
			<path class="st0" d="M75,60.6c0.4,0,0.7-0.3,0.7-0.7c0-0.4-0.3-0.7-0.7-0.7c-0.4,0-0.7,0.3-0.7,0.7C74.3,60.3,74.6,60.6,75,60.6z
				"/>
		</g>
		<g>
			<path class="st0" d="M69.5,68.6c-0.2,0.3-0.3,0.6-0.3,0.9c0,0,0,0.2,0,0.3c0,0,0,0.1,0,0.1c-0.3,0-0.6,0.1-0.8,0.2
				c-0.1,0-0.2,0.1-0.2,0.2c-0.1,0.1-0.2,0.3-0.3,0.4c-0.1,0.2-0.2,0.5-0.2,0.8c0,0.4,0.2,0.8,0.5,1.1c0.3,0.3,0.8,0.6,1.3,0.6h0.2
				c0,0,0.1,0,0.2-0.1v5.3h0v0h1.9v0h0v-0.7h0.8v-1.6h0v0h-0.8v-0.1h0.8v0h0v-1.5h-0.8V73c0.2,0.1,0.4,0.2,0.6,0.2
				c1,0,1.8-0.8,1.8-1.7c0-0.4-0.1-0.7-0.4-1c-0.2-0.2-0.4-0.4-0.7-0.5c-0.1-0.1-0.3-0.1-0.5-0.1c0-0.2,0.1-0.3,0.1-0.3
				c0-0.5-0.2-0.9-0.5-1.2c-0.3-0.3-0.8-0.5-1.3-0.5C70.3,67.8,69.8,68.1,69.5,68.6z M70.9,68.3c0.7,0,1.3,0.6,1.3,1.3l-0.1,0.7
				l0.3,0c0.7,0,1.3,0.6,1.3,1.2c0,0.7-0.6,1.2-1.3,1.2c-0.3,0-0.5-0.1-0.7-0.2l-0.4-0.2l0,2.7H72v0.7h-0.8v1c0,0,0.5,0,0.8,0v0.7
				h-0.8V78h-0.9c0-0.4,0-5.4,0-5.4L70,72.6l-0.4,0.1h-0.2c-0.7,0-1.3-0.6-1.3-1.3c0-0.3,0.1-0.6,0.4-0.9c0.3-0.2,0.6-0.3,0.9-0.3
				h0.3l0-0.3l0-0.4C69.6,68.8,70.2,68.3,70.9,68.3z"/>
		</g>
		<g>
			<path class="st0" d="M70.9,70.2c0.4,0,0.7-0.3,0.7-0.7c0-0.4-0.3-0.7-0.7-0.7c-0.4,0-0.7,0.3-0.7,0.7
				C70.2,69.9,70.5,70.2,70.9,70.2z"/>
		</g>
		<g>
			<polygon class="st0" points="84.5,108.8 84.5,108.8 84.5,108.8 			"/>
		</g>
		<g>
			<path class="st0" d="M51.3,25.2c1.5,0.5,2.3,2,2.3,2.2c0,0.1,0,0.1,0,0.2c0,1.5,1.1,2.1,1.9,2.3c0.1,0.1,0.9,1.6,1.9,3.4
				c0,0,0,0,0,0c0,0,0,0,0,0c0,0,0,0,0,0v0c0,0,0,0,0,0c0,0,0,0,0,0c0,0,0,0,0,0c0,0,0,0,0,0l1.4,2.5c0.2,0.3,0.4,0.7,0.6,1
				c0.1,0.1,0.1,0.2,0.2,0.3c0.1,0.1,0.1,0.2,0.2,0.3c0,0.1,0.1,0.1,0.1,0.2c0,0.1,0.1,0.1,0.1,0.2c0,0,0,0.1,0.1,0.1
				c0,0,0,0.1,0,0.1l0.1,0.2c0,0.1,0.1,0.2,0.1,0.2c0.1,0.1,0.2,0.3,0.2,0.4c0.1,0.1,0.1,0.2,0.1,0.3c0,0,0,0.1,0,0.1
				c0,0.1,0.1,0.1,0.1,0.1c0,0,0,0.1,0,0.1c0,0,0,0,0,0.1c0,0,0,0,0,0.1l0,0c-0.8,0.6-1.7,1.7-1.7,3.1c0,0.5,0.1,1,0.4,1.4
				c0.4,0.8,1,1.4,1.8,1.7c0.1,0,0.1,0,0.2,0.1H51.4c0,0,0,0.3,0,0.3v10.2h0l0,49.4c0,0.1-1.3,16.2,16.3,17.7
				c8.2,0.7,13.3,3.4,16.1,5.5l2.7,2.9c0,0,0.1,0.1,0.1,0.1c0,0,0,0,0,0c0,0,0,0,0,0c0,0,0.1,0,0.1,0h0c0,0,0,0,0.1,0c0,0,0,0,0.1,0
				c0,0,0,0,0,0c0.1,0,0.1,0,0.2-0.1l0.1-0.1h0c0,0,0,0,0,0l2.6-2.7c2.8-2.1,7.9-4.8,16.1-5.5c15.3-1.3,16.3-13.6,16.3-16.9
				c0-0.5,0-0.8,0-0.8l0.1-59.9h-0.3c0,0-0.1,0-0.1,0h-9c0.1,0,0.2,0,0.3-0.1c0.8-0.3,1.4-0.8,1.8-1.7c0.2-0.5,0.3-1,0.3-1.4
				c0-1.4-1-2.5-1.7-3.1l0,0l0-0.1l0.1-0.1c0,0,0-0.1,0-0.1l0,0c0,0,0-0.1,0.1-0.1c0,0,0-0.1,0.1-0.1c0,0,0,0,0-0.1
				c0,0,0.1-0.1,0.1-0.1c0,0,0.1-0.1,0.1-0.1l0,0c0.1-0.1,0.1-0.2,0.2-0.3l0,0c0-0.1,0.1-0.1,0.1-0.2l0.3-0.5
				c0.1-0.1,0.1-0.2,0.2-0.3l0.2-0.4c0.1-0.2,0.2-0.3,0.3-0.5l1.5-2.7c0.1-0.1,0.2-0.3,0.2-0.4c0,0,0,0,0,0l0,0v0c0,0,0,0,0,0v0
				c1-1.8,1.9-3.3,1.9-3.4c0.8-0.1,1.9-0.7,1.9-2.3c0-0.1,0-0.1,0-0.2c0.1-0.2,0.8-1.7,2.4-2.2c0.8-0.2,1.3-0.8,1.3-1.6v0
				c0-1-0.8-2-1.9-2.4c-1.7-0.6-4.6,0.5-5.8,1.8c-0.9-0.7-2.5-1.5-4-0.4c-0.5,0.4-0.8,0.8-0.8,1.3v0.1c0,1.2,1.5,2.5,3,3.7
				c-1.1,0.5-4.1,1.7-6.2,0.6c-1.3-0.7-2-2.2-2.2-4.5c0.1,0,0.2,0,0.2,0c0.9,0.2,2.4,0.1,3.3-0.5c0.5-0.3,0.8-0.7,0.9-1.2
				c0-0.1,0-0.2,0-0.3c0-1.3-1.4-2.7-2.7-3.2c0.1-0.3,0.2-0.5,0.2-0.5c0-0.2,0.1-0.4,0.1-0.5c0-1.3-1-2.4-2.4-2.7
				c-1.6-0.3-3.1,0.7-3.4,2.2c0,0,0,0.3-0.1,0.5c-1.6-0.1-3.8,0.6-4.1,2c0,0.1,0,0.2,0,0.3c0,1.4,2,2.9,3.4,3.1c0,0,0.1,0,0.2,0
				c0,0,0,0.1,0,0.1c0,0.3-0.8,5.4-6.2,5.1c-4.9-0.3-6.3-4.6-7.2-7.1c0,0,0-0.1-0.1-0.2c1.2,0.5,3.9,1.2,5.7,0.2
				c1-0.6,1.6-1.6,1.7-3c0-0.2,0-0.3,0-0.5c0-1.1-0.4-2-1.1-2.7c-1.2-1.1-3-1.3-4-1.4c0.4-0.8,1-2.3,1-3.8c0-0.8-0.1-1.5-0.6-2.2
				c-0.7-1.2-2.2-1.7-4.3-1.8c-2.2,0-3.6,0.6-4.4,1.8c-0.4,0.6-0.6,1.4-0.6,2.2c0,1.5,0.6,3,0.9,3.8c-0.9,0-2.8,0.2-3.9,1.4
				c-0.7,0.7-1.1,1.6-1.1,2.7c0,0.1,0,0.3,0,0.5c0.1,1.4,0.7,2.4,1.7,3c1.8,1,4.4,0.3,5.7-0.2c0,0.1-0.1,0.2-0.1,0.2
				c-0.9,2.6-2.3,6.8-7.2,7.1c-5.4,0.4-6.2-4.7-6.2-5v0c0,0,0-0.1,0-0.1c0.1,0,0.2-0.1,0.2-0.1c1.5-0.3,3.4-1.7,3.4-3.1
				c0-0.1,0-0.2,0-0.3c-0.3-1.4-2.5-2.1-4.1-2c0-0.2-0.1-0.5-0.1-0.5c-0.1-0.7-0.6-1.3-1.2-1.7c-0.7-0.4-1.4-0.5-2.2-0.4
				c-1.4,0.3-2.3,1.4-2.3,2.7c0,0.2,0,0.4,0.1,0.5c0,0,0.1,0.3,0.2,0.5c-1.3,0.5-2.7,1.9-2.7,3.1c0,0.1,0,0.2,0,0.3
				c0.1,0.5,0.4,0.9,0.9,1.2c1,0.6,2.4,0.7,3.4,0.5c0,0,0.1,0,0.2,0c-0.1,2.2-0.9,3.8-2.2,4.5c-2.1,1.1-5.1-0.1-6.2-0.6
				c1.5-1.2,3-2.5,3-3.7v-0.1c0-0.5-0.3-0.9-0.8-1.3c-1.5-1.1-3.1-0.3-4,0.4c-1.2-1.3-4.1-2.3-5.8-1.8c-1.1,0.4-1.9,1.4-1.9,2.4v0
				C50,24.4,50.5,25,51.3,25.2z M58.5,33.7L58.5,33.7c1.1,0.3,3.8,1.2,4.4,1.3c-0.2,0.5-1.2,2.8-1.5,3.7c0,0,0,0,0,0
				C60.8,37.8,59.1,34.8,58.5,33.7z M110.7,35l1.7,4c-4-1.3-26.1-7.8-50.3,0l1.7-4.1c0-0.1,0-0.2,0-0.3c0-0.1-0.1-0.1-0.2-0.2
				l-4.5-1.4c5.1-1.5,28.6-7.7,56.4,0l-4.4,1.3c-0.1,0-0.2,0.1-0.2,0.2C110.6,34.8,110.6,34.9,110.7,35z M52.1,46.4h9.7v4.3
				c-0.6,0-8.6,0-9.6,0h-0.1V46.4z M52.1,83.7c0-1.4,0-2.8,0-4.3h9.6c0,1.4,0,2.9,0,4.3C61.1,83.7,53,83.7,52.1,83.7z M61.7,84.5
				v4.3h-2.4v-4.3H61.7z M58.6,84.5v4.3h-6.5c0-1.4,0-2.8,0-4.3H58.6z M52.1,78.8c0-8,0-16.3,0-22.5h9.6c0,6.2,0,14.4,0,22.5
				L52.1,78.8z M52.1,51.4h9.7v4.3c-0.6,0-8.6,0-9.6,0h-0.1V51.4z M83,127.5c-3.1-2-8.1-4.1-15.3-4.8c-14.5-1.3-15.6-12.4-15.6-16
				c0-0.6,0-0.9,0-1c0,0,0-7.1,0-16.4h9.6c0,10,0,17.9,0,17.9c0,6,4.2,6.2,4.2,6.3c13.2,1.8,19.3,5.6,20.4,6.3L83,127.5z
				 M111.1,46.5v4.3V54c0,0.8,0,1.4,0,1.6h0c-0.8,0-47.8,0-48.6,0h0c0-0.6,0-8.4,0-9c0,0,0,0,0,0C63.3,46.5,110.3,46.5,111.1,46.5z
				 M64.1,45.8c0.8-0.2,1.4-0.4,1.4-0.4C76.8,41.8,86.1,42,87.1,42c1.1,0,10.4-0.2,21.7,3.4c0,0,0.7,0.3,1.5,0.5L64.1,45.8z
				 M111.1,56.2l0,44.3c-2-3.7-23.4-42.7-24.3-44.4L111.1,56.2z M62.5,56.2l23.5,0c-0.9,1.6-22,41.4-23.5,44.3L62.5,56.2z
				 M86.4,56.4c0.4,0.7,22.7,41.5,24.7,45.2l0,5.7c0,5.3-3.4,5.5-3.5,5.6c-4.1,0.5-7.6,1.3-10.4,2.1v-4v-0.3l0-1.7v-8.2h0v0h0v-2.4
				h0v0v-1.7h0v-0.3v-2l0-2.1h-7.4c0.3-0.2,0.6-0.4,0.8-0.6c0.1,0,1.3,0.4,1.3,0.4c1.8,0.2,3.2-0.1,4.2-1c1.8-1.4,1.9-3.8,1.9-3.9
				l-0.4-0.1c-0.4,1.7-1.7,2.2-2.6,2.4c1.7-1.2,2.4-3,2.4-4.6c0-0.4-0.1-0.8-0.1-1.2c-0.1-0.3-0.1-0.7-0.1-1.1
				c0-1.7,0.6-3.5,0.6-3.5l-0.3-0.2l-0.3,0.3c-0.6,0.5-1.2,1-1.2,3.9c0,2.1-0.9,3.2-1.5,3.8c0.5-0.7,0.8-1.4,0.8-2.9
				c0-0.4,0-0.9-0.1-1.5c0-0.4-0.1-0.8-0.1-1.1c0-2.5,1-4.7,1-4.7l-0.3-0.2c-1.4,2-1.5,2.5-1.7,4.4L93.8,82c-0.3,1.7-0.8,2.6-1.2,3
				c0.1-0.5,0.2-1,0.2-1.4c0-2.4-1.4-3.4-1.5-3.4l-0.5-0.4l0.3,0.6c0.4,0.8,0.5,1.6,0.5,2.3c0,1.2-0.4,2.2-0.7,2.8
				c-0.1-0.3-0.1-0.7-0.1-0.7c0.1-0.5,0.2-0.8,0.2-1c0-0.2,0-0.3-0.2-0.4c-0.2-0.1-0.4,0.1-0.7,0.4c-0.2,0.2-0.4,0.4-0.5,0.5
				c0.9-1.1,1.1-2.5,1.1-3.6c0-0.7-0.1-1.3-0.1-1.3l-0.4,0v0.2c0,1.4-0.5,2.2-1,2.6c0.5-0.9,0.8-2,0.8-3c0-1-0.2-2-0.5-2.8
				c-0.5-1.4-0.6-3.4-0.6-4.2c0-0.2,0-0.3,0-0.3l-0.3-0.1l-0.1,0.3c-0.2,0.3-0.3,0.7-0.3,1.5c0,0.6,0.1,1.3,0.3,2.4
				c0.1,0.6,0.2,1.2,0.2,1.8c0,0.6-0.1,1.1-0.2,1.6c0-0.2,0.1-0.4,0.1-0.7c0-0.7-0.1-1.6-0.5-2.9c-0.5-1.7-0.6-3.5-0.6-4.6
				c0-0.6,0-1.1,0-1.1l-0.4,0c-0.3,1.3-0.4,2-0.4,2.7c0,0.5,0.1,1,0.1,1.8l0.1,1c0,0.5,0.1,0.9,0.1,1.2c0,0.6-0.1,1-0.1,1.4
				c-0.3-2.9-1.7-3.7-1.7-3.7l-0.6-0.3l0.3,0.5c0.8,1.3,0.9,2.7,0.9,3.8c0,0.4,0,0.9-0.1,1.2c0,0.2,0,0.4,0,0.6
				c0,0.6,0.1,1.2,0.2,1.6c-0.2-0.4-0.2-0.9-0.2-0.9c-0.3-2.9-1.4-3.8-1.5-3.8l-0.5-0.4l0.2,0.6l0.2,0.6c0.2,0.2,0.4,0.5,0.4,3.1
				c0,0,0.1,0.7,0.1,1.2c-0.6-0.5-1.1-0.7-1.2-0.7L83,81.4l0.4,0.5c0.8,0.9,1.2,1.5,1.4,2.4l0,0.3l0.1,1.1c0,0,0,0.1,0,0.2
				c-0.1-0.6-0.3-1.2-0.6-1.7c-0.6-2.1-1.9-2.8-1.9-2.8c0,0-0.3-0.2-0.4-0.2c-0.8-1.3-1.2-2.6-1.2-2.6l-0.4,0l-0.1,0.4
				c-0.1,0.2-0.1,0.5-0.1,0.8c0,0.6,0.3,1.5,1.4,3.1c0.4,0.6,0.7,1.1,0.9,1.7c0,0-0.1-0.1-0.1-0.1L82,84.6l0.4,0.6l0.3,0.4
				c0,0.1,0,0.2,0,0.2c0,0.3-0.1,0.5-0.1,0.7c-0.1-1-0.3-2-2-3.9c-2.1-2.3-2.7-5.3-2.7-5.3l-0.4,0c0,2.3,0.3,2.8,1.1,4.5l0.5,1
				c0.7,1.4,0.9,2.4,0.9,3c0,0.1,0,0.1,0,0.1c-1.5-3.2-3.8-3.4-4-3.4l-0.7,0l0.6,0.4c2.1,1.3,2.8,3.4,2.9,4.5c0.2,1,0.8,1.9,1.3,2.4
				c-0.7-0.4-1.1-1.1-1.1-1.1c-1.5-2.7-3.3-3.1-3.4-3.1L75,85.6l0.4,0.4l0.5,0.5c0.3,0.1,0.7,0.3,1.6,2.8c0.6,1.5,1.3,2.4,2,2.8
				h-3.1v6.2h0v4.4l0,2.1h0v2l0,1.7v2.2l0,1.9v2.3c-2.9-0.8-6.4-1.6-10.5-2.2c-0.2,0-3.6-0.2-3.6-5.5l0-5.7
				C63.9,98.7,86,57.1,86.4,56.4z M80.8,90.2c0,0-1.4-1.4-1.6-2.8c-0.2-1.1-0.8-2.9-2.5-4.3c0.8,0.3,2.3,1.1,3.2,3.5l0.2,0.4
				l0.2-0.4c0,0,0.1-0.3,0.1-0.8c0-0.6-0.2-1.7-0.9-3.1l-0.5-1c-0.6-1.2-0.9-1.8-1-3c0.4,1.1,1.1,2.7,2.4,4.1c1.8,2,1.9,2.8,1.9,4
				l0.1,1.1l0.3-0.5c0,0,0.4-0.7,0.4-1.7c0-0.1,0-0.2,0-0.3c0,0-0.1-0.1-0.1-0.1c0,0,0.1,0.1,0.1,0.1l-0.1-0.5
				c-0.1-0.8-0.5-1.6-1.1-2.4c-1.1-1.6-1.4-2.4-1.4-3c0-0.2,0-0.3,0.1-0.4c0.3,0.9,1.1,2.6,2.2,3.6l0.4,0.4L83,82.6
				c0-0.1-0.1-0.1-0.1-0.2c0.3,0.4,0.6,1,0.9,1.8c0.4,0.7,0.6,1.5,0.7,2.2c0,0.1,0.3,0.3,0.3,0.3l0.3,0.4l0-0.4l0.1-1.1
				c0,0,0-1.1,0-1.1l0-0.3c-0.1-0.7-0.5-1.3-1-2c0.2,0.1,0.5,0.3,0.7,0.6l0.4,0.4L85,81c0-1-0.1-1.6-0.1-2.1
				c0.2,0.5,0.4,1.2,0.5,2.1c0,0.1,0.1,1.4,0.9,1.9l0.4,0.3l-0.2-0.5c0,0-0.4-1.3-0.4-2.5c0-0.2,0-0.4,0-0.5c0-0.3,0.1-0.7,0.1-1.2
				c0-1-0.2-2.1-0.7-3.3c0.5,0.6,1,1.8,1.1,4l0,0.6l0.3-0.5c0,0,0.4-0.7,0.4-2.5c0-0.4,0-0.8-0.1-1.3l-0.1-1
				c-0.1-0.8-0.1-1.3-0.1-1.8c0-0.2,0-0.4,0-0.6c0.1,1.1,0.2,2.4,0.6,3.7c0.4,1.3,0.5,2.1,0.5,2.8c0,0.5-0.1,1-0.2,1.5l-0.2,1.2
				l0.4-0.5c0-0.1,0.8-1,0.8-3c0-0.5-0.1-1.1-0.2-1.8c-0.2-1.1-0.3-1.8-0.3-2.3c0-0.4,0.1-0.7,0.1-0.9c0,1,0.1,2.5,0.6,3.7
				c0.3,0.8,0.5,1.7,0.5,2.7c0,1.2-0.3,2.4-1,3.4L88.4,83l0.6-0.2c0,0,0.9-0.4,1.4-1.6c-0.1,1-0.3,2.3-1.2,3.1l-0.2,0.2l0.2,0.1
				l0.4,0.1c0.3,0,0.7-0.4,0.9-0.7c0,0,0.1-0.1,0.2-0.2c0,0.1,0,0.4-0.1,0.9c0,0.1,0.2,1.2,0.2,1.2l0.1,0.4l0.3-0.3l0.2-0.2
				c0,0,0.1-0.1,0.1-0.1c0.3-0.7,0.8-1.8,0.8-3.1c0-0.5-0.1-1.1-0.3-1.7c0.4,0.5,0.8,1.3,0.8,2.6c0,0.6-0.1,1.2-0.3,2l-0.1,0.4
				l0.4-0.3c0.1,0,1.2-0.8,1.7-3.7l0.2-1.1c0.2-1.4,0.3-2,0.9-3c-0.3,0.9-0.5,2.1-0.5,3.5c0,0.4,0,0.8,0.1,1.2
				c0.1,0.6,0.1,1,0.1,1.4c0,1.5-0.4,2.1-0.9,2.9l-0.6,0.9l0.5-0.2c0.1,0,2.3-1,2.4-4.5c0-2.5,0.5-3.1,1-3.5c-0.2,0.7-0.5,1.8-0.5,3
				c0,0.4,0,0.8,0.1,1.2c0.1,0.4,0.1,0.8,0.1,1.2c0,1.7-0.7,3.6-2.8,4.7l0.1,0.3c0,0,1.9-0.1,3-1.5c-0.2,0.7-0.7,1.7-1.5,2.3
				c-1,0.8-2.3,1.1-3.9,0.9c0,0-1.3-0.5-1.3-0.5l-0.1,0l-0.1,0.1c-0.4,0.4-0.9,0.7-1.5,0.9c-0.4,0.1-0.8,0.3-1.2,0.3
				c-0.4,0-0.6,0-0.7,0v0c0,0,0,0,0,0c-0.1,0-0.2,0-0.4,0c-0.4,0-0.8-0.1-0.8-0.1s-0.3,0-0.7-0.3c-0.2-0.1-0.5-0.3-0.7-0.6l-0.1-0.1
				l-1,0.5c0,0-0.4,0.1-0.9,0.2c-0.2,0-0.3,0.1-0.4,0.1c-0.2,0-0.3,0.1-0.3,0.1c0,0,0,0,0,0c-0.1,0-0.6,0-1.2-0.2
				c-0.8-0.3-1.7-1.1-2.4-2.9c-0.5-1.3-0.8-2-1.1-2.4c0.6,0.4,1.2,1.1,1.9,2.2c0,0.1,0.6,1.3,1.9,1.5l0.5,0.1L80.8,90.2z M89.6,96.2
				v-1.7l2.1,0h0.4h1.4h0.8v1.7C93.9,96.2,89.9,96.2,89.6,96.2z M92.1,98.6h2.2v1.7h-2.2V98.6z M91.9,108.5c0-0.1,0-0.2,0-0.3
				c0-0.6-0.1-1-0.2-1.4h0c0,0,0,0,0,0H92l-0.1,0H92h0.6c-0.1,0.7-0.2,1.3-0.4,1.7H91.9z M92.1,108.8c0,0,0,0.1-0.1,0.1L92.1,108.8
				L92.1,108.8z M92.1,106.5v-1.7h0.9c0,0.3-0.1,0.5-0.1,0.9l-0.1,0.8C92.4,106.5,92.1,106.5,92.1,106.5z M89.6,104.4v-1.7h2.1h0.4
				h1.4c-0.3,0.6-0.4,1.1-0.5,1.7H89.6z M89,102.4c-0.1-0.7-0.1-1.3-0.1-1.6v-0.1h0.3v0h0.4v0h0l2.1,0v1.7H89z M89.2,102.7v0.9
				c-0.1-0.3-0.1-0.6-0.2-0.9H89.2z M88,105.6c-0.1-0.3-0.1-0.6-0.3-0.9h0.3c0,0.2-0.1,0.4-0.1,0.7C88,105.5,88,105.6,88,105.6z
				 M87.6,104.4c-0.4-0.9-0.5-1.4-0.7-1.7h0h1c0,0.4,0.1,0.9,0.2,1.5c0,0-0.1,0.1-0.1,0.2C88,104.4,87.8,104.4,87.6,104.4z
				 M84.1,102.4l-2.2,0v-1.7h2.2h0.4h2.1v1.7H84.1z M86.6,102.7c0,0,0,0.1-0.1,0.1C86.5,102.8,86.5,102.8,86.6,102.7L86.6,102.7
				C86.6,102.7,86.6,102.7,86.6,102.7z M86.2,103.4c-0.1,0.3-0.1,0.7-0.1,1c-0.3,0-0.6,0-0.8,0c-0.3-0.4-0.5-0.7-0.8-0.9v-0.8v0h1.6
				v0c0,0,0,0.1,0,0.2C86.1,103,86.1,103.2,86.2,103.4z M86.1,104.8c0,0.4,0.1,0.9,0.2,1.6l0,0.1h-0.2c-0.1-0.7-0.4-1.3-0.6-1.7
				H86.1z M86.3,106.8l0,0.2c0,0.2-0.1,0.2-0.1,0.4c0-0.2,0-0.4-0.1-0.6H86.3z M84.2,106.5l-0.2-0.2l-0.5-0.2l0.3,0.4h-0.4
				c-0.3-0.3-0.5-0.4-0.5-0.5c0,0-0.2-0.1-0.4-0.2c-0.2-0.3-0.3-0.7-0.5-1h2.5c0.2,0.6,0.4,1.2,0.4,1.7H84.2z M84.9,106.8
				C84.9,106.8,84.9,106.8,84.9,106.8c0,0.1,0,0.3,0,0.4l-0.4-0.4l0,0H84.9z M84.1,107.2v0.7c-0.2-0.4-0.4-0.8-0.6-1.1h0.4
				C84,106.9,84.1,107,84.1,107.2z M82.9,110.5c-0.1-0.4-0.2-0.7-0.3-1.2c0,0,0,0,0-0.1c0,0,0,0,0,0c-0.1-0.1-0.2-0.3-0.2-0.4h0.4
				c0,0.1,0.4,1.4,0.4,1.4v0.3H82.9z M83,110.9c0,0.1,0,0.1-0.1,0.2C83,111,83,111,83,110.9L83,110.9z M82.1,108.5
				c-0.2-0.3-0.5-0.7-0.8-1.1c-0.1-0.2-0.3-0.4-0.4-0.6c0.3,0,0.6,0,0.8,0c0.1,0.2,0.2,0.4,0.4,0.6c0.2,0.4,0.4,0.7,0.5,1.1H82.1z
				 M81.6,106.5c-0.1,0-0.4,0-0.9,0c-0.3-0.6-0.6-1.1-0.9-1.7h1.1C81,105.2,81.2,105.7,81.6,106.5L81.6,106.5z M81,103.5
				c-0.1,0.2-0.1,0.5-0.1,0.8c0,0,0,0.1,0,0.1h-1.2c-0.1-0.2-0.2-0.4-0.2-0.6c0-0.4,0-0.9,0-1.1l2.1,0v0h2.6v0.6
				c-0.1-0.1-0.2-0.1-0.2-0.1l-0.6-0.2l0.3,0.5c0.2,0.2,0.3,0.4,0.4,0.7v0.4h-2.2h-0.1c-0.3-0.7-0.4-1.3-0.4-1.3l-0.4,0L81,103.5z
				 M81.6,100.3c-0.1,0-1.1,0-2.1,0v-0.8l0-0.9h2.1V100.3z M85,92.4c0.4,0.2,0.7,0.3,0.8,0.3l0.9,0.1v1.4H82l0-0.9l0-0.7l0.5-0.1H85
				z M83.6,92.1c0.2-0.1,0.4-0.2,0.5-0.3c0.1,0.1,0.2,0.2,0.3,0.3H83.6z M84.1,94.5v1.7h-2.6l-2.1,0l0-1.7H84.1z M81.9,98.6h2.2v1.7
				h-2.2V98.6z M84.5,100.3c0-0.3,0-1.4,0-1.7h2.1v1.7H84.5z M84.1,98.2h-2.2v-1.7h4.7v1.7H84.1z M84.5,96.2v-1.7H87l2.2,0v1.7H87
				H84.5z M89.6,98.2L89.6,98.2l-0.3,0v0H87v-1.7c0.3,0,4.3,0,4.7,0v0.3c0,0.1,0,0.3,0,0.4c0,0.2,0,0.4,0,0.5l0,0.5H89.6z
				 M91.7,98.6v1.7h-2.1v-1.7H91.7z M88.3,107.6c0,0.1,0,0.2,0.1,0.3l0,0.2c-0.1,0.1-0.1,0.3-0.2,0.4h-0.1
				C88.3,108.2,88.3,107.9,88.3,107.6z M88,102.3L88,102.3l-1,0.1v-1.7h1.5l0,0.1C88.2,101.1,88,101.5,88,102.3z M87,100.3v-1.7h2.2
				v0v1.7H87z M90.2,108.8h0.4c-0.1,0.5-0.3,0.9-0.4,1.3c-0.1-0.3-0.1-0.6-0.1-0.6C90.2,109.3,90.2,109.1,90.2,108.8z M89.7,105.1
				c0-0.1-0.1-0.2-0.1-0.3h0.7l0.1,0.3c0.2,0.5,0.3,1,0.4,1.4h-0.6C90,106,89.9,105.5,89.7,105.1z M90.3,108.5c0-0.2,0-0.4,0-0.5
				c0-0.4,0-0.8-0.1-1.2h0.6c0,0.2,0,0.4,0,0.5c0,0.4,0,0.8-0.1,1.2H90.3z M90.6,104.8l-0.1-0.1h1.2v1.7h-0.1
				C91.2,105.4,90.7,104.9,90.6,104.8z M91.7,94.2l-2.1,0h-0.3H88H87v-1.4l0.5,0c0.6-0.1,1.1-0.2,1.5-0.4c1.2,0,2.5,0,2.7,0V94.2z
				 M81.6,92.6c0,0.3,0,0.8,0,1.2v0.3h-4.7v-1.7h3.4C80.9,92.7,81.4,92.7,81.6,92.6z M79.1,94.5c0,0.1,0,0.4,0,0.7v1l-2.2,0h0v-1.7
				H79.1z M81.6,96.5c0,0.1,0,0.3,0,0.5l0,0.7c0,0.2,0,0.4,0,0.5h-4.7v-1.7H81.6z M79.1,98.6v1.7c-1,0-2,0-2.2,0v-1.7H79.1z
				 M79.1,100.7h0.4h2.1v1.7l-2.1,0h-0.4h0c0-0.2-0.1-0.3-0.1-0.3l-0.3,0c0,0.1,0,0.2,0,0.3h-1.2h-0.6v-1.7H79.1z M80.8,110.7
				c0,0,0-0.1-0.1-0.1c-0.3-0.7-0.6-1.3-1-1.7h0.7c0.2,0.7,0.3,1.3,0.3,1.7C80.8,110.6,80.8,110.6,80.8,110.7L80.8,110.7z
				 M80.9,110.9c0,0.3-0.1,0.4-0.1,0.4c0-0.1-0.1-0.3-0.2-0.4H80.9z M79.5,108.5L79.5,108.5l0-1.7c0,0,0.1,0,0.2,0l0.4,0.8
				c0.1,0.3,0.2,0.6,0.3,0.9H79.5z M76.9,106.4v-1.7h2c0.1,0.5,0.3,1,0.6,1.7H76.9z M77.4,107.4l-0.5,0v-0.6h2.2v1.4
				C78.2,107.4,77.5,107.4,77.4,107.4z M78.2,108.5h-1c-0.2,0-0.3,0-0.4,0v-1.1l0.4,0.3C77.7,107.9,78,108.2,78.2,108.5z
				 M78.7,102.7c0,0.7,0.1,1.2,0.2,1.7h-1.9v-1.7L78.7,102.7z M78.5,108.8c0.4,0.6,0.7,1.1,0.9,1.7h-2c-0.1-0.1-0.2-0.1-0.3-0.1
				l-0.2-0.1v-1.6H78.5z M79.1,110.9v1.1c-0.4-0.5-0.8-0.9-1.1-1.1H79.1z M77.1,110.9l0.3,0.3c0.2,0.1,0.4,0.2,0.9,1.4h-1.4v-1.7
				H77.1z M78.4,112.9c0.1,0.3,0.2,0.6,0.4,1.1c0.1,0.2,0.2,0.5,0.2,0.7h-2.2v-1.7H78.4z M79.2,115c0.2,0.4,0.4,0.7,0.5,1
				c-0.9-0.3-1.9-0.6-3-1H79.2z M79.6,115c0-0.1-0.1-0.2-0.1-0.3c-0.1-0.2-0.2-0.5-0.3-0.8c-0.1-0.4-0.2-0.7-0.3-0.9
				c0-0.1-0.1-0.2-0.1-0.3c-0.2-0.5-0.4-0.9-0.5-1.1c0.3,0.3,0.6,0.6,0.9,1.1c0,0,0,0,0,0c0.1,0.1,0.1,0.2,0.2,0.3
				c0.1,0.2,0.3,0.5,0.4,0.7c0,0,0.2,0.5,0.6,1c0.1,0.1,0.3,0.2,0.5,0.3c0.2,0.1,0.4,0.2,0.6,0.2l0.4,0.1l-0.2-0.3h0v0l0-0.1
				c0,0-0.1-0.1-0.2-0.3c-0.3-0.3-0.7-1-0.9-1.7c0-0.1-0.1-0.2-0.1-0.3c0-0.2-0.1-0.3-0.1-0.5c0-0.3-0.1-0.8-0.3-1.2c0,0,0,0,0,0
				c0-0.1-0.1-0.2-0.1-0.3c-0.2-0.6-0.5-1.1-0.9-1.7c-0.1-0.1-0.2-0.2-0.3-0.3c0,0,0,0,0,0c-0.2-0.2-0.4-0.4-0.6-0.6
				c0.3,0.1,0.6,0.3,1,0.6l0,0l0.1,0.1c0,0,0,0,0,0c0.1,0.1,0.2,0.2,0.2,0.2c0.4,0.4,0.7,1,1.1,1.7c0,0.1,0.1,0.2,0.1,0.3l0,0
				c0.1,0.2,0.1,0.3,0.2,0.5l0.2,0.5l0.2-0.5c0,0,0.1-0.2,0.1-0.5v0c0-0.1,0-0.2,0-0.3c0,0,0-0.1,0-0.1c0-0.4-0.1-1-0.3-1.7
				c0,0,0,0,0,0c0-0.1-0.1-0.2-0.1-0.3c0,0,0,0,0,0c-0.1-0.3-0.2-0.6-0.4-1l-0.3-0.7v0l-0.1-0.3c0,0,0,0,0-0.1c0,0,0,0,0,0
				c-0.3-0.7-0.5-1.2-0.6-1.7c0-0.1-0.1-0.2-0.1-0.4c0-0.2-0.1-0.3-0.1-0.5c0-0.1,0-0.2,0-0.3c0,0,0,0.1,0,0.1
				c0.1,0.2,0.2,0.5,0.2,0.7c0,0.1,0.1,0.2,0.1,0.3c0,0,0,0,0,0c0.2,0.5,0.5,1.1,0.8,1.7c0,0,0,0,0,0c0.1,0.1,0.1,0.2,0.2,0.3
				c0,0,0,0,0,0c0.2,0.3,0.3,0.5,0.5,0.8c0.3,0.4,0.5,0.7,0.7,1c0.1,0.1,0.1,0.2,0.2,0.3c0,0,0,0,0,0c0.4,0.7,0.6,1.2,0.7,1.7
				c0,0.1,0,0.2,0,0.4c0,0,0,0,0,0c0,0.2,0,0.5,0.1,0.7l0.1,1l0,0.1l0.1-0.1l0.2-0.4c0,0,0.3-0.5,0.4-1.3c0,0,0,0,0,0
				c0-0.1,0-0.2,0-0.3v0c0-0.1,0-0.4,0-0.4l-0.1-0.5c0-0.3-0.1-0.5-0.2-0.8l0,0c0-0.1-0.1-0.2-0.1-0.3c-0.2-0.4-0.4-0.8-0.6-1.3
				c-0.1-0.2-0.2-0.3-0.3-0.5c0,0,0,0,0,0c-0.1-0.1-0.1-0.2-0.2-0.3c0,0,0,0,0,0c-0.1-0.3-0.3-0.5-0.4-0.8c0,0,0,0,0,0
				c-0.2-0.4-0.3-0.7-0.3-0.9c0-0.1,0-0.3,0-0.4c0,0,0-0.1,0-0.1c0-0.2,0-0.3,0.1-0.4c0,0.2,0.1,0.3,0.2,0.5c0,0.1,0.1,0.2,0.1,0.3
				c0,0,0,0,0,0.1c0.1,0.3,0.2,0.5,0.3,0.8c0.1,0.3,0.3,0.6,0.5,0.9c0.1,0.1,0.1,0.2,0.2,0.3c0,0,0,0,0,0c0.2,0.2,0.3,0.5,0.5,0.7
				l0.3-0.1c0,0-0.1-0.1-0.1-0.3c0.2,0.4,0.5,0.8,0.7,1.4c0,0.1,0.1,0.2,0.1,0.3c0,0,0,0,0,0c0,0,0,0.1,0,0.1
				c0.3,0.5,0.4,1.1,0.5,1.6c0,0,0,0,0,0c0,0.1,0,0.1,0,0.2c0,0.1,0,0.1,0,0.2c0,0.1,0,0.2,0,0.3c0,0.1,0.2,0.3,0.2,0.3l0.3,0.4
				l0-0.5l0-0.5l0-0.2l0-0.2v0l0-0.3c0,0-0.1-1.2-0.1-1.2c0-0.1,0-0.2-0.1-0.2v0c0-0.1-0.1-0.2-0.1-0.3c-0.1-0.5-0.3-0.9-0.5-1.3v0
				c0,0,0-0.1-0.1-0.1c0,0,0,0,0.1,0.1v0c0.2,0.1,0.3,0.3,0.5,0.5l0.3,0.4l0-0.5v-0.2c0-0.2,0-0.4,0-0.6c0,0,0,0,0,0
				c0-0.1,0-0.2,0-0.3c-0.1-0.5-0.2-1.1-0.4-1.7c0-0.1-0.1-0.2-0.1-0.4c0,0,0,0,0,0c-0.1-0.1-0.1-0.2-0.2-0.3v0
				c0-0.1-0.1-0.1-0.1-0.2l0.1,0.1c0.1,0.1,0.2,0.3,0.4,0.4c0,0,0,0,0,0c0.1,0.1,0.2,0.2,0.2,0.4c0.3,0.4,0.5,1,0.6,1.7
				c0,0.1,0,0.2,0.1,0.3c0.1,0.4,0.1,0.8,0.1,1.3l0,0.4v0.1l0.1-0.1l0.2-0.3c0,0,0.3-0.3,0.4-1.1c0,0,0-0.1,0-0.3h0c0,0,0,0,0,0h0
				c0,0,0,0,0,0v0c0-0.1,0-0.2,0-0.3c0-0.1,0-0.1,0-0.1c-0.1-0.6-0.1-1.1-0.2-1.6c0-0.1,0-0.2,0-0.3v-0.1c0-0.3,0.1-0.6,0.1-0.9
				c0.1-0.1,0.1-0.2,0.2-0.4c0.2,0.4,0.4,1,0.5,1.3v0c0,0.1,0.1,0.2,0.1,0.2c0,0.1,0,0.1,0.1,0.2c0.2,0.7,0.4,1.2,0.5,1.7
				c0,0.1,0,0.2,0.1,0.3c0,0,0,0,0,0c0,0.2,0.1,0.5,0.1,0.7c0,0.4-0.1,0.7-0.1,1c0,0.1,0,0.2-0.1,0.3c0,0,0,0.1,0,0.1
				c0,0.1,0.1,0.4,0.1,0.4l0.1,0.4l0.2-0.3c0.1-0.1,0.2-0.3,0.3-0.6c0.1-0.1,0.1-0.2,0.2-0.3c0-0.1,0.1-0.2,0.1-0.4v0
				c0-0.1-0.1-0.3-0.1-0.3c-0.1-0.4-0.2-0.7-0.2-1.1c0,0,0,0,0,0c0-0.1,0-0.2-0.1-0.3c-0.1-0.4-0.1-0.7-0.1-1c0-0.3,0-0.5,0.1-0.7
				c0-0.1,0.1-0.2,0.1-0.3c0,0,0-0.1,0-0.1c-0.1-0.7-0.2-1.2-0.2-1.6v0c0-0.1,0-0.2,0-0.3c0-0.6,0.1-1,0.3-1.2c0,0.3,0,0.8,0.1,1.2
				c0,0.1,0,0.2,0,0.3v0c0.1,0.6,0.2,1.1,0.3,1.7c0,0.1,0.1,0.2,0.1,0.3c0.1,0.1,0.1,0.3,0.2,0.4c0.2,0.4,0.3,0.8,0.4,1.3
				c0,0,0,0,0,0c0,0.1,0.1,0.2,0.1,0.3c0,0,0,0,0,0c0.1,0.4,0.1,0.8,0.1,1.2c0,0.2,0,0.3,0,0.5c0,0.1,0,0.2,0,0.3
				c0,0.2-0.1,0.4-0.1,0.6c0,0.1,0.1,0.8,0.2,1.1c0,0.1,0,0.1,0,0.1l0,0.2l0,0.2l0.1-0.2l0.1-0.1l0.1-0.2c0,0,0,0,0-0.1
				c0-0.1,0-0.1,0-0.1c0.2-0.4,0.4-0.9,0.5-1.6c0-0.1,0-0.2,0.1-0.3c0.1-0.4,0.1-0.8,0.1-1.2c0-0.2,0-0.3,0-0.5c0,0,0,0,0,0
				c0-0.1,0-0.2,0-0.3c0,0,0,0,0,0c0-0.2-0.1-0.5-0.1-0.7c0.1,0.2,0.2,0.4,0.3,0.7c0,0,0,0,0,0c0,0.1,0.1,0.2,0.1,0.3c0,0,0,0,0,0
				c0.1,0.4,0.2,0.9,0.2,1.5c0,0.1,0,0.1,0,0.2c0,0.1,0,0.2,0,0.3c0,0.4-0.1,0.9-0.2,1.4l-0.1,0.3l0,0.1l0.1-0.1l0.2-0.2
				c0,0,0.1,0,0.1-0.1c0.1-0.1,0.2-0.3,0.4-0.5c0.1-0.2,0.3-0.5,0.4-0.9c0-0.1,0.1-0.2,0.1-0.3c0.1-0.5,0.3-1,0.4-1.7c0,0,0,0,0,0
				c0,0,0,0,0-0.1l0-0.3l0,0l0.1-0.8c0-0.3,0.1-0.6,0.1-0.9c0-0.1,0-0.2,0.1-0.3c0.1-0.6,0.3-1.1,0.5-1.7c-0.1,0.5-0.2,1.1-0.3,1.7
				c0,0.1,0,0.2,0,0.3c0,0.4-0.1,0.9-0.1,1.4c0,0.1,0,0.2,0,0.3c0,0,0,0,0,0c0,0.1,0,0.2,0,0.3c0,0.1,0,0.3,0,0.4
				c0,0.5,0.1,0.9,0.1,1.3v0.3c0,0.7-0.1,1.3-0.3,1.7c0,0.1-0.1,0.2-0.1,0.3c-0.1,0.3-0.2,0.5-0.4,0.7l-0.5,0.9l0.5-0.2
				c0.1,0,0.8-0.4,1.3-1.4c0.1-0.1,0.1-0.2,0.1-0.3c0,0,0,0,0,0c0.2-0.5,0.4-1,0.5-1.7c0-0.1,0-0.2,0-0.3c0-0.2,0-0.5,0-0.7
				c0-0.4,0-0.7,0-1c0-0.1,0-0.2,0-0.3c0,0,0,0,0,0c0.1-0.9,0.2-1.4,0.4-1.7c0.1-0.1,0.2-0.3,0.2-0.3c0,0,0.1-0.1,0.1-0.1
				c0,0,0,0.1,0,0.1c0,0.1-0.1,0.2-0.1,0.3c-0.1,0.5-0.2,1.1-0.3,1.7v0c0,0.1,0,0.2,0,0.3c0,0.2,0,0.3,0,0.5c0,0.4,0,0.8,0.1,1.2
				c0,0,0,0,0,0c0,0.1,0,0.2,0,0.3c0,0.3,0.1,0.5,0.1,0.8c0,0.3,0,0.6-0.1,0.9c0,0.1,0,0.2-0.1,0.3c-0.1,0.6-0.3,1.2-0.6,1.7
				c0,0,0,0.1-0.1,0.1c0,0.1-0.1,0.2-0.1,0.2c0,0,0,0,0,0c-0.4,0.5-0.8,1-1.5,1.4l-0.5,0.3l0,0h0.6c0,0,0,0,0,0
				c0.3,0,1.6-0.2,2.4-1.5c-0.1,0.5-0.3,1-0.6,1.5c-0.1,0.1-0.1,0.2-0.2,0.3c-0.2,0.2-0.4,0.5-0.6,0.7c-0.2,0.1-0.4,0.3-0.6,0.4
				c-0.2,0.1-0.5,0.2-0.8,0.3c-0.5,0.1-1.1,0.1-1.7,0.1c0,0-1.1-0.5-1.1-0.5l-0.1-0.1l-0.1,0.1c-0.6,0.6-1.4,1.1-2.5,1.3
				c0,0-1.5-0.1-1.5-0.1s-0.7-0.1-1.2-0.9l-0.1-0.1l-0.9,0.5l-1.2,0.3l-0.2,0c-0.1,0-1,0.2-1.9-0.9C80.1,115.9,79.8,115.5,79.6,115z
				 M79.5,112.6C79.5,112.6,79.5,112.5,79.5,112.6l-0.1-1.7l0.1,0c0.1,0.5,0.2,0.9,0.3,1.3c0,0.1,0.1,0.3,0.1,0.4H79.5z M80,112.9
				c0.2,0.7,0.6,1.3,0.9,1.7h0c-0.6-0.4-0.9-1.1-0.9-1.1c-0.1-0.2-0.2-0.4-0.3-0.6H80z M84.8,108.8c0,0.1,0,0.2,0.1,0.3
				c0,0,0.1,1.2,0.1,1.2s0,0.1,0,0.1c-0.1-0.5-0.2-1-0.5-1.6h0H84.8z M84.5,108.5v-0.6c0.1,0.2,0.1,0.4,0.2,0.6H84.5z M94.9,104.8
				c-0.2,0.4-0.3,0.9-0.4,1.7c-0.2,0-0.5,0-0.7,0c0-0.1,0-0.2,0-0.3c0-0.5,0-0.9,0.1-1.4H94.9z M93.9,104.4c0.1-0.6,0.2-1.2,0.3-1.7
				h0v1.7H93.9z M93.7,110.6c0.1-0.4,0.2-1,0.3-1.7h0.5c-0.1,0.7-0.3,1.3-0.5,1.7H93.7z M93.7,110.9c-0.2,0.3-0.3,0.5-0.5,0.6
				c0.1-0.2,0.2-0.4,0.3-0.6H93.7z M93.8,106.8h0.4v1.7h-0.3c0-0.4,0-0.8-0.1-1.3C93.8,107.1,93.8,106.9,93.8,106.8z M96.7,112.6
				h-0.6c0.1-0.4,0.1-0.7,0.1-0.8l-0.3,0c-0.1,0.3-0.2,0.6-0.3,0.8H95c0.3-0.5,0.5-1.1,0.6-1.7h1.1V112.6z M96.8,112.9v1.7h-1.4
				c0.3-0.6,0.5-1.2,0.6-1.7H96.8z M95.4,112.9c-0.5,0.8-1.2,1.1-1.7,1.3c0.5-0.4,0.8-0.8,1.1-1.3H95.4z M95.6,108.4
				c-0.1-0.3-0.1-0.7-0.1-1.1c0-0.2,0-0.3,0-0.5h1.2v1.7L95.6,108.4C95.6,108.5,95.6,108.4,95.6,108.4z M95.2,115h1.6
				c-0.8,0.2-1.5,0.4-2.1,0.7C94.8,115.4,95,115.2,95.2,115z M96.7,110.6h-1.1c0-0.3,0.1-0.6,0.1-0.9c0-0.3,0-0.5-0.1-0.8h1.1
				C96.8,109.1,96.7,110.3,96.7,110.6z M96.7,106.5c-0.2,0-0.6,0-1.1,0c0.1-0.6,0.2-1.2,0.3-1.7h0.9L96.7,106.5L96.7,106.5z
				 M95.9,104.4c0.1-0.4,0.2-0.6,0.2-0.6l-0.3-0.2l-0.3,0.3c-0.1,0.1-0.3,0.3-0.5,0.5h-0.4v-1.7h2.1v1.7H95.9z M94.3,102.4
				c0.2-0.6,0.3-1,0.3-1l-0.3-0.1c-0.3,0.4-0.5,0.8-0.6,1.1h-1.6v-1.7l2.2,0h0.4h2.1v1.7H94.3z M94.6,100.3v-1.7h2.1v1.7H94.6z
				 M94.6,98.3L94.6,98.3l-2.6,0c0-0.1,0-0.5,0-0.9c0-0.4,0-0.7,0-0.8h2.6h2.1c0,0.3,0,1.4,0,1.7L94.6,98.3z M94.6,96.2l0-0.9
				c0-0.4,0-0.7,0-0.9h2.1v1.7H94.6z M93.4,94.2l-1.3,0v-1.7h4.7v1.7H93.4z M86.8,119.3c-0.5-0.4-1.8-1.2-3.9-2.1l0.9-0.2
				c0,0,0.1,0,0.2-0.1c0,0,0,0,0,0c0,0,0.1-0.1,0.1-0.1c0.1-0.1,0.2-0.1,0.3-0.2c0.6,0.8,1.3,0.9,1.4,0.9l1.5,0.1
				c1.1-0.2,2-0.6,2.6-1.3c0,0,0,0,0.1,0c0,0,0.1,0,0.1,0c0.1,0,0.2,0.1,0.2,0.1c0.1,0,0.1,0,0.2,0.1c0,0,0.1,0,0.1,0
				c0.1,0,0.2,0.1,0.2,0.1c0,0,0,0,0.1,0c0,0,0.1,0,0.1,0c0,0,0,0,0,0c0.1,0,0.1,0,0.2,0c0.1,0,0.1,0,0.2,0c0.1,0,0.2,0,0.4,0
				c-0.7,0.3-1.3,0.5-1.8,0.8c-0.5,0.2-1,0.5-1.4,0.7c-0.1,0-0.2,0.1-0.2,0.1c-0.1,0.1-0.3,0.2-0.4,0.2
				C87.3,118.8,87,119.1,86.8,119.3z M89.3,128.3c-1,0.8-1.8,1.5-2.2,2.1v-8.9c0.9,2,2.6,6,2.7,6.3
				C89.8,127.9,89.6,128.1,89.3,128.3z M105.7,122.8c-7.2,0.6-12.2,2.7-15.3,4.7l-3.3-7.7c0.9-0.6,6.8-4.6,20.4-6.4
				c0,0,4.2-0.2,4.2-6.2c0,0,0-7.8,0-17.9h9.6c0,9.3,0,16.4,0,16.4c0,0.1,0,0.4,0,1C121.4,110.3,120.3,121.5,105.7,122.8z
				 M111.8,83.7c0-1.4,0-2.8,0-4.3h9.6v4.3C120.6,83.7,112.6,83.7,111.8,83.7z M121.4,84.5v4.3h-6.5v-4.3H121.4z M114.2,84.5v4.3
				h-2.4c0-1.4,0-2.8,0-4.3H114.2z M111.8,55.7v-4.3h2.4v4.3C113.8,55.7,112.4,55.7,111.8,55.7L111.8,55.7z M121.4,78.8l-9.6,0
				c0-8.1,0-16.4,0-22.5h9.6C121.4,62.5,121.4,70.8,121.4,78.8z M121.4,55.7L121.4,55.7c-0.5,0-3.9,0-6.6,0v-4.3h6.6V55.7z
				 M121.4,46.4v4.3c0,0,0,0,0,0c-0.6,0-8.6,0-9.6,0h-0.1v-4.3H121.4z M114.1,43.8c-0.3,0.6-0.8,1.1-1.4,1.3
				c-1.6,0.5-3.6-0.3-3.6-0.4c-11.5-3.6-20.9-3.5-21.9-3.4c-1.1,0-10.5-0.2-21.9,3.4c0,0-2.1,0.9-3.7,0.4c-0.6-0.2-1.1-0.7-1.4-1.3
				c-0.9-1.8,0.5-3.3,1.3-3.9c0,0,0,0,0,0c25.8-8.6,49.4-0.6,51.2,0l0,0C113.6,40.4,115,41.9,114.1,43.8z M113.1,38.6L113.1,38.6
				c-0.1,0.1-0.1,0.1-0.1,0.2c-0.4-0.9-1.3-3.2-1.5-3.7c0.5-0.2,3.2-1,4.4-1.3C115.3,34.7,113.7,37.5,113.1,38.6z M52.1,21.8
				c1.5-0.5,4.3,0.6,5.2,1.8l0.2,0.3l0.3-0.3c0.1-0.1,1.8-1.6,3.3-0.5c0.3,0.2,0.5,0.5,0.5,0.8c0,0.9-1.5,2.2-2.8,3.4l-0.7,0.6
				l0.4,0.2c0.2,0.1,4.4,2.4,7.4,0.9c1.6-0.8,2.5-2.6,2.6-5.3v-0.1L68.4,23l-0.9,0.1c-0.8,0.2-2.1,0.1-2.8-0.4
				c-0.3-0.2-0.5-0.5-0.6-0.7c-0.2-1,1.3-2.6,2.5-2.8l0.4-0.1l-0.2-0.4L66.5,18c-0.2-1.1,0.5-2.2,1.7-2.4c0.6-0.1,1.2,0,1.6,0.3
				c0.5,0.3,0.8,0.8,0.9,1.3l0.1,1l0.4,0.1c1.2-0.2,3.4,0.3,3.7,1.4c0.2,1.1-1.6,2.4-2.8,2.7l-0.9,0.2l0.2,0.7c0,0.1,0.9,6,7,5.6
				c5.4-0.3,7-5.1,7.8-7.6l0.6-1.6l-0.8,0.3c0,0-3.7,1.6-5.7,0.5c-0.8-0.5-1.2-1.3-1.4-2.5c-0.1-1.1,0.2-2,0.8-2.6
				c1.4-1.3,4-1.2,4-1.1l0.6,0l-0.3-0.5c0,0-2-3.7-0.6-5.8c0.6-0.9,1.8-1.4,3.6-1.4c1.9,0,3.1,0.5,3.7,1.4c1.3,2.1-0.6,5.7-0.6,5.8
				l-0.3,0.5l0.6,0c0,0,2.6-0.2,4,1.1c0.7,0.6,0.9,1.5,0.9,2.6c-0.1,1.2-0.6,2-1.4,2.5c-2,1.1-5.7-0.5-5.7-0.5l-0.8-0.3l0.6,1.6
				c0.9,2.6,2.5,7.3,7.8,7.6c6.1,0.4,7-5.5,7-5.6c0-0.1,0.1-0.5,0.1-0.5l0.1-0.3l-0.9-0.2c-1.2-0.2-3-1.6-2.8-2.7
				c0.2-1,2.4-1.6,3.7-1.4l0.4,0.1l0-0.5l0.1-0.6c0.2-1.1,1.4-1.8,2.6-1.6c1.2,0.2,2,1.3,1.7,2.4l-0.4,1l0.4,0.1
				c1.2,0.3,2.7,1.8,2.5,2.8c-0.1,0.3-0.3,0.5-0.6,0.7c-0.8,0.5-2,0.6-2.8,0.4l-0.9-0.1l-0.1,0.4c0.1,2.8,1,4.6,2.6,5.4
				c2.9,1.5,7.2-0.8,7.4-0.9l0.4-0.2l-0.7-0.6c-1.3-1.1-2.9-2.4-2.8-3.4c0-0.3,0.2-0.5,0.5-0.8c1.5-1.1,3.2,0.5,3.3,0.5l0.3,0.3
				l0.2-0.3c0.9-1.2,3.7-2.3,5.2-1.8c0.8,0.3,1.4,1.1,1.4,1.8c0,0.3-0.1,0.7-0.8,0.9c-1.9,0.6-2.8,2.6-2.8,2.6l0,0.1l0,0.1
				c0.2,1.7-1.3,1.9-1.5,1.9l-0.2,0l-1.9,3.5c-30-8.6-55.4-1-58.5,0L56,29.3l-0.2,0c-0.2,0-1.6-0.2-1.5-1.9l0-0.1l0-0.1
				c0-0.1-0.9-2-2.8-2.6c-0.6-0.2-0.8-0.6-0.8-0.9C50.7,22.9,51.3,22.1,52.1,21.8z"/>
		</g>
		<g>
			<path class="st0" d="M112.8,73.4c0,0,2.2-1.2,3-3.4v3.7h1.6l0-3.7c0.9,2.2,3,3.4,3,3.4l0.2-0.3c-1.6-1.8-1.9-3.6-1.9-4.4
				c0.2-0.1,0.3-0.3,0.3-0.4c0-0.2-0.1-0.3-0.3-0.4c0-0.7,0.1-2.6,1.9-4.7l-0.2-0.3c0,0-2.2,1.2-3,3.4l0-3.4h-1.6v3.4
				c-0.9-2.2-3-3.4-3-3.4l-0.2,0.3c1.8,2.1,1.9,4,1.9,4.7c-0.2,0.1-0.3,0.2-0.3,0.4c0,0.2,0.1,0.3,0.3,0.4c0,0.9-0.3,2.6-1.9,4.4
				L112.8,73.4z M117.1,73.3h-0.9c0-0.1,0-2.3,0-4.5l0.9,0V73.3z M119.8,72.5c-0.8-0.7-2.1-1.9-2.4-3.7h0.7c0.1,0,0.2,0,0.3,0
				C118.5,69.6,118.8,71,119.8,72.5z M119.9,63.8c-1.2,1.7-1.4,3.3-1.4,4c-0.1,0-0.2,0-0.3,0l-0.7,0C117.6,65.8,119,64.5,119.9,63.8
				z M116.2,63.2h0.9v4.5l-0.9,0C116.2,65.5,116.2,63.4,116.2,63.2z M118.2,68.1c0.1,0,0.2,0,0.3,0c0.1,0,0.1,0,0.2,0.1
				c0.1,0,0.1,0.1,0.1,0.1c0,0-0.1,0.1-0.2,0.1c0,0-0.1,0-0.2,0.1c-0.1,0-0.2,0-0.3,0h-3c-0.1,0-0.2,0-0.3,0c-0.1,0-0.1,0-0.2-0.1
				c-0.1,0-0.2-0.1-0.2-0.1c0,0,0.1-0.1,0.2-0.1c0,0,0.1,0,0.2-0.1c0.1,0,0.2,0,0.3,0H118.2z M113.4,63.8c0.9,0.7,2.2,2,2.4,4h-0.7
				c-0.1,0-0.2,0-0.2,0v0C114.9,67,114.6,65.5,113.4,63.8z M114.9,68.8c0.1,0,0.2,0,0.3,0l0.7,0c-0.3,1.8-1.5,3-2.4,3.7
				C114.5,71,114.8,69.6,114.9,68.8z"/>
		</g>
		<g>
			<path class="st0" d="M99.6,68.7v-2h2.4v-1.9c0,0-2,0-2.4,0c0-0.4,0-6.1,0-6.1h-2.1c0,0,0,5.7,0,6.1h-2.4v1.9h2.4v2H99.6z
				 M95.7,66.2v-1.1H98v-6.1h1.1c0,0.4,0,6.1,0,6.1h2.4v1.1h-2.4v2H98c0-0.4,0-2,0-2H95.7z"/>
		</g>
		<g>
			<path class="st0" d="M107.3,58.7h-2.1v0.2c0,0,0,5.4,0,5.9h-2.4v1.9h2.4v2h2.1v-2h2.4l0-1.9h-2.4
				C107.3,64.3,107.3,58.7,107.3,58.7z M109.2,65.2v1h-2.4v2h-1.1v-2h-2.4v-1h2.4v-6.1c0.3,0,0.8,0,1.1,0c0,0.4,0,6.1,0,6.1H109.2z"
				/>
		</g>
		<g>
			<path class="st0" d="M103.4,67.9h-2.1v6.1H99v1.9h2.4v2h2.1c0,0,0-1.6,0-2h2.4v-1.9h-2.4V67.9z M105.3,74.4v1H103v2
				c-0.3,0-0.8,0-1.1,0v-2h-2.4v-1h2.4v-6.1h1.1c0,0.4,0,6.1,0,6.1H105.3z"/>
		</g>
		<g>
			<path class="st0" d="M86.8,29.6l-2.9,2.7l3,2.8l3-2.8l-3-2.8L86.8,29.6z M86.9,34.6c-0.2-0.2-2.2-2.1-2.5-2.3
				c0.2-0.2,2.2-2.1,2.5-2.3c0.2,0.2,2.3,2.1,2.5,2.3C89.2,32.5,87.1,34.4,86.9,34.6z"/>
		</g>
		<g>
			<polygon class="st0" points="91.8,32.8 93.3,34.2 94.8,32.8 93.3,31.3 			"/>
		</g>
		<g>
			<polygon class="st0" points="97.8,33.2 99.1,34.8 100.9,33.5 99.6,31.9 			"/>
		</g>
		<g>
			<polygon class="st0" points="103.8,34.2 105,35.9 106.8,34.8 105.6,33.1 			"/>
		</g>
		<g>
			<polygon class="st0" points="78.7,32.8 80.2,34.2 81.8,32.8 80.2,31.3 			"/>
		</g>
		<g>
			<polygon class="st0" points="72.7,33.5 74.4,34.8 75.7,33.2 74,31.9 			"/>
		</g>
		<g>
			<polygon class="st0" points="66.7,34.8 68.5,35.9 69.7,34.2 67.9,33.1 			"/>
		</g>
		<g>
			<path class="st0" d="M88.8,17.1c0-0.8-0.7-1.4-1.5-1.4c-0.8,0-1.5,0.6-1.5,1.4c0,0.8,0.7,1.4,1.5,1.4
				C88.1,18.6,88.8,17.9,88.8,17.1z"/>
		</g>
		<g>
			<path class="st0" d="M105.2,21.8c0.5,0,0.9-0.4,0.9-0.9c0-0.5-0.4-0.9-0.9-0.9c-0.5,0-0.9,0.4-0.9,0.9
				C104.3,21.4,104.7,21.8,105.2,21.8z"/>
		</g>
		<g>
			<path class="st0" d="M70,20.9c0-0.5-0.4-0.9-0.9-0.9c-0.5,0-0.9,0.4-0.9,0.9c0,0.5,0.4,0.9,0.9,0.9C69.6,21.8,70,21.4,70,20.9z"
				/>
		</g>
		<g>
			<path class="st0" d="M92.4,17.1c-0.1,0-0.1,0.1-0.1,0.2c0,0.1,0,0.1,0.1,0.1c0.2,0.1,0.9,0.5,0.9,0.9c0,0.3-0.3,0.6-0.9,0.9
				l0.2,0.3c0.7-0.4,1.1-0.8,1.1-1.2v0c0-0.5-0.5-0.9-0.9-1.1c0.5-0.4,0.8-0.7,0.8-1.1v-0.1c-0.1-0.7-1.1-1.2-1.2-1.2l-0.1,0.3
				c0.3,0.1,0.9,0.4,1,0.9C93.3,16.4,93,16.8,92.4,17.1z"/>
		</g>
		<g>
			<path class="st0" d="M82.3,17.1c-0.6-0.4-0.9-0.7-0.9-1c0-0.4,0.7-0.8,1-0.9l-0.1-0.3c-0.1,0-1.1,0.4-1.2,1.2v0.1
				c0,0.4,0.3,0.7,0.8,1.1c-0.3,0.2-0.9,0.5-0.9,1.1v0c0,0.4,0.4,0.8,1.1,1.2l0.2-0.3c-0.6-0.3-0.9-0.6-0.9-0.9
				c0-0.4,0.7-0.8,0.9-0.9c0,0,0.1-0.1,0.1-0.1C82.4,17.2,82.4,17.1,82.3,17.1z"/>
		</g>
		<g>
			<path class="st0" d="M87.1,9.5c0,0.1,0.1,0.1,0.2,0.1c0.1,0,0.1,0,0.2-0.1c0.1-0.2,0.5-0.8,1-0.8c0.3,0,0.7,0.3,1,0.9l0.3-0.2
				c-0.4-0.7-0.8-1-1.3-1c-0.5,0-0.9,0.5-1.1,0.8c-0.4-0.5-0.8-0.8-1.2-0.8c-0.8,0.1-1.2,1.1-1.3,1.1l0.3,0.1
				c0.1-0.2,0.5-0.9,0.9-0.9C86.3,8.6,86.7,8.9,87.1,9.5z"/>
		</g>
		<g>
			<path class="st0" d="M127,127.1c0.8-1.7,1.6-3.4-0.6-4.6c-1.8-1-3.4-0.3-4.1,0.1c-0.3-0.6-0.9-1.5-2.1-1.6
				c-1.4-0.1-3,1.3-4.6,4.1c-2.9,5-7.6,6.6-10.2,7c-0.1,0-0.8,0.1-0.8,0.1c-0.9,0.1-2.2,0.2-3.1,1.1c-0.3,0.3-0.4,0.6-0.4,0.8
				c0,0.1,0,0.1,0,0.2c0.1,0.5,0.6,0.9,1,1.1c-6.1,1.6-13.9,1.5-15.5,1.5l-0.2,0c-1.6,0.1-9.4,0.1-15.5-1.5c0.4-0.3,0.9-0.6,1-1.1
				c0-0.1,0-0.1,0-0.2c0-0.2-0.1-0.5-0.4-0.8c-0.9-0.9-2.2-1-3.1-1.1l-0.7-0.1c-2.6-0.5-7.3-2-10.2-7.1c-1.6-2.8-3.2-4.2-4.6-4.1
				c-1.2,0.1-1.8,1-2.1,1.6c-0.7-0.4-2.3-1.1-4.1-0.1c-1,0.6-1.4,1.3-1.4,2v0.1c0,0.8,0.4,1.7,0.9,2.6l0.2,0.3
				c0.3,0.7,0.3,1.2,0.3,1.7c0,0.5,0,0.9,0.3,1.3c-0.6,0.5-0.9,1.2-0.9,1.9c0,0.2,0,0.5,0.1,0.7c0.4,1.9,3.6,2.2,4.6,2.3
				c0.4,2.6,1.9,3,3,3c0.4,0,0.8-0.2,1.1-0.6c0.3-0.4,0.4-1.1,0.2-1.5c-0.1-0.3,0-0.9,0.2-1.2c0.8,0.6,1.7,1.2,2.5,1.9l2.3,2
				c2.7,2.4,5.2,4.7,9.8,4.4v2.3l0.2,0.1c0.2,0.1,5.1,2.5,16.6,2.4c11.5,0.1,16.4-2.3,16.6-2.4l0.2-0.1v-2.3c4.6,0.3,7.1-2,9.8-4.4
				l2.3-2c0.8-0.6,1.6-1.2,2.4-1.9c0.2,0.3,0.3,0.8,0.2,1.2c-0.2,0.5-0.1,1.1,0.2,1.5c0.3,0.4,0.7,0.6,1.1,0.6c1.1,0,2.6-0.4,3-3
				c0.9,0,4.1-0.3,4.6-2.3c0.1-0.2,0.1-0.5,0.1-0.7c0-0.8-0.3-1.4-0.9-1.9c0.3-0.3,0.3-0.7,0.3-1.3c0-0.5,0-1,0.3-1.7L127,127.1z
				 M69.9,135.1v0.2c0,0-0.1,6.7-0.1,7.2c-4.2,0.3-6.7-1.9-9.2-4.2l-2.3-2c-3.1-2.4-6.6-4.9-9.1-5.7c-0.2-0.1-0.4-0.1-0.6-0.2
				c-0.5-0.1-0.7-0.2-0.9-0.3c-0.2-0.2-0.2-0.5-0.2-0.9c0-0.5,0-1.2-0.4-1.9l-0.1-0.3c-0.9-1.9-1.3-2.9,0.3-3.9
				c1.9-1.1,3.6,0.2,3.7,0.2l0.3,0.2l0.2-0.4c0.3-0.7,0.9-1.5,1.7-1.5c0.8-0.1,2.1,0.6,4,3.8c3.1,5.2,8,6.8,10.6,7.3
				c0.1,0,0.8,0.1,0.8,0.1c0.9,0.1,1.9,0.2,2.7,0.9c0.2,0.2,0.2,0.3,0.2,0.4c0,0,0,0.1,0,0.1c-0.1,0.4-0.9,0.9-1.2,1L69.9,135.1z
				 M102.8,144.9c-0.4,0.2-1.9,0.8-4.5,1.3c-0.3,0.1-0.7,0.1-1,0.2c-0.4,0.1-0.8,0.1-1.2,0.2c-0.4,0.1-0.8,0.1-1.3,0.2
				c-0.2,0-0.4,0.1-0.7,0.1c-0.4,0-0.8,0.1-1.3,0.1c-0.9,0.1-1.8,0.1-2.8,0.2c-0.5,0-1,0-1.5,0c-0.6,0-1.2,0-1.9,0
				c-0.6,0-1.3,0-1.9,0c-0.5,0-1,0-1.5,0c-1,0-1.9-0.1-2.8-0.2c-0.4,0-0.9-0.1-1.3-0.1c-0.2,0-0.5,0-0.7-0.1
				c-0.4-0.1-0.9-0.1-1.3-0.2c-0.4-0.1-0.8-0.1-1.2-0.2c-0.4-0.1-0.7-0.1-1-0.2c-2.6-0.5-4.1-1.1-4.5-1.3v-9.1
				c0.8,0.2,1.6,0.4,2.4,0.6c0.4,0.1,0.8,0.2,1.2,0.2c0.6,0.1,1.3,0.2,1.9,0.3c0.6,0.1,1.2,0.1,1.9,0.2c0.2,0,0.4,0,0.6,0.1
				c0.4,0,0.8,0.1,1.2,0.1c1.2,0.1,2.2,0.1,3.2,0.2c0.3,0,0.6,0,0.9,0c1.3,0,2.3,0,2.7,0c0,0,0.1,0,0.1,0h0.1c0.4,0,1.4,0,2.7,0
				c0.3,0,0.6,0,0.9,0c1,0,2-0.1,3.2-0.2c0.4,0,0.8-0.1,1.2-0.1c0.2,0,0.4,0,0.6-0.1c0.6-0.1,1.2-0.1,1.9-0.2
				c0.6-0.1,1.3-0.2,1.9-0.3c0.4-0.1,0.8-0.1,1.2-0.2c0.8-0.2,1.6-0.3,2.4-0.6V144.9z M126.4,126.8l-0.1,0.3
				c-0.4,0.8-0.4,1.4-0.4,1.9c0,0.4,0,0.7-0.2,0.9c-0.2,0.1-0.4,0.2-0.9,0.3c-0.2,0-0.4,0.1-0.5,0.1c-2.5,0.8-6,3.3-9.1,5.8l-2.3,2
				c-2.6,2.3-5,4.5-9.2,4.2c0-0.5-0.1-7-0.1-7l0,0v-0.4l-0.3,0.1c-0.4-0.2-1.1-0.6-1.3-1c0,0,0,0,0-0.1c0-0.1,0-0.2,0.2-0.4
				c0.7-0.8,1.8-0.9,2.7-0.9l0.8-0.1c2.7-0.5,7.6-2.1,10.7-7.4c1.9-3.2,3.2-3.8,4-3.8c0.8,0.1,1.4,0.8,1.7,1.5l0.1,0.4l0.4-0.2
				c0.1,0,1.8-1.3,3.7-0.2C127.8,123.9,127.3,124.9,126.4,126.8z"/>
		</g>
		<g>
			<path class="st0" d="M106.6,135.3v0.5h1.2v3.4h0.7v-4.8H108C107.8,135.2,107.5,135.3,106.6,135.3z"/>
		</g>
		<g>
			<path class="st0" d="M111.7,133.5c-0.7,0-1.1,0.3-1.3,0.6l0,0c0-0.5,0.3-1.8,1.3-1.7c0.6,0,0.8,0.3,0.9,0.7l0.7,0
				c0-1-0.9-1.3-1.5-1.3c-1.6,0-2,1.5-2,2.5c0,0.6,0.1,1.2,0.4,1.7c0.4,0.6,0.9,0.7,1.4,0.7c0.8,0,1.1-0.2,1.4-0.4
				c0.4-0.4,0.5-0.7,0.5-1.2C113.4,133.9,112.3,133.5,111.7,133.5z M111.6,136.2c-0.8,0-1.1-0.6-1.1-1.1c0-0.6,0.4-1,1.1-1
				c0.8,0,1.1,0.6,1,1C112.6,135.7,112.2,136.2,111.6,136.2z"/>
		</g>
		<g>
			<path class="st0" d="M116,130.1c-0.7,0-1.1,0.3-1.3,0.6l0,0c0-0.5,0.2-1.8,1.3-1.8c0.6,0,0.8,0.3,0.9,0.7h0.7
				c-0.1-1-0.9-1.3-1.6-1.3c-1.6,0-2,1.5-2,2.5c0,0.6,0.1,1.2,0.4,1.7c0.4,0.5,1,0.7,1.4,0.7c0.8,0,1.1-0.2,1.4-0.5
				c0.4-0.3,0.5-0.7,0.5-1.2C117.7,130.5,116.7,130.1,116,130.1z M116,132.7c-0.8,0-1.1-0.6-1.1-1c0-0.6,0.4-1,1.1-1
				c0.8,0,1.1,0.6,1.1,1C117,132.3,116.6,132.7,116,132.7z"/>
		</g>
		<g>
			<path class="st0" d="M120.2,124.8c-1.5,0-1.8,1.5-1.8,2.5c0,1,0.3,2.4,1.8,2.4c1.5,0,1.8-1.5,1.8-2.4
				C122.1,126.3,121.8,124.8,120.2,124.8z M120.2,129.2c-0.8,0-1.1-0.7-1.1-1.9c0-1.2,0.4-1.9,1.1-1.9c0.8,0,1.1,0.7,1.1,1.9
				C121.4,128.5,121,129.2,120.2,129.2z"/>
		</g>
		<g>
			<path class="st0" d="M73.3,143.4l-0.7-0.3c-0.2-0.1-0.3-0.1-0.3-0.3c0-0.3,0.4-0.3,0.6-0.2c0.3,0.1,0.6,0.2,0.6,0.5l0.3,0.1
				c0-0.2-0.1-0.6-1-0.8c-0.6-0.1-0.9,0.1-0.9,0.4c0,0.4,0.4,0.5,0.6,0.6l0.5,0.2c0.4,0.2,0.5,0.2,0.5,0.5c0,0.3-0.4,0.2-0.7,0.2
				c-0.3-0.1-0.7-0.3-0.7-0.6l-0.3-0.1c0,0.2,0,0.4,0.3,0.6c0.1,0.1,0.3,0.3,0.8,0.3c0.4,0.1,1,0.1,1-0.4
				C73.9,143.7,73.7,143.5,73.3,143.4z"/>
		</g>
		<g>
			<path class="st0" d="M75.1,142.7l-0.9,1.9l0.3,0.1l0.2-0.5l1,0.2l0.2,0.6l0.4,0.1l-0.9-2.2L75.1,142.7z M74.8,143.9l0.4-0.8h0
				l0.4,1L74.8,143.9z"/>
		</g>
		<g>
			<polygon class="st0" points="78.4,144.9 78.4,144.9 77.2,143.1 76.7,143 76.8,145.1 77.1,145.1 77.1,143.5 77.1,143.5 
				78.3,145.3 78.7,145.3 78.7,143.3 78.4,143.2 			"/>
		</g>
		<g>
			<path class="st0" d="M81.3,143.5l-1.1-0.1l0,2l0.3,0l0-0.9l0.8,0.1c0.5,0.1,0.7-0.3,0.7-0.6C82,143.9,81.7,143.6,81.3,143.5z
				 M81.1,144.5l-0.7-0.1v-0.7l0.7,0.1c0.3,0,0.5,0.1,0.5,0.4C81.6,144.4,81.4,144.5,81.1,144.5z"/>
		</g>
		<g>
			<polygon class="st0" points="82.4,145.7 84.1,145.8 84.1,145.5 82.7,145.5 82.7,144.8 84,144.8 84,144.6 82.7,144.5 82.7,143.9 
				84.2,144 84.2,143.7 82.4,143.6 			"/>
		</g>
		<g>
			<path class="st0" d="M85.6,143.8l-1,0v2.1l1,0c0.8,0,1-0.6,1.1-1C86.6,144.2,86.2,143.8,85.6,143.8z M85.5,145.6l-0.6,0l0-1.6
				l0.6,0c0.4,0,0.7,0.3,0.7,0.8C86.2,145.3,85.9,145.6,85.5,145.6z"/>
		</g>
		<g>
			<path class="st0" d="M88.8,145.5l0-0.4c0-0.3-0.1-0.3-0.3-0.4c0.2-0.1,0.4-0.2,0.4-0.5c0-0.4-0.4-0.5-0.8-0.5l-1.1,0l0,2.1l0.3,0
				l0-0.9l0.8,0c0.4,0,0.4,0.2,0.4,0.4c0,0.1,0,0.4,0,0.5h0.4v-0.1C88.8,145.7,88.8,145.7,88.8,145.5z M88.1,144.7l-0.8,0l0-0.7
				l0.8,0c0.2,0,0.5,0,0.4,0.3C88.6,144.6,88.3,144.7,88.1,144.7z"/>
		</g>
		<g>
			<path class="st0" d="M90.4,143.6c-0.9,0-1.2,0.7-1.2,1.1c0,0.4,0.3,1.1,1.1,1c0.9,0,1.2-0.7,1.2-1.1
				C91.6,144.2,91.3,143.6,90.4,143.6z M90.3,145.5c-0.5,0-0.8-0.3-0.8-0.8c0-0.5,0.3-0.9,0.9-0.9c0.6,0,0.8,0.3,0.8,0.8
				C91.2,145.1,90.9,145.5,90.3,145.5z"/>
		</g>
		<g>
			<path class="st0" d="M94.1,144.3l-0.7-0.1c-0.1,0-0.3,0-0.3-0.2c0-0.3,0.4-0.4,0.6-0.4c0.3,0,0.6,0,0.6,0.4l0.3,0
				c0-0.2-0.1-0.6-1-0.5c-0.6,0.1-0.9,0.4-0.9,0.7c0,0.3,0.4,0.4,0.5,0.4l0.5,0c0.4,0,0.5,0.1,0.5,0.3c0,0.3-0.4,0.4-0.7,0.4
				c-0.3,0-0.7,0-0.6-0.4l-0.3,0c0,0.2,0,0.4,0.2,0.5c0.1,0.1,0.3,0.2,0.7,0.1c0.4,0,1-0.3,1-0.7C94.6,144.4,94.4,144.3,94.1,144.3z
				"/>
		</g>
		<g>
			<path class="st0" d="M96.6,144.2c0,0.4-0.4,0.6-0.7,0.7c-0.3,0.1-0.6,0-0.6-0.5l0-1.3l-0.4,0.1l0,1.3c0,0.4,0.3,0.7,0.9,0.6
				c0.7-0.1,1-0.5,1-0.9l0.1-1.3l-0.4,0.1L96.6,144.2z"/>
		</g>
		<g>
			<polygon class="st0" points="97.8,142.8 97.4,142.8 97.4,144.8 99,144.5 99,144.3 97.7,144.5 			"/>
		</g>
		<g>
			<path class="st0" d="M100,142.3l-1,2.2l0.4-0.1l0.3-0.7l1-0.2l0.2,0.5l0.4-0.1l-0.9-1.8L100,142.3z M99.8,143.5l0.4-1h0l0.4,0.8
				L99.8,143.5z"/>
		</g>
		<g>
			<polygon class="st0" points="73.7,140.2 72.3,139.9 72.4,139.2 73.6,139.5 73.6,139.3 72.4,139 72.4,138.4 73.8,138.7 
				73.8,138.5 72.1,138.1 72,140 73.7,140.4 			"/>
		</g>
		<g>
			<path class="st0" d="M74.9,140.5c-0.3-0.1-0.6-0.2-0.6-0.6l-0.3-0.1c0,0.2,0,0.3,0.2,0.5c0.1,0.1,0.3,0.2,0.7,0.3
				c0.4,0.1,0.9,0.1,0.9-0.4c0-0.3-0.2-0.5-0.5-0.6l-0.6-0.3c-0.1-0.1-0.3-0.1-0.3-0.3c0-0.3,0.3-0.3,0.5-0.2c0.3,0,0.6,0.2,0.6,0.5
				l0.3,0.1c0-0.2-0.1-0.6-0.9-0.8c-0.5-0.1-0.8,0.1-0.8,0.4c0,0.3,0.3,0.5,0.5,0.5l0.5,0.2c0.4,0.1,0.5,0.2,0.5,0.4
				C75.5,140.6,75.1,140.5,74.9,140.5z"/>
		</g>
		<g>
			<path class="st0" d="M78.2,140.5l-0.3-0.1c-0.1,0.4-0.5,0.5-0.7,0.4c-0.5-0.1-0.7-0.5-0.7-0.9c0-0.5,0.4-0.7,0.8-0.6
				c0.2,0,0.5,0.1,0.6,0.5l0.3,0c0-0.3-0.3-0.7-0.9-0.8c-0.7-0.1-1.1,0.2-1.1,0.8c0,0.8,0.5,1.1,1,1.2
				C77.4,141.2,78,141.3,78.2,140.5z"/>
		</g>
		<g>
			<path class="st0" d="M80.3,140.9l0.1-1.3l-0.3,0l0,1.2c0,0.4-0.3,0.5-0.6,0.5c-0.3-0.1-0.5-0.2-0.5-0.6l0-1.2l-0.3,0l0,1.3
				c0,0.4,0.3,0.7,0.8,0.8C80,141.6,80.3,141.3,80.3,140.9z"/>
		</g>
		<g>
			<path class="st0" d="M82.6,140.8c0-0.6-0.3-1-0.9-1l-0.9-0.1l0,2l0.9,0.1C82.4,141.8,82.6,141.2,82.6,140.8z M81.1,139.9l0.6,0.1
				c0.4,0,0.7,0.3,0.6,0.8c0,0.5-0.3,0.7-0.6,0.7l-0.6,0L81.1,139.9z"/>
		</g>
		<g>
			<path class="st0" d="M83.9,141.9c0.8,0,1.1-0.6,1.1-1c0-0.4-0.2-1-1-1.1c-0.8-0.1-1.1,0.5-1.1,1
				C82.8,141.3,83.1,141.9,83.9,141.9z M83.9,140.1c0.5,0,0.8,0.4,0.8,0.8c0,0.5-0.3,0.8-0.8,0.8c-0.5,0-0.8-0.4-0.7-0.8
				C83.1,140.4,83.4,140.1,83.9,140.1z"/>
		</g>
		<g>
			<path class="st0" d="M87.9,140.9c0-0.6-0.3-1-0.9-1l-0.9,0l0,2h0.8C87.6,142,87.8,141.4,87.9,140.9z M86.9,141.7h-0.6l0-1.5
				l0.6,0c0.4,0,0.7,0.2,0.6,0.7C87.5,141.4,87.3,141.7,86.9,141.7z"/>
		</g>
		<g>
			<polygon class="st0" points="89.8,141.9 89.8,141.6 88.5,141.7 88.5,141 89.7,141 89.7,140.8 88.5,140.8 88.5,140.2 89.8,140.1 
				89.8,139.9 88.2,140 88.2,141.9 			"/>
		</g>
		<g>
			<path class="st0" d="M91.4,139.8l-0.8,2l0.3,0l0.2-0.6l0.9-0.1l0.2,0.6l0.3,0l-0.8-1.9L91.4,139.8z M91.2,141l0.4-0.9h0l0.3,0.8
				L91.2,141z"/>
		</g>
		<g>
			<path class="st0" d="M94.5,141.2l0-0.3c0-0.3-0.1-0.3-0.3-0.3c0.1-0.1,0.3-0.2,0.3-0.5c0-0.4-0.4-0.5-0.7-0.4l-1.1,0.1l0,1.9
				l0.3,0l0-0.8l0.7-0.1c0.4,0,0.4,0.1,0.4,0.3c0,0.1,0,0.4,0.1,0.5l0.4,0v-0.1C94.5,141.3,94.5,141.3,94.5,141.2z M93.8,140.4
				l-0.7,0.1l0-0.7l0.8-0.1c0.1,0,0.4,0,0.4,0.3C94.2,140.3,94,140.4,93.8,140.4z"/>
		</g>
		<g>
			<path class="st0" d="M96.6,139.1l-0.6,1.7h0l-0.7-1.5l-0.4,0.1l0.1,1.9l0.3-0.1l-0.1-1.1c0-0.1,0-0.3,0-0.5h0l0.7,1.5l0.3,0
				l0.6-1.7h0v0.5l0,1.1l0.3,0l0-1.9L96.6,139.1z"/>
		</g>
		<g>
			<path class="st0" d="M97.8,140.3l0.9-0.2l0.2,0.5l0.3-0.1l-0.9-1.7l-0.4,0.1l-0.7,2.1l0.3-0.1L97.8,140.3z M98.2,139.1
				L98.2,139.1l0.4,0.8l-0.7,0.1L98.2,139.1z"/>
		</g>
		<g>
			<path class="st0" d="M99.4,139.1c0,0.3,0.4,0.3,0.5,0.3l0.5,0c0.4,0,0.5,0,0.5,0.2c0,0.3-0.4,0.4-0.6,0.5
				c-0.3,0.1-0.6,0.1-0.7-0.3l-0.3,0.1c0,0.2,0.1,0.3,0.3,0.4c0.1,0,0.3,0.1,0.7,0c0.4-0.1,0.9-0.3,0.9-0.8c0-0.3-0.3-0.4-0.6-0.4
				l-0.7,0.1c-0.1,0-0.3,0-0.3-0.2c0-0.3,0.3-0.4,0.5-0.5c0.3-0.1,0.6-0.1,0.6,0.2l0.3-0.1c0-0.2-0.1-0.6-1-0.4
				C99.6,138.4,99.4,138.8,99.4,139.1z"/>
		</g>
		<g>
			<path class="st0" d="M56,128.3c0.2-0.4,0.4-1.2-0.2-1.8c-0.6-0.7-1.1-0.3-1.3,0.1c-0.2,0.4-0.3,1.2,0.2,1.8
				C55.3,129,55.8,128.6,56,128.3z M54.9,128.1c-0.3-0.4-0.4-0.9-0.1-1.4c0.2-0.4,0.6-0.5,0.9-0.1c0.3,0.4,0.4,0.9,0.1,1.3
				C55.6,128.4,55.2,128.5,54.9,128.1z"/>
		</g>
		<g>
			<polygon class="st0" points="56.5,130.1 57.2,128.3 57.8,128.8 57.9,128.6 56.5,127.4 56.5,127.6 57,128.1 56.3,129.9 			"/>
		</g>
		<g>
			<path class="st0" d="M59.3,131c0.1-0.5,0.2-1.3-0.5-1.8c-0.7-0.5-1,0-1.2,0.5c-0.1,0.5-0.2,1.3,0.5,1.7
				C58.8,131.9,59.2,131.4,59.3,131z M58.2,131.2c-0.4-0.3-0.5-0.8-0.3-1.3c0.2-0.5,0.5-0.7,0.9-0.4c0.4,0.3,0.5,0.8,0.3,1.3
				C58.9,131.3,58.6,131.5,58.2,131.2z"/>
		</g>
		<g>
			<path class="st0" d="M59.9,131.5l0.6,0.4c0.3,0.2,0.3,0.4,0.2,0.6c0,0.1-0.1,0.4-0.1,0.6l0.3,0.2l0,0c-0.1-0.1-0.1-0.1,0-0.3
				l0.1-0.4c0.1-0.3,0-0.4-0.1-0.5c0.1,0,0.3,0,0.4-0.4c0.1-0.5-0.2-0.8-0.4-1l-0.8-0.5l-0.5,2.2l0.2,0.1L59.9,131.5z M60.1,130.5
				l0.6,0.4c0.1,0.1,0.3,0.2,0.2,0.6c-0.1,0.3-0.3,0.3-0.5,0.2l-0.6-0.4L60.1,130.5z"/>
		</g>
		<g>
			<path class="st0" d="M62.2,132.9l0.6,0.3c0,0.2-0.1,0.4-0.3,0.5c-0.2,0.1-0.3,0-0.4,0c-0.5-0.2-0.5-0.8-0.4-1.2
				c0.1-0.6,0.4-0.8,0.8-0.6c0.2,0.1,0.5,0.3,0.5,0.8l0.3,0.1c0-0.5-0.3-1-0.7-1.1c-0.6-0.3-1,0.2-1.1,0.7c0,0.2-0.1,0.6,0.1,1.1
				c0.1,0.2,0.2,0.4,0.5,0.5c0.2,0.1,0.5,0.1,0.7,0l0,0.3l0.2,0.1l0.2-1.2l-0.8-0.4L62.2,132.9z"/>
		</g>
		<g>
			<path class="st0" d="M64.2,132.3l-1,2l0.3,0.1l0.3-0.6l0.8,0.3l0.1,0.8l0.3,0.1l-0.4-2.6L64.2,132.3z M63.8,133.6l0.4-0.9
				l0.1,1.1L63.8,133.6z"/>
		</g>
		<g>
			<path class="st0" d="M53.6,130.5l-0.2-0.2c-0.3,0.3-0.6,0.1-0.7,0c-0.4-0.4-0.4-0.9-0.2-1.3c0.2-0.5,0.6-0.4,0.9-0.1
				c0.2,0.2,0.4,0.5,0.3,0.8l0.2,0.2c0.1-0.3,0-0.8-0.4-1.3c-0.5-0.5-1-0.4-1.3,0.1c-0.3,0.7-0.1,1.3,0.4,1.7
				C52.6,130.6,53.1,131.1,53.6,130.5z"/>
		</g>
		<g>
			<path class="st0" d="M53.4,131.3l0.3,0.2l0.4-0.4l0.7,0.6l0,0.7l0.3,0.2l0.1-2.4l-0.3-0.2L53.4,131.3z M54.9,130.5l-0.1,1
				l-0.6-0.5L54.9,130.5L54.9,130.5z"/>
		</g>
		<g>
			<path class="st0" d="M57.4,132.8c0.1-0.4-0.1-0.8-0.4-1l-0.9-0.7l-0.7,1.9l0.3,0.2l0.3-0.8l0.6,0.5c0.3,0.2,0.3,0.5,0.2,0.6
				c0,0.1-0.1,0.4-0.1,0.5l0.3,0.2l0,0c-0.1-0.1-0.1-0.2,0-0.3l0.1-0.4c0.1-0.3,0-0.4-0.1-0.5C57.1,133,57.2,133,57.4,132.8z
				 M56.6,132.6l-0.6-0.5l0.2-0.7l0.6,0.5c0.1,0.1,0.3,0.3,0.2,0.6C57,132.9,56.8,132.8,56.6,132.6z"/>
		</g>
		<g>
			<polygon class="st0" points="58.1,132.7 57.9,132.5 57.2,134.5 58.5,135.3 58.5,135.1 57.6,134.4 			"/>
		</g>
		<g>
			<path class="st0" d="M60.1,134c-0.7-0.5-1.1,0-1.2,0.5c-0.1,0.4,0,1.2,0.7,1.7c0.7,0.5,1.1,0,1.2-0.5
				C60.9,135.2,60.8,134.5,60.1,134z M60.5,135.5c-0.1,0.5-0.5,0.7-0.9,0.4c-0.4-0.3-0.6-0.8-0.4-1.3c0.1-0.5,0.5-0.7,0.9-0.4
				C60.5,134.5,60.6,135,60.5,135.5z"/>
		</g>
		<g>
			<path class="st0" d="M61.9,135.1c-0.5-0.3-0.7-0.1-0.8,0.3c-0.1,0.3,0.2,0.6,0.3,0.7l0.4,0.3c0.3,0.3,0.4,0.4,0.3,0.6
				c-0.1,0.3-0.4,0.2-0.6,0.1c-0.2-0.2-0.5-0.4-0.4-0.8l-0.3-0.1c0,0.2,0,0.4,0.1,0.6c0.1,0.1,0.2,0.3,0.5,0.5
				c0.3,0.2,0.8,0.3,0.9-0.2c0.1-0.3-0.1-0.6-0.3-0.8l-0.5-0.4c-0.1-0.1-0.2-0.2-0.2-0.4c0.1-0.3,0.3-0.2,0.5-0.1
				c0.2,0.1,0.4,0.4,0.4,0.7l0.2,0.1C62.6,136,62.6,135.5,61.9,135.1z"/>
		</g>
		<g>
			<polygon class="st0" points="63.4,138.3 63.7,138.4 64,136.3 63.7,136.2 			"/>
		</g>
		<g>
			<polygon class="st0" points="64.1,138.7 64.4,138.8 64.7,136.6 64.4,136.5 			"/>
		</g>
	</g>
</g>
</svg>
